<svg xmlns="http://www.w3.org/2000/svg" viewBox="0 0 1586 2524.45"><defs><style>.cls-1,.cls-4{fill:#fff;}.cls-1{opacity:0;}.cls-2{fill:#ffc622;}.cls-3{fill:#6aaab1;}.cls-5{fill:#ffd46b;}</style></defs><g id="Bg"><rect class="cls-1" width="1586" height="2524.45"/></g><g id="Layer_1" data-name="Layer 1"><path class="cls-2" d="M1387,832.09c16.79-357-241-524.3-569-516.26S215.76,504.21,199,861.23a703.88,703.88,0,0,0,1,81.42l0,1.1c-.05,65.92,16.95,129.21,42.65,191.56A611.12,611.12,0,0,0,271,1197.59c49.34,99.83,114.11,198.67,159.57,303.64,83.09,191.84,59.93,234.06,59.93,234.06l524.16-12.86s-21.44-41.12,79.89-237.49,264.74-371.09,282.88-565.79A728.66,728.66,0,0,0,1387,832.09Z"/><path class="cls-3" d="M1018.89,1667.52s-105.59,57.07-266.11,61.31c-160.49,3.64-260.95-48.38-260.95-48.38S406.12,1752,426,1779.07s30.7,22.22,30.7,22.22-27.85,276.37,40.55,348.21c63.49,66.68,217.14,59.89,238.9,58.57,20.22.29,163.32-.21,233.23-70.16,75.32-75.36,73.43-351,73.43-351s10.43,4.34,32.86-23.78S1018.89,1667.52,1018.89,1667.52Z"/><path class="cls-4" d="M573.46,1727.6c.36-96.21-2.09-279.8-12.12-443.09-16.17,2.15-31.7,1.65-45.9-1.72-25.69-6.47-59.56-24.64-75.93-77.47-42.6-138-29.47-271.48,29.3-297.54,13.77-6.21,49.08-13.82,83.42,43.87,24.49,41.44,39.83,150.57,49.43,274.64,20.62-10,41.63-24.48,61-42.37A275,275,0,0,1,646,1104.18c-3.61-62.42,10.07-156.93,52.06-171.47a33.26,33.26,0,0,1,30.7,5c30,23.62,25.85,115.17,20.7,167.61-3.24,34.26-14.86,63.61-34.53,87.56,8.2,14.95,18,27.06,28.71,34.83,9.81,7.23,19.14,9.45,27.83,7.14l11.18,42.43c-21.67,5.75-43.63.83-64.72-14-13.16-9.57-25-22.77-35.16-38.59-25,21.4-51.61,37.72-77.79,48.12,12.72,197.53,12.52,415.31,12.36,454.74ZM492.13,948.66c-2.23-1.11-4.1-1.37-5.52-.82-21.24,9.5-48.6,104-5.14,244.54,8.27,26.84,22.61,42.52,44.26,47.67,9.75,2.33,20.87,2.47,32.71.56-9-124.72-22.9-230.93-44.05-266.53C506,959.78,497.82,951.47,492.13,948.66ZM705.28,986c-8.74,20.83-18.34,65.43-15.37,115.57a226.74,226.74,0,0,0,5.65,39.51,125.65,125.65,0,0,0,10.26-40C711,1048.48,709.19,1007.34,705.28,986Z"/><path class="cls-4" d="M868.13,1718.45c1.49-16,22.38-245.8,55.35-454.7-24.82-9.39-49.47-24.14-71.81-43.59-12.45,18-26.59,33-41.73,43.28-20.56,14.13-42.17,19.15-62.35,14.73l9.52-42.92c10.14,2.32,20.84-3.09,28.07-8,12.72-8.73,24.89-22.52,35.5-39.56q-26.29-35.64-26.4-86.56c-.09-42.22,3.12-143,35.63-167.06a32.47,32.47,0,0,1,29.43-5.17c40.09,13.11,48.2,108.62,38.47,172.29a299.64,299.64,0,0,1-24,79.75,214.41,214.41,0,0,0,56.88,38.41c21.37-126.37,47-238.39,75.28-280.67,39.24-58.75,72.38-54.24,89.65-44.09,54.71,28.64,54.56,159.28-.23,297.36-22.69,57.17-61.93,75.66-90.81,81.1a131.77,131.77,0,0,1-38.27,1.19c-25.71,165.16-45.67,351-54.46,448.24Zm207.1-785.11c-2.59-1.33-15.13,3.33-32.71,29.66-24.59,36.81-48.52,143.18-69.25,267.87a87.37,87.37,0,0,0,23.2-1.08c26.31-4.88,45.82-23.08,58.13-54C1109.46,1037.54,1094,943,1075.23,933.34ZM850.44,982.51c-6.38,21-12.41,63.3-12.29,118.44a119,119,0,0,0,5.63,37,261.19,261.19,0,0,0,10.68-43.5C861.77,1046.34,857.14,1003.61,850.44,982.51Z"/><path class="cls-5" d="M1265,1127.28s257.34-502-143.33-699.44c-310.87-153.21-564,23.59-564,23.59S798.14,476.56,981,594.15C1316.2,809.61,1257.45,1047.53,1265,1127.28Z"/><path class="cls-5" d="M1265,1127.28s257.34-502-143.33-699.44c-310.87-153.21-564,23.59-564,23.59S798.14,476.56,981,594.15C1316.2,809.61,1257.45,1047.53,1265,1127.28Z"/><path d="M458.32,1820.84a21.94,21.94,0,0,1,17-40.38s100.09,34.12,270.45,34.19c170,.14,288.23-47.5,289.41-48a21.93,21.93,0,1,1,16.7,40.55c-5,2.1-127,51.49-306.19,51.35-178.45-.14-280.67-35.21-284.89-36.73Z"/><path d="M517.92,1946.47a22,22,0,0,1,16.1-40.73c1.15.38,117.31,34.88,237,21.9,120-13,184.07-42,184.07-42a21.93,21.93,0,0,1,18.54,39.74c-2.84,1.29-69.75,32-197.94,45.9-128.84,14-249.35-22-254.46-23.42A26.86,26.86,0,0,1,517.92,1946.47Z"/><path d="M515.15,2005.15a22,22,0,0,1,16.09-40.73c1.15.39,117.31,34.89,237.15,21.86s184-42.07,184-42.07A22,22,0,0,1,970.88,1984c-2.83,1.28-69.7,31.94-197.82,45.85C644.1,2044,523.6,2008,518.49,2006.52A26.3,26.3,0,0,1,515.15,2005.15Z"/><path d="M512.42,2063.76A22,22,0,0,1,528.51,2023c1.14.38,117.31,34.88,237.11,21.93,120-13.06,184.08-42,184.08-42a21.95,21.95,0,0,1,18.48,39.82c-2.82,1.28-69.81,32-197.89,45.82-128.92,14-249.42-22-254.53-23.45A25.11,25.11,0,0,1,512.42,2063.76Z"/></g></svg>