<?xml version="1.0" encoding="utf-8"?>
<!-- Generator: Adobe Illustrator 24.2.3, SVG Export Plug-In . SVG Version: 6.00 Build 0)  -->
<svg version="1.1" id="Layer_1" xmlns="http://www.w3.org/2000/svg" xmlns:xlink="http://www.w3.org/1999/xlink" x="0px" y="0px"
	 viewBox="0 0 1586 2524.4" style="enable-background:new 0 0 1586 2524.4;" xml:space="preserve">
<style type="text/css">
	.st0{fill:#FFFFFF;fill-opacity:0;}
	.st1{fill:#E8E8E8;}
	.st2{fill:#6AAAB1;}
	.st3{fill:#FFD46B;}
	.st4{fill:#FFFFFF;}
</style>
<g id="Bg">
	<rect class="st0" width="1586" height="2524.4"/>
</g>
<g id="Layer_1_1_">
	<path class="st1" d="M1387,832.1c16.8-357-241-524.3-569-516.3S215.8,504.2,199,861.2c-1.2,27.1-0.9,54.3,1,81.4v1.1
		c-0.1,65.9,16.9,129.2,42.6,191.6c8.3,21.3,17.7,42.1,28.4,62.3c49.3,99.8,114.1,198.7,159.6,303.6
		c83.1,191.8,59.9,234.1,59.9,234.1l524.2-12.9c0,0-21.4-41.1,79.9-237.5s264.7-371.1,282.9-565.8
		C1382.4,890.3,1385.6,861.3,1387,832.1z"/>
	<path class="st2" d="M1018.9,1667.5c0,0-105.6,57.1-266.1,61.3c-160.5,3.6-261-48.4-261-48.4s-85.7,71.5-65.8,98.6
		s30.7,22.2,30.7,22.2s-27.9,276.4,40.5,348.2c63.5,66.7,217.1,59.9,238.9,58.6c20.2,0.3,163.3-0.2,233.2-70.2
		c75.3-75.4,73.4-351,73.4-351s10.4,4.3,32.9-23.8S1018.9,1667.5,1018.9,1667.5z"/>
	<path d="M573.5,1727.6c0.4-96.2-2.1-279.8-12.1-443.1c-16.2,2.2-31.7,1.7-45.9-1.7c-25.7-6.5-59.6-24.6-75.9-77.5
		c-42.6-138-29.5-271.5,29.3-297.5c13.8-6.2,49.1-13.8,83.4,43.9c24.5,41.4,39.8,150.6,49.4,274.6c20.6-10,41.6-24.5,61-42.4
		c-9.5-25.6-15.1-52.5-16.7-79.7c-3.6-62.4,10.1-156.9,52.1-171.5c10.4-3.5,21.9-1.6,30.7,5c30,23.6,25.8,115.2,20.7,167.6
		c-3.2,34.3-14.9,63.6-34.5,87.6c8.2,14.9,18,27.1,28.7,34.8c9.8,7.2,19.1,9.4,27.8,7.1l11.2,42.4c-21.7,5.8-43.6,0.8-64.7-14
		c-13.2-9.6-25-22.8-35.2-38.6c-25,21.4-51.6,37.7-77.8,48.1c12.7,197.5,12.5,415.3,12.4,454.7L573.5,1727.6z M492.1,948.7
		c-2.2-1.1-4.1-1.4-5.5-0.8c-21.2,9.5-48.6,104-5.1,244.5c8.3,26.8,22.6,42.5,44.3,47.7c9.8,2.3,20.9,2.5,32.7,0.6
		c-9-124.7-22.9-230.9-44-266.5C506,959.8,497.8,951.5,492.1,948.7z M705.3,986c-8.7,20.8-18.3,65.4-15.4,115.6
		c0.7,13.3,2.6,26.5,5.7,39.5c5.6-12.7,9.1-26.2,10.3-40C711,1048.5,709.2,1007.3,705.3,986z"/>
	<path d="M868.1,1718.4c1.5-16,22.4-245.8,55.3-454.7c-24.8-9.4-49.5-24.1-71.8-43.6c-12.5,18-26.6,33-41.7,43.3
		c-20.6,14.1-42.2,19.2-62.3,14.7l9.5-42.9c10.1,2.3,20.8-3.1,28.1-8c12.7-8.7,24.9-22.5,35.5-39.6c-17.5-23.8-26.3-52.6-26.4-86.6
		c-0.1-42.2,3.1-143,35.6-167.1c8.4-6.4,19.4-8.3,29.4-5.2c40.1,13.1,48.2,108.6,38.5,172.3c-4.2,27.6-12.3,54.4-24,79.8
		c16.8,15.8,36,28.7,56.9,38.4c21.4-126.4,47-238.4,75.3-280.7c39.2-58.8,72.4-54.2,89.7-44.1c54.7,28.6,54.6,159.3-0.2,297.4
		c-22.7,57.2-61.9,75.7-90.8,81.1c-12.6,2.3-25.5,2.7-38.3,1.2c-25.7,165.2-45.7,351-54.5,448.2L868.1,1718.4z M1075.2,933.3
		c-2.6-1.3-15.1,3.3-32.7,29.7c-24.6,36.8-48.5,143.2-69.2,267.9c7.7,0.7,15.5,0.3,23.2-1.1c26.3-4.9,45.8-23.1,58.1-54
		C1109.5,1037.5,1094,943,1075.2,933.3L1075.2,933.3z M850.4,982.5c-6.4,21-12.4,63.3-12.3,118.4c-0.1,12.6,1.8,25,5.6,37
		c4.8-14.2,8.4-28.7,10.7-43.5C861.8,1046.3,857.1,1003.6,850.4,982.5z"/>
	<path class="st3" d="M1265,1127.3c0,0,257.3-502-143.3-699.4c-310.9-153.2-564,23.6-564,23.6S798.1,476.6,981,594.2
		C1316.2,809.6,1257.4,1047.5,1265,1127.3z"/>
	<path class="st4" d="M1265,1127.3c0,0,257.3-502-143.3-699.4c-310.9-153.2-564,23.6-564,23.6S798.1,476.6,981,594.2
		C1316.2,809.6,1257.4,1047.5,1265,1127.3z"/>
	<path d="M458.3,1820.8c-10.9-5.3-15.4-18.4-10.1-29.3c4.9-10,16.6-14.8,27.1-11c0,0,100.1,34.1,270.5,34.2
		c170,0.1,288.2-47.5,289.4-48c11.1-4.8,24,0.3,28.8,11.5c4.8,11.1-0.3,24-11.5,28.8c-0.2,0.1-0.4,0.2-0.7,0.3
		c-5,2.1-127,51.5-306.2,51.3c-178.5-0.1-280.7-35.2-284.9-36.7L458.3,1820.8z"/>
	<path d="M517.9,1946.5c-10.8-5.5-15.1-18.8-9.6-29.6c4.8-9.4,15.6-14,25.7-11.1c1.2,0.4,117.3,34.9,237,21.9
		c120-13,184.1-42,184.1-42c11.1-4.9,24,0.1,28.9,11.2c4.8,10.8,0.2,23.4-10.4,28.6c-2.8,1.3-69.8,32-197.9,45.9
		c-128.8,14-249.3-22-254.5-23.4C520.1,1947.5,519,1947,517.9,1946.5z"/>
	<path d="M515.2,2005.2c-10.8-5.5-15.1-18.8-9.6-29.6c4.8-9.4,15.5-14,25.6-11.1c1.2,0.4,117.3,34.9,237.1,21.9s184-42.1,184-42.1
		c11.4-4.3,24.1,1.5,28.3,12.8c3.8,10.2-0.4,21.6-9.8,26.9c-2.8,1.3-69.7,31.9-197.8,45.8c-129,14.2-249.5-21.8-254.6-23.3
		C517.3,2006.1,516.2,2005.7,515.2,2005.2z"/>
	<path d="M512.4,2063.8c-10.9-5.5-15.2-18.7-9.8-29.5c4.8-9.5,15.7-14.2,25.9-11.2c1.1,0.4,117.3,34.9,237.1,21.9
		c120-13.1,184.1-42,184.1-42c11-5,24-0.2,29.1,10.8c5,10.9,0.3,23.8-10.6,29c-2.8,1.3-69.8,32-197.9,45.8
		c-128.9,14-249.4-22-254.5-23.4C514.6,2064.7,513.5,2064.3,512.4,2063.8z"/>
</g>
</svg>
