<svg id="Layer_1" data-name="Layer 1" xmlns="http://www.w3.org/2000/svg" xmlns:xlink="http://www.w3.org/1999/xlink" viewBox="0 0 4000 4000"><defs><style>.cls-1{mask:url(#mask);filter:url(#luminosity-noclip-2);}.cls-2{mix-blend-mode:multiply;fill:url(#linear-gradient);}.cls-19,.cls-3{fill:#fff;}.cls-4{fill:#3d3144;}.cls-5{fill:#61ed46;}.cls-6{opacity:0.3;}.cls-20,.cls-7{fill:#000072;}.cls-8{fill:#4d5a6a;}.cls-9{opacity:0.55;}.cls-10{opacity:0.4;}.cls-11{fill:#fdbd91;}.cls-12{fill:#ac3d50;}.cls-13{opacity:0.2;}.cls-14{fill:#fefefe;}.cls-15{mask:url(#mask-2);}.cls-16{opacity:0.5;fill:url(#linear-gradient-2);}.cls-17{fill:#c6d3e3;}.cls-18{opacity:0.75;}.cls-19,.cls-20{fill-rule:evenodd;}.cls-21{filter:url(#luminosity-noclip);}</style><filter id="luminosity-noclip" x="1134.31" y="-10192" width="1753.08" height="32766" filterUnits="userSpaceOnUse" color-interpolation-filters="sRGB"><feFlood flood-color="#fff" result="bg"/><feBlend in="SourceGraphic" in2="bg"/></filter><mask id="mask" x="1134.31" y="-10192" width="1753.08" height="32766" maskUnits="userSpaceOnUse"><g class="cls-21"/></mask><linearGradient id="linear-gradient" x1="2010.86" y1="1960.33" x2="2001.59" y2="3294.91" gradientUnits="userSpaceOnUse"><stop offset="0"/><stop offset="1" stop-color="#fff"/></linearGradient><filter id="luminosity-noclip-2" x="1134.31" y="1954.24" width="1753.08" height="1337.13" filterUnits="userSpaceOnUse" color-interpolation-filters="sRGB"><feFlood flood-color="#fff" result="bg"/><feBlend in="SourceGraphic" in2="bg"/></filter><mask id="mask-2" x="1134.31" y="1954.24" width="1753.08" height="1337.13" maskUnits="userSpaceOnUse"><g class="cls-1"><polygon class="cls-2" points="2533.77 3291.35 1491.41 3291.37 1134.31 1954.24 2887.39 1969.52 2533.77 3291.35"/></g></mask><linearGradient id="linear-gradient-2" x1="2010.86" y1="1960.33" x2="2001.59" y2="3294.91" gradientUnits="userSpaceOnUse"><stop offset="0" stop-color="#40e6ff"/><stop offset="1" stop-color="#40e6ff"/></linearGradient></defs><rect class="cls-3" width="4000" height="4000"/><circle class="cls-4" cx="2000" cy="1733.65" r="1153.65"/><path class="cls-5" d="M2889.25,1258.78h-222.1a15.5,15.5,0,0,1,0-31h222.1a15.5,15.5,0,0,1,0,31Z"/><path class="cls-5" d="M2452.8,1258.78H1543.42a15.5,15.5,0,0,1,0-31H2452.8a15.5,15.5,0,0,1,0,31Z"/><path class="cls-5" d="M1400,1258.78H1148.6a15.5,15.5,0,0,1,0-31H1400a15.5,15.5,0,0,1,0,31Z"/><path class="cls-5" d="M2889.25,1387.91H2698.14a15.5,15.5,0,0,1,0-31h191.11a15.5,15.5,0,0,1,0,31Z"/><path class="cls-5" d="M2581.07,1387.91H1439a15.5,15.5,0,0,1,0-31H2581.07a15.5,15.5,0,0,1,0,31Z"/><path class="cls-5" d="M1280.52,1387.91H1148.6a15.5,15.5,0,0,1,0-31h131.92a15.5,15.5,0,0,1,0,31Z"/><path class="cls-5" d="M2889.25,1517H1148.6a15.5,15.5,0,0,1,0-31H2889.25a15.5,15.5,0,0,1,0,31Z"/><path class="cls-5" d="M2889.25,1646.16H1417.19a15.5,15.5,0,1,1,0-31H2889.25a15.5,15.5,0,0,1,0,31Z"/><path class="cls-5" d="M1280.52,1646.16H1148.6a15.5,15.5,0,0,1,0-31h131.92a15.5,15.5,0,0,1,0,31Z"/><path class="cls-5" d="M2889.25,1775.29H2778.2a15.5,15.5,0,0,1,0-31h111.05a15.5,15.5,0,0,1,0,31Z"/><path class="cls-5" d="M2667.15,1775.29H1148.6a15.5,15.5,0,0,1,0-31H2667.15a15.5,15.5,0,0,1,0,31Z"/><path class="cls-5" d="M2889.25,1904.42H1148.6a15.5,15.5,0,0,1,0-31H2889.25a15.5,15.5,0,0,1,0,31Z"/><path class="cls-5" d="M2889.25,2033.55H2763.92a15.5,15.5,0,1,1,0-31h125.33a15.5,15.5,0,0,1,0,31Z"/><path class="cls-5" d="M2632.36,2033.55H1486.06a15.5,15.5,0,1,1,0-31h1146.3a15.5,15.5,0,1,1,0,31Z"/><path class="cls-5" d="M1296.67,2033.55H1148.6a15.5,15.5,0,0,1,0-31h148.07a15.5,15.5,0,0,1,0,31Z"/><path class="cls-5" d="M2889.25,2162.68H2609.64a15.5,15.5,0,0,1,0-31h279.61a15.5,15.5,0,0,1,0,31Z"/><path class="cls-5" d="M2391.68,2162.68H1148.6a15.5,15.5,0,0,1,0-31H2391.68a15.5,15.5,0,0,1,0,31Z"/><g class="cls-6"><path class="cls-7" d="M906,3425.64c367.33,94.88,1820.64,94.88,2188,0,34-8.77,25.69-48.13-10.09-48.13H916.05C880.27,3377.51,872,3416.87,906,3425.64Z"/></g><path class="cls-7" d="M1008.79,3372.26c41.3-8.07,82.59-10.21,123.89-11.09,41.3-1.13,82.6-.53,123.9.08s82.59.6,123.89.52H2805.26c20.65,0,41.3-.71,61.95-1,41.3-.19,82.59.28,123.89,11.54a5.43,5.43,0,0,1,0,10.49c-41.3,11.26-82.59,11.73-123.89,11.54-20.65-.33-41.3-1.05-61.95-1l-61.94,0H1380.47q-62-.11-123.89.53c-41.3.61-82.6,1.21-123.9.08-41.3-.88-82.59-3-123.89-11.09a5.34,5.34,0,0,1,0-10.49Z"/><path class="cls-8" d="M2510.79,3265.52l6.52-.78c182-21.63,306.51-194.24,269.67-373.74l-68.36-333.16a326.87,326.87,0,0,0-320.2-261.16H1614.13a326.87,326.87,0,0,0-320.2,261.16L1225.57,2891c-36.83,179.5,87.71,352.11,269.67,373.74l6.53.78Z"/><path class="cls-7" d="M2510.93,3268H1501.77l-6.82-.79a315.52,315.52,0,0,1-271.83-376.73l68.36-333.16c31.29-152.49,167-263.16,322.65-263.16h784.29c155.67,0,291.36,110.67,322.65,263.16l68.36,333.16a315.51,315.51,0,0,1-271.83,376.73Zm-896.8-968.84c-153.3,0-286.94,109-317.75,259.16L1228,2891.51a310.51,310.51,0,0,0,267.52,370.75l6.52.78,1008.58,0,6.38-.76a310.51,310.51,0,0,0,267.51-370.75l-68.36-333.17c-30.81-150.17-164.45-259.16-317.75-259.16Z"/><g class="cls-6"><path class="cls-7" d="M2517.32,3264.77l-6.51.76h-1009l-6.5-.76c-116.43-13.83-209.32-89.53-251.56-189.19a311.45,311.45,0,0,0,172.06,77.76l6.51.75h1009l6.51-.75c182-21.64,306.54-194.24,269.67-373.73l-68.33-333.16a328.06,328.06,0,0,0-20.23-64.15,325.41,325.41,0,0,1,99.67,175.53L2787,2891C2823.8,3070.48,2699.24,3243.13,2517.32,3264.77Z"/></g><g class="cls-9"><path class="cls-3" d="M2559.72,2339.24A325.89,325.89,0,0,0,2440,2316.58H1655.72a326.83,326.83,0,0,0-320.2,261.15l-68.38,333.16c-28.09,136.92,37.68,269.78,151.23,334.74-138.49-53.9-224.17-201.78-192.82-354.64l68.37-333.16a326.9,326.9,0,0,1,320.21-261.16H2398.4A325.74,325.74,0,0,1,2559.72,2339.24Z"/></g><path class="cls-7" d="M2510.79,3281.79h-1009a15.47,15.47,0,0,1-1.92-.12l-6.52-.77a329.3,329.3,0,0,1-283.7-393.17L1278,2554.57c32.6-158.86,174-274.16,336.14-274.16h784.29c162.17,0,303.54,115.3,336.14,274.16l68.36,333.16a329.3,329.3,0,0,1-283.69,393.17l-6.52.77A15.47,15.47,0,0,1,2510.79,3281.79Zm-1008.06-32.54H2509.82l5.58-.66a296.75,296.75,0,0,0,255.65-354.32l-68.37-333.16c-29.51-143.8-157.46-248.17-304.26-248.17H1614.13c-146.8,0-274.75,104.37-304.26,248.17l-68.36,333.16a296.74,296.74,0,0,0,255.65,354.32Z"/><path class="cls-8" d="M2585.59,2050.6c-1,3.79-2,7.64-3,11.38-.81,2.88-1.63,5.7-2.44,8.52-.33,1.08-.6,2.11-1,3.2-.65,2.33-1.41,4.66-2.11,6.94-.92,3-1.9,5.91-2.88,8.84-.43,1.3-.86,2.6-1.3,3.85-1.41,4.23-2.87,8.4-4.44,12.52-1.63,4.56-3.37,9.06-5.16,13.51s-3.57,8.94-5.47,13.39-3.8,8.84-5.8,13.18-3.85,8.4-5.86,12.58l-.81,1.62c-1.85,3.91-3.8,7.76-5.81,11.61,0,.11-.1.21-.16.32-2.17,4.29-4.39,8.46-6.67,12.69-2.71,5-5.48,9.93-8.35,14.81-1.95,3.41-4,6.77-6,10.14a.47.47,0,0,0-.17.27c-2.49,4.12-5,8.19-7.64,12.25q-6.51,10.17-13.4,20.17c-2,2.93-4.06,5.81-6.12,8.68-1.74,2.44-3.47,4.83-5.26,7.27-2.66,3.63-5.37,7.21-8.08,10.79s-5.32,6.83-8,10.25c-1.52,1.89-3,3.79-4.55,5.64l-2.93,3.57c-1.85,2.17-3.64,4.34-5.48,6.51q-7.49,8.79-15.29,17.41c-2.5,2.82-5.1,5.58-7.7,8.35-1.9,2-3.8,4.07-5.69,6.07-2.72,2.82-5.37,5.59-8.14,8.3-3.9,4-7.92,7.92-11.93,11.82q-4.87,4.72-9.81,9.27a16.56,16.56,0,0,1-1.47,1.36c-3.36,3.2-6.78,6.29-10.25,9.38-6.34,5.69-12.79,11.22-19.35,16.7l-4.94,4.12q-5,4.07-10.09,8.14-17.73,14.07-36.27,27.16c-.22.17-.49.33-.71.49a543.41,543.41,0,0,1-155.08,75.7,548.51,548.51,0,0,1-475.84-76.19c-3.9-2.76-7.8-5.58-11.71-8.4a9.31,9.31,0,0,0-1.19-.87c-3.85-2.87-7.7-5.75-11.5-8.62q-5.94-4.56-11.87-9.27h-.06c-3.9-3.15-7.75-6.29-11.6-9.44s-7.7-6.45-11.5-9.71-7.54-6.5-11.22-9.81-7.43-6.67-11.06-10.09-7.22-6.77-10.8-10.25-7.1-6.88-10.57-10.41-6.94-7-10.36-10.62-6.83-7.27-10.25-11c-3.25-3.58-6.45-7.16-9.65-10.84-2.49-2.82-5-5.7-7.43-8.57q-10.65-12.62-20.77-25.7c-2.71-3.58-5.47-7.16-8.07-10.79-.38-.44-.71-.93-1-1.36-1.85-2.44-3.64-4.94-5.37-7.43-4-5.64-7.92-11.28-11.72-17-2.11-3.14-4.23-6.34-6.23-9.54-3.09-4.83-6.13-9.65-9.11-14.59-2.06-3.47-4.18-7-6.24-10.52-2.82-4.93-5.58-10-8.35-15-2-3.79-4-7.59-6-11.39s-4-7.75-5.81-11.65a13,13,0,0,1-.81-1.63q-6.18-12.61-11.55-25.49a4.7,4.7,0,0,1-.49-1.08c-1.79-4.23-3.52-8.46-5.2-12.74-1.79-4.45-3.53-9-5.15-13.51s-3.31-9-4.83-13.61c-1.14-3.36-2.28-6.78-3.36-10.19-.87-2.71-1.68-5.42-2.5-8.14-.38-1.19-.76-2.44-1.08-3.63-.81-2.66-1.57-5.26-2.28-7.92-1.08-3.9-2.11-7.8-3.14-11.76-40.56-286.32,219.77-603.84,479.9-740a228.12,228.12,0,0,1,211.48,0c5.85,3,11.65,6.29,17.51,9.65l.06.06C2377.41,1466.39,2625.22,1770.74,2585.59,2050.6Z"/><g class="cls-10"><path class="cls-7" d="M2100,2513c7.37-1.91,14.72-3.93,22-6.16a543.41,543.41,0,0,0,155.08-75.7c.22-.16.49-.32.71-.49q18.54-13.08,36.28-27.16,5.11-4.07,10.08-8.14l4.94-4.12c6.56-5.47,13-11,19.36-16.7,3.47-3.09,6.88-6.18,10.25-9.38a19.78,19.78,0,0,0,1.46-1.35c3.31-3,6.56-6.13,9.81-9.28,4-3.9,8-7.86,11.93-11.82,2.77-2.71,5.43-5.48,8.14-8.3,1.89-2,3.79-4.06,5.69-6.07,2.6-2.76,5.21-5.53,7.7-8.35q7.82-8.62,15.29-17.41c1.85-2.16,3.63-4.33,5.48-6.5q1.45-1.8,2.93-3.58c1.52-1.85,3-3.74,4.55-5.64,2.71-3.42,5.37-6.78,8-10.25s5.42-7.16,8.08-10.79c1.79-2.44,3.52-4.83,5.26-7.27,2.06-2.87,4.12-5.75,6.12-8.67q6.92-10,13.4-20.17c2.6-4.07,5.15-8.14,7.64-12.26a.53.53,0,0,1,.17-.27c2-3.36,4-6.73,6-10.14,2.88-4.88,5.64-9.82,8.35-14.81,2.28-4.23,4.5-8.4,6.67-12.68l.17-.33c2-3.85,3.95-7.7,5.8-11.6l.81-1.63c2-4.18,4-8.35,5.86-12.58s4-8.79,5.8-13.18,3.74-8.89,5.48-13.39,3.52-8.95,5.15-13.5c1.57-4.13,3-8.3,4.44-12.53.44-1.25.87-2.55,1.31-3.85,1-2.93,1.95-5.86,2.87-8.84.7-2.28,1.46-4.61,2.11-6.94.38-1.09.66-2.12,1-3.2.81-2.82,1.63-5.64,2.44-8.51,1-3.74,2.06-7.59,3-11.39,39.15-276.43-202.14-576.75-453-724.85,176.46,160.5,310,385.39,280.12,596.39-1,3.79-2,7.64-3,11.39-.81,2.87-1.63,5.69-2.44,8.51-.33,1.08-.6,2.11-1,3.2-.65,2.33-1.41,4.66-2.11,6.94-.92,3-1.9,5.91-2.88,8.84-.43,1.3-.86,2.6-1.3,3.85-1.41,4.23-2.87,8.4-4.44,12.52-1.63,4.56-3.37,9.06-5.16,13.51s-3.58,8.94-5.47,13.39-3.8,8.84-5.81,13.18-3.85,8.4-5.85,12.58l-.81,1.63c-1.85,3.9-3.8,7.75-5.81,11.6a3.18,3.18,0,0,1-.16.32c-2.17,4.29-4.39,8.46-6.67,12.69-2.71,5-5.48,9.93-8.35,14.81-1.95,3.41-4,6.78-6,10.14a.53.53,0,0,0-.16.27c-2.49,4.12-5,8.19-7.64,12.25q-6.51,10.17-13.4,20.18c-2,2.92-4.06,5.8-6.12,8.67-1.74,2.44-3.47,4.83-5.26,7.27-2.66,3.63-5.37,7.21-8.09,10.79s-5.31,6.83-8,10.25c-1.52,1.89-3,3.79-4.56,5.64-1,1.19-2,2.38-2.92,3.58-1.85,2.16-3.64,4.33-5.48,6.5q-7.49,8.79-15.29,17.41c-2.5,2.82-5.1,5.58-7.7,8.35-1.9,2-3.8,4.07-5.69,6.07-2.72,2.82-5.37,5.59-8.14,8.3-3.9,4-7.92,7.92-11.93,11.82q-4.87,4.72-9.81,9.28a18,18,0,0,1-1.47,1.35c-3.36,3.2-6.77,6.29-10.25,9.38-6.34,5.69-12.79,11.23-19.36,16.7l-4.93,4.12q-5,4.08-10.09,8.14-17.73,14.07-36.27,27.16c-.22.17-.49.33-.71.49a543.54,543.54,0,0,1-155.08,75.7,547.91,547.91,0,0,1-154.42,23.79,547.62,547.62,0,0,0,97.1-9.64c.92-.17,1.84-.38,2.77-.56-11.7,3-23.47,5.73-35.31,8a549.94,549.94,0,0,1-214.16-1.8l-2.46-1.93q5.82,4.64,11.65,9.1c3.8,2.88,7.65,5.75,11.5,8.63a10.31,10.31,0,0,1,1.19.86c3.9,2.82,7.81,5.64,11.71,8.41a548.46,548.46,0,0,0,418.52,90.34q15.14-2.9,30.12-6.64Q2113.73,2510.27,2100,2513Z"/></g><g class="cls-9"><path class="cls-3" d="M2216.25,1384.36c-20-13.56-40.23-26.19-60.46-37.85l-.05-.06c-5.86-3.36-11.66-6.61-17.52-9.65a228.12,228.12,0,0,0-211.48,0c-260.12,136.16-520.46,453.71-479.9,740,1,4,2.06,7.87,3.15,11.77.7,2.66,1.46,5.26,2.27,7.92.33,1.19.71,2.44,1.09,3.63.81,2.71,1.63,5.42,2.49,8.13,1.09,3.42,2.23,6.84,3.37,10.2,1.51,4.55,3.14,9.11,4.82,13.61s3.36,9.05,5.15,13.5c1.68,4.28,3.42,8.51,5.21,12.74a4.76,4.76,0,0,0,.49,1.09q5.37,12.86,11.55,25.48a9.89,9.89,0,0,0,.81,1.63c1.84,3.91,3.8,7.81,5.8,11.66s4,7.59,6,11.39c2.76,5,5.53,10.08,8.35,15,2.06,3.52,4.17,7,6.23,10.52,3,4.93,6,9.76,9.11,14.58,2,3.2,4.12,6.4,6.24,9.55,3.8,5.75,7.7,11.39,11.71,17,1.74,2.5,3.53,5,5.37,7.43.33.44.65.93,1,1.36,2.6,3.63,5.37,7.21,8.08,10.79,6.72,8.73,13.67,17.3,20.77,25.7,2.44,2.88,4.93,5.75,7.43,8.57,3.2,3.69,6.4,7.27,9.65,10.85q5.13,5.52,10.25,10.95c3.42,3.58,6.89,7.1,10.36,10.63s7,7,10.57,10.41,7.16,6.89,10.79,10.25,7.32,6.72,11.06,10.08,7.43,6.57,11.23,9.82,7.59,6.51,11.49,9.71,7.7,6.29,11.61,9.43h.05q5.94,4.73,11.88,9.27c3.52,2.66,7.1,5.32,10.68,8-4.5-2.93-9-6-13.39-9.11-3.91-2.77-7.81-5.59-11.72-8.41a10.31,10.31,0,0,0-1.19-.86c-3.85-2.88-7.7-5.75-11.49-8.63q-5.94-4.55-11.88-9.27h0c-3.91-3.14-7.76-6.29-11.61-9.43s-7.7-6.46-11.5-9.71-7.53-6.51-11.22-9.81-7.43-6.67-11.06-10.09-7.21-6.78-10.79-10.25-7.11-6.89-10.58-10.41-6.94-7-10.35-10.63-6.84-7.26-10.25-10.95c-3.26-3.58-6.46-7.16-9.65-10.85-2.5-2.82-5-5.69-7.43-8.57q-10.66-12.6-20.77-25.7c-2.71-3.58-5.48-7.16-8.08-10.79-.38-.43-.71-.92-1-1.36-1.85-2.44-3.64-4.93-5.37-7.42-4-5.64-7.92-11.28-11.71-17-2.12-3.15-4.23-6.35-6.24-9.54-3.09-4.83-6.13-9.66-9.11-14.59-2.06-3.47-4.17-7-6.24-10.52-2.82-4.94-5.58-10-8.35-15-2-3.8-4-7.59-6-11.39s-4-7.75-5.8-11.66a11.21,11.21,0,0,1-.82-1.62q-6.18-12.61-11.55-25.49a4.71,4.71,0,0,1-.48-1.09c-1.79-4.22-3.53-8.45-5.21-12.74-1.79-4.45-3.53-8.95-5.15-13.5s-3.31-9.06-4.83-13.61c-1.14-3.36-2.28-6.78-3.36-10.2-.87-2.71-1.68-5.42-2.49-8.13-.38-1.19-.76-2.44-1.09-3.63-.81-2.66-1.57-5.26-2.28-7.92-1.08-3.9-2.11-7.81-3.14-11.77-40.56-286.31,219.78-603.86,479.9-740a228.12,228.12,0,0,1,211.48,0c5.86,3,11.66,6.29,17.51,9.65l.06.06A988.88,988.88,0,0,1,2216.25,1384.36Z"/></g><path class="cls-7" d="M1999.94,2539.37a563.53,563.53,0,0,1-325.18-102.89c-4-2.81-7.92-5.67-11.87-8.52-.2-.14-.4-.3-.6-.45l-.8-.56c-4.09-3.06-7.87-5.88-11.58-8.69s-7.62-5.9-11.39-8.89c-.32-.21-.62-.44-.92-.68-3.81-3.07-7.57-6.14-11.33-9.22-4.38-3.58-8.27-6.91-12.15-10.24s-7.73-6.67-11.51-10.06l-.53-.48c-3.66-3.29-7.26-6.53-10.81-9.87s-7.3-6.86-11-10.42-7.25-7-10.84-10.67-7.14-7.25-10.54-10.82c-3.52-3.74-7-7.4-10.4-11.12s-6.74-7.46-10-11.24c-2.46-2.79-5-5.75-7.55-8.72-7.44-8.8-14.59-17.64-21.25-26.29l-1.79-2.36c-2.12-2.79-4.25-5.59-6.29-8.42-.37-.47-.73-1-1.07-1.42-2-2.66-3.92-5.33-5.78-8-4.36-6.12-8.29-11.84-11.94-17.36-2.14-3.17-4.35-6.52-6.44-9.86-3.09-4.82-6.2-9.77-9.26-14.83l-1.91-3.21c-1.48-2.49-3-5-4.44-7.51-2.8-4.9-5.47-9.75-8.14-14.61l-.43-.79c-2.16-4.08-4.2-7.93-6.17-11.78s-3.92-7.67-5.78-11.57c-.44-.82-.85-1.64-1.21-2.47-4.38-9.06-8.12-17.32-11.43-25.2a19.26,19.26,0,0,1-1-2.26c-1.77-4.18-3.48-8.36-5.14-12.6-1.81-4.51-3.63-9.21-5.33-14-1.66-4.46-3.35-9.19-4.93-13.93-1.15-3.39-2.32-6.9-3.44-10.42-.89-2.78-1.73-5.57-2.57-8.37-.37-1.18-.81-2.63-1.19-4-.74-2.4-1.56-5.2-2.32-8-1-3.8-2.11-7.79-3.15-11.83a16.3,16.3,0,0,1-.37-1.82c-24.56-173.38,57.12-333.84,130-437.91,92.07-131.53,222.73-247.71,358.49-318.78a244.23,244.23,0,0,1,226.57,0c135.76,71.07,266.43,187.26,358.49,318.78,72.85,104.07,154.54,264.53,130,437.91a15.55,15.55,0,0,1-.35,1.78c-1,3.88-2.05,7.81-3.11,11.64l-2.79,9.71c-.24.84-.48,1.67-.77,2.52-.48,1.71-1,3.42-1.55,5.11l-.56,1.8c-.89,2.88-1.83,5.7-2.76,8.52l-.21.64c-.47,1.4-.93,2.77-1.39,4.08-1.41,4.25-3,8.64-4.61,13s-3.38,9.14-5.26,13.79c-1.71,4.44-3.63,9.07-5.59,13.69s-3.93,9.11-6,13.63c-1.88,4.18-3.89,8.49-6,12.8l-.94,1.88c-1.75,3.73-3.8,7.78-5.91,11.82-2.3,4.56-4.59,8.85-6.93,13.2-2.83,5.21-5.69,10.31-8.65,15.35-1.91,3.33-4,6.78-6,10.22l-.07.11-.15.25c-2.56,4.24-5.19,8.42-7.86,12.6-4.77,7.45-9.26,14.21-13.71,20.65-2,3-4.17,5.94-6.29,8.91-1.75,2.46-3.53,4.9-5.36,7.4-2.71,3.7-5.47,7.35-8.23,11s-5.49,7.06-8.27,10.55c-1.59,2-3.16,4-4.73,5.86l-8.57,10.28c-5.1,6-10.36,12-15.63,17.79-2.39,2.71-5,5.53-7.68,8.34l-6,6.35c-3,3.09-5.71,5.94-8.55,8.73-3.79,3.84-7.88,7.88-12,11.87-3.31,3.2-6.58,6.31-9.92,9.37-.62.62-1.25,1.21-1.87,1.74-3.37,3.2-6.79,6.29-10.26,9.38-6.74,6-13.38,11.72-19.75,17l-4.9,4.09c-3.52,2.89-6.95,5.66-10.43,8.42-12,9.51-24.43,18.83-37,27.71l-.6.42-.13.09A563.65,563.65,0,0,1,1999.94,2539.37Zm-317.59-137.48c3.73,2.69,7.46,5.38,11.19,8,183,129.09,429,129.28,612.16.46h0c.25-.19.53-.37.69-.48,12.07-8.53,24-17.48,35.53-26.61q5-4,9.89-8l4.82-4c6.11-5.09,12.49-10.6,19-16.37,3.33-3,6.62-5.93,9.84-9,.28-.27.58-.53.88-.78l.3-.3.51-.48c3.2-2.94,6.35-5.94,9.5-9,3.9-3.79,7.83-7.67,11.65-11.55,2.82-2.76,5.33-5.38,7.89-8l5.7-6.08c2.61-2.77,5-5.34,7.33-8q7.78-8.59,15.11-17.19l8.17-9.8c1.52-1.86,3-3.7,4.46-5.53,2.63-3.3,5.22-6.59,7.82-10s5.27-6.95,7.87-10.52c1.75-2.37,3.44-4.7,5.13-7.08,2-2.83,4-5.61,6-8.44,4.27-6.18,8.55-12.63,13.11-19.75,2.52-3.94,5-7.89,7.42-11.89l.12-.2h0c1.95-3.28,3.91-6.55,5.81-9.88,2.88-4.89,5.55-9.66,8.17-14.49,2.19-4,4.35-8.11,6.46-12.27,0-.06.21-.44.25-.5,1.9-3.66,3.76-7.31,5.51-11l1-2c1.81-3.76,3.7-7.8,5.53-11.9,2-4.35,3.89-8.62,5.66-12.83s3.63-8.62,5.29-12.94c1.8-4.48,3.46-8.78,5-13.12s3-8.2,4.34-12.21l1.51-4.46c.87-2.62,1.74-5.23,2.56-7.89l.6-1.92c.47-1.52,1-3,1.38-4.58.1-.34.2-.69.32-1s.28-.9.41-1.35l2.71-9.41c.89-3.26,1.82-6.71,2.71-10.13,17.67-126.88-26.54-273.79-124.55-413.8-89.17-127.39-215.62-239.88-346.92-308.61a211.71,211.71,0,0,0-196.39,0c-131.3,68.73-257.75,181.22-346.93,308.61-98,140-142.2,286.91-124.54,413.79.94,3.56,1.87,7.08,2.85,10.6.7,2.66,1.41,5.07,2.16,7.52.4,1.45.72,2.49,1,3.49.86,2.84,1.65,5.46,2.48,8.09,1.06,3.34,2.18,6.65,3.28,9.92,1.48,4.44,3,8.81,4.65,13.14,1.64,4.57,3.3,8.87,5,13.12s3.36,8.38,5.1,12.48l.09.23c.15.3.29.61.42.91,3.2,7.66,6.86,15.73,11.19,24.68.1.21.2.43.29.65s.4.73.58,1.1c1.76,3.72,3.61,7.44,5.52,11.1,2,3.82,4,7.56,5.92,11.3l.31.56c2.58,4.7,5.16,9.4,7.79,14,1.33,2.28,2.78,4.71,4.21,7.12l1.88,3.16c2.85,4.71,5.82,9.41,8.83,14.12,2,3.18,4,6.23,6,9.24,3.51,5.3,7.24,10.72,11.47,16.67,1.71,2.45,3.37,4.78,5.09,7l.48.66-.22-.24a13.62,13.62,0,0,1,1,1.28c2,2.74,4,5.44,6.07,8.13l1.75,2.32c6.28,8.14,13.11,16.6,20.23,25,2.35,2.77,4.77,5.56,7.18,8.29,3.23,3.71,6.35,7.2,9.52,10.68s6.67,7.15,10,10.76c3.21,3.35,6.55,6.74,9.89,10.13,3.57,3.63,7,7,10.43,10.28,3.58,3.47,7.07,6.8,10.61,10.07s6.89,6.34,10.36,9.46l.52.47c3.59,3.22,7.24,6.39,10.94,9.57s7.41,6.35,11.22,9.47,7.24,5.91,10.73,8.73c.25.17.5.36.73.55q5.83,4.62,11.66,9.1c3.54,2.68,7.22,5.43,10.89,8.17A22,22,0,0,1,1682.35,2401.89Zm-20.48,25.27h0Zm724.82-82.34-.11.1ZM1457.5,2127.66v0Zm-1-2.47h0Zm1129.09-74.59h0Z"/><path class="cls-11" d="M2455.64,2132.77c-1,3.05-2.09,6.14-3.22,9.31-30.15,77.23-89.28,118.39-125.09,71.79l21.36-104.9,14.53-71.31C2419.09,1999.5,2493.58,2016.65,2455.64,2132.77Z"/><path class="cls-7" d="M2363.15,2235.47c-14.21,0-27-7-37.36-20.41l-.54-.71,36.23-177.84.65-.45c30.5-20.83,64.82-24.44,85.4-9,13.41,10.06,32.52,37.24,9.95,106.32h0c-1,3.06-2.1,6.16-3.24,9.36-20.15,51.61-53.38,87.81-84.67,92.27A45.45,45.45,0,0,1,2363.15,2235.47Zm-33.74-22.08c10.87,13.77,24.53,19.92,39.61,17.78,29.93-4.26,62-39.51,81.59-89.79,1.11-3.11,2.19-6.18,3.18-9.21h0c16.18-49.49,13.12-85.72-8.58-102-19.12-14.34-51.29-10.84-80.24,8.67Z"/><g class="cls-6"><path class="cls-7" d="M2455.64,2132.77c-1,3.05-2.09,6.14-3.22,9.31-30.15,77.23-89.28,118.39-125.09,71.79l21.36-104.9,8-.61q32.57,101.88,94.63,18.1S2452.9,2128.77,2455.64,2132.77Z"/></g><path class="cls-7" d="M2363.22,2246.57c-17.63,0-33.82-8.59-46.24-24.74a13,13,0,0,1-2.44-10.56l35.9-176.21a13,13,0,0,1,5.42-8.18c34.85-23.79,74.65-27.09,99-8.19,16.36,12.68,39.38,46.14,9.81,127.84-22,56.37-57.8,94.38-93.55,99.47A55.94,55.94,0,0,1,2363.22,2246.57Zm-21.83-36.31c7.68,8,16.27,11.29,26.07,9.9,25.63-3.66,54.88-36.94,72.8-82.82,17.37-48,16.91-83.85-1.37-98-14.29-11.08-40.07-8.37-64,6.31Z"/><path class="cls-11" d="M1544.36,2132.77c1,3.05,2.09,6.14,3.22,9.31,30.15,77.23,89.28,118.39,125.09,71.79L1651.31,2109l-14.53-71.31C1580.91,1999.5,1506.42,2016.65,1544.36,2132.77Z"/><path class="cls-7" d="M1636.87,2236.25a45.73,45.73,0,0,1-6.55-.48c-31.56-4.49-65-40.88-85.26-92.7-1.17-3.27-2.27-6.38-3.28-9.45h0c-22.71-69.53-3.35-97,10.22-107.17,20.85-15.64,55.53-12,86.3,9l.91.62,36.37,178.51-.76,1C1664.33,2229.17,1651.32,2236.25,1636.87,2236.25Zm-89.93-104.32c1,3,2.07,6.09,3.2,9.24,19.5,49.95,51.29,85,80.95,89.24,14.88,2.11,27.88-3.67,38.68-17.22l-35.43-173.9c-28.62-19.17-60.3-22.61-79.08-8.51-21.43,16.07-24.38,52-8.32,101.15Z"/><g class="cls-9"><path class="cls-3" d="M1624.42,2232.25c-27.62-9.22-56.12-42.55-74.22-88.89-1.13-3.17-2.22-6.26-3.22-9.31-37.94-116.12,36.55-133.26,92.41-95.11l.26,1.31c-50.51-19.1-101.46,7.39-68.74,107.6,1,3,2.09,6.13,3.22,9.31C1587,2190.09,1605.11,2216.46,1624.42,2232.25Z"/></g><path class="cls-7" d="M1636.78,2246.57a56,56,0,0,1-7.92-.57c-35.74-5.09-71.54-43.1-93.43-99.17-29.69-82-6.66-115.46,9.69-128.14,24.38-18.9,64.17-15.6,99,8.19a13,13,0,0,1,5.42,8.18l35.9,176.21a13,13,0,0,1-2.44,10.56C1670.61,2238,1654.41,2246.57,1636.78,2246.57Zm-53-214.05c-8.89,0-16.75,2.23-22.65,6.8-18.28,14.17-18.74,50-1.25,98.32,17.8,45.58,47.05,78.86,72.68,82.52,9.81,1.39,18.38-1.85,26.07-9.9l-33.54-164.63C1611.05,2037,1596.37,2032.52,1583.76,2032.52Z"/><path class="cls-11" d="M2355.35,2111.63v60.3c0,103.73-49.64,202.1-135.14,260.84-1.22.83-2.44,1.61-3.61,2.44a387.94,387.94,0,0,1-431.52,0c-1.18-.83-2.4-1.65-3.62-2.48-85.53-58.7-135.18-157.07-135.18-260.84v-60.3s.22-3.87.65-10.84c3.22-55,17.8-302,20.15-308.3C1744.7,1583.56,2520.73,1634.77,2355.35,2111.63Z"/><path class="cls-7" d="M2000.79,2503.82a389.67,389.67,0,0,1-217.22-66.32c-1.1-.77-2.19-1.51-3.28-2.25-85.74-58.83-136.72-157.18-136.72-263.32v-60.3c0-.16.22-4,.66-11,5.31-90.79,17.91-302.65,20.31-309.09,20.37-54.84,89.45-95.47,189.5-111.48,96.58-15.45,209.09-5,300.94,28s295,138.21,203.08,404v59.85c0,106.09-51,204.43-136.32,263.07l-1.4.94c-.74.49-1.47,1-2.18,1.48A389.83,389.83,0,0,1,2000.79,2503.82Zm-55.2-825.34a576.34,576.34,0,0,0-90.69,6.94c-98.07,15.68-165.6,55-185.28,108-1.88,7-11.94,170-20,307.52-.44,7-.65,10.83-.65,10.83v60.15c0,104.35,50.1,201,134,258.6,1.45,1,2.57,1.75,3.64,2.5,130.11,87.17,298.31,87.15,428.45-.08.7-.49,1.47-1,2.24-1.52l1.36-.91c83.87-57.62,133.95-154.29,133.95-258.59l.14-61.19c90.71-261.55-109.39-365.16-199.63-397.57C2089.81,1690.42,2016.54,1678.48,1945.59,1678.48Z"/><g class="cls-6"><path class="cls-7" d="M2355.35,2111.63v60.3c0,103.73-49.64,202.1-135.14,260.84-1.22.83-2.44,1.61-3.61,2.44a387.94,387.94,0,0,1-431.52,0c-1.18-.83-2.4-1.65-3.62-2.48-2.69-1.87-5.39-3.79-8-5.74a387.84,387.84,0,0,0,385.18-26.63c1.18-.83,2.39-1.61,3.61-2.44,85.5-58.74,135.14-157.11,135.14-260.84l5.16-76c56.13-161.81-1.33-258.88-97.92-329.1C2336,1796.8,2421.87,1919.75,2355.35,2111.63Z"/></g><g class="cls-6"><path class="cls-7" d="M2355.35,2111.63v24.49c-39-57.43-46.51-214.15-46.51-214.15-34.08,37-225.51,79.69-359.85,8.32a8.46,8.46,0,0,0-11.56,11.21c1.64,3.31,2.31,4.43,2.31,4.43-17.67,10.94-100.9.28-146-26-12.56-7.31-28.57.6-30.82,15-10.12,64.55-42.25,109.48-111,176.73-1.7-3.61-3.35-7.22-4.92-10.84,3.22-55,17.8-302,20.15-308.3C1744.7,1583.56,2520.73,1634.77,2355.35,2111.63Z"/></g><g class="cls-9"><path class="cls-3" d="M2147.94,2471.8a388,388,0,0,1-362.86-36.55c-1.18-.83-2.4-1.65-3.62-2.48-85.53-58.7-135.18-157.07-135.18-260.84v-60.3s18.14-312.05,20.8-319.14c16.31-43.9,63.44-76.32,126.22-95.72-47.21,19.71-81.89,48.21-95.42,84.58-2.65,7.14-20.79,319.14-20.79,319.14v60.3c0,103.77,49.64,202.15,135.18,260.88a27,27,0,0,1,3.65,2.44C1900.59,2500.77,2037.6,2506.47,2147.94,2471.8Z"/></g><path class="cls-7" d="M2000.82,2514.18a400,400,0,0,1-223-68.09l-3.75-2.54c-88.2-60.52-140.85-162.06-140.85-271.62v-60.3c0-.26,0-.51,0-.76,18.25-313.76,20.77-320.72,21.59-322.94h0c47.77-128.53,316.87-156.67,503.68-89.58,89,32,156.35,82.65,194.84,146.58,45.29,75.24,50.35,165.69,15,268.88v58.12c0,109.53-52.64,211.06-140.82,271.59l-3.72,2.52A400,400,0,0,1,2000.82,2514.18ZM1659.33,2112v59.92c0,101,48.42,194.44,129.53,250.1,1.16.79,2.32,1.58,3.49,2.36,126.67,84.89,290.34,84.88,417,0l3.48-2.36c81.1-55.67,129.51-149.16,129.51-250.08v-60.3a13.2,13.2,0,0,1,.71-4.28c87.69-252.8-106-353.06-193.32-384.43-189.3-68-430.2-30.34-470,73.16C1677.26,1812.94,1666.26,1993,1659.33,2112Zm20-315h0Zm.09-.26-.09.25A2.3,2.3,0,0,0,1679.41,1796.76Zm-12.33-4.29h0Z"/><path class="cls-12" d="M2351.26,1664.57c97.9,125.09,85.71,342.77,3.26,456.85-63.09-34.81-67.26-199.45-67.26-199.45-149.33,40.64-300.43,15.84-437.44-102.2-2.92,46.38,35.94,89.41,35.94,89.41a183.56,183.56,0,0,1-47.6-7.35C1788.6,1887,1759.1,1851.1,1741,1806c-17.4,156.63-18.49,191.44-94.76,305.65-76.14-163.16-90.15-364.39,36.77-424.56-177-60.92-111.69-184.22,40.59-74.71-74.7-107.34,19.58-148.71,39.16-30.46,110.12-201.14,593.9-130.52,659.47,97.9l-70.84-15.18A.61.61,0,0,0,2351.26,1664.57Z"/><path class="cls-7" d="M2355.31,2125l-2.1-1.16c-59.37-32.75-67.56-173.73-68.55-198.31-158.61,42.16-304,8.54-432.29-100,.42,42.55,35,81.44,35.4,81.84l4.25,4.71-6.34-.18a187.52,187.52,0,0,1-48.31-7.46c-42.86-12.84-73.95-41.62-94.77-87.86l-.95,8.6c-15.48,140.25-19.64,177.94-93.11,288l-2.68,4-2-4.36c-76.68-164.34-89.43-361.42,32.3-425.29-71.47-26-99.58-60.89-101.9-85.39-1.22-12.79,4.28-23.38,15.47-29.8,21-12,64.11-9.89,124.1,30-25.13-41.12-24.42-70.88-15.35-84.52,5.32-8,13.66-11.44,22.78-9.47,15.27,3.28,34.13,22.38,42.91,65.88,60.56-100.62,206.66-122.86,325-109.71,141,15.66,299.46,88.11,335.77,214.62l1.25,4.35-68.26-14.63c95,128.48,78.49,344.06-1.14,454.24Zm-65.43-206.5.09,3.45c0,1.61,4.75,159.79,63.78,195.93,78.49-110.91,93.28-326.48-4.62-451.59l-3.44-4.38,6.63.2,66,14.13c-38-121.41-192.33-191.09-329.86-206.37-119-13.24-266.5,9.6-323.32,113.38l-3.77,6.89-1.29-7.74c-7.62-46.07-26.33-65.85-40-68.79-7-1.49-13,1-17.12,7.18-9,13.48-8.35,45.16,22.9,90.07l9,13-12.84-9.24c-63.93-46-109.83-49-129.67-37.56-9.24,5.31-13.78,14-12.78,24.59,2.14,22.42,30.73,57.58,104.32,82.91l6.29,2.17-6,2.85c-123.56,58.58-112.42,253-37.5,416.57,70.16-105.83,74.37-144,89.55-281.52l3.29-29.64,4,10c20.1,50.23,51.29,81.07,95.36,94.26a178.22,178.22,0,0,0,40.8,7c-10-12.62-35-48.15-32.62-86.6l.34-5.45,4.13,3.57c128.78,110.94,275.11,145.14,435,101.63Z"/><g class="cls-6"><path class="cls-7" d="M1722.93,1778.71a184.3,184.3,0,0,1,16.33,43.36c-15.79,143.11-19.4,179.35-93,289.56-8.61-18.49-16.44-37.42-23.32-56.61,60.41-93.71,67.48-146.64,81.43-272.9C1705.47,1772.42,1718.44,1770,1722.93,1778.71Z"/></g><g class="cls-9"><path class="cls-3" d="M1694.88,1593.78c-95.81-40.59-130.48,29.59-37.16,83.45C1523,1618.5,1571.05,1522.86,1694.88,1593.78Z"/></g><g class="cls-9"><path class="cls-3" d="M1680,1688.59l.27.12c12.06,5.33,14.61,21.16,4.46,29.58-86.69,71.87-83.39,233.59-26.18,374.59-3.83,6-7.92,12.27-12.27,18.75C1570.75,1949.77,1556.35,1750.5,1680,1688.59Z"/></g><g class="cls-9"><path class="cls-3" d="M1717.68,1610.62l-.29-.16c-50.56-77.84-4.56-122.67,26.16-86.77-17,2.5-27,28.74-8.2,70.26C1740.34,1605,1728.29,1616.42,1717.68,1610.62Z"/></g><g class="cls-9"><path class="cls-3" d="M2326.24,1562.33c-83.36-38.47-195-64.18-296.34-64.66-15.62,30-68.26,28.5-90.41,7.18-57,10.22-105.25,31.8-135.36,67.79-8.61,10.31-25.45,9.61-32.24-2a12.24,12.24,0,0,1-1-2C1865.26,1448.24,2183.75,1438.32,2326.24,1562.33Z"/></g><path class="cls-7" d="M2354.51,2134.47a13.07,13.07,0,0,1-6.29-1.62c-57.56-31.76-70.42-149-73.26-194.24-148.61,36-285.58,6.49-407.91-87.93,8.84,27.68,28.15,49.48,28.41,49.77a13.06,13.06,0,0,1-9.7,21.78h-.4c-59.93-1.84-105.54-26-136.08-72.07-13.78,123.09-21.63,163.13-92.15,268.72a13.06,13.06,0,0,1-22.68-1.73c-74.82-160.34-89.25-351.57,18.65-427.69-61.72-26.81-86.79-61.24-89.18-86.38-1.6-16.82,5.92-31.31,20.62-39.75,19.75-11.35,56.06-12.18,104.78,12.59-10.75-29.23-7.94-51.21.51-63.92,7.69-11.54,20.25-16.72,33.56-13.85,19.17,4.11,35.08,22.8,44.92,51.67,69-88.63,208.11-108.31,321.93-95.67,144.39,16,306.94,90.93,344.57,222a13,13,0,0,1-15.28,16.36l-38.84-8.33c35.34,58,53.95,132.29,52.88,213.06-1.17,88.71-26.13,173.19-68.47,231.77A13,13,0,0,1,2354.51,2134.47Zm-67.26-225.55a13,13,0,0,1,13.05,12.72c1,40.55,12.38,145.94,51,181.39,71.11-110.19,82.36-312-10.3-430.41a13.06,13.06,0,0,1,13-20.81l48.17,10.33c-45.23-106.42-187.34-167.88-314.82-182.05-145.43-16.15-268.31,26.27-313.1,108.08a13.05,13.05,0,0,1-24.33-4.14c-7.26-43.87-24.11-58.66-32-60.36-1.94-.42-4.21-.42-6.35,2.8-5.38,8.08-7.54,34.87,22.78,78.43A13.05,13.05,0,0,1,1716,1623c-56.1-40.34-99.93-47.64-118.49-37-5.75,3.3-8.24,8.09-7.62,14.64,2,20.89,32.87,51.91,97.39,74.12a13,13,0,0,1,1.34,24.13c-68.27,32.37-85,106.15-87.08,162.34-2.42,66.62,14.56,146.86,46.92,223.26,58.81-91.69,63-129.46,77.5-261l2.09-18.91a13.05,13.05,0,0,1,25.09-3.4c21,52.56,55.52,82.9,105,92.09-11.21-18.53-23.22-45.54-21.41-74.27a13.05,13.05,0,0,1,21.55-9.07c126,108.56,269.15,142,425.49,99.5A12.92,12.92,0,0,1,2287.25,1908.92Z"/><path class="cls-7" d="M2287.25,1935a13.05,13.05,0,0,1-3.38-25.66c16.21-4.36,32.6-9.6,48.72-15.56a13.05,13.05,0,0,1,9.06,24.48c-16.86,6.24-34,11.72-51,16.29A13.35,13.35,0,0,1,2287.25,1935Z"/><g class="cls-6"><path class="cls-7" d="M2354.52,2121.42c-63.09-34.81-67.26-199.45-67.26-199.45-149.33,40.64-300.43,15.84-437.44-102.2-2.92,46.38,35.94,89.41,35.94,89.41a183.56,183.56,0,0,1-47.6-7.35c-71.45-117.74-41-145.5,61.69-109.3,285.07,92,492.61,106.38,451.41-128C2449.16,1789.66,2437,2007.34,2354.52,2121.42Z"/></g><g class="cls-13"><path class="cls-14" d="M2282.15,1773.35c0,19.78-38.71,35.81-86.47,35.81s-86.46-16-86.46-35.81,38.71-20.28,86.46-20.28S2282.15,1753.58,2282.15,1773.35Z"/></g><path class="cls-7" d="M2046.56,2353s-18.72,12-67.51,12c-10.59.73-40.88-.93-79.16-35.88,0,0,17.69,51,78,51C1977.91,2380,2012.24,2383.16,2046.56,2353Z"/><path class="cls-7" d="M1769.54,2126.48c4.1-13.32,13.9-24.39,26-31.93a77.16,77.16,0,0,1,41.14-11.23,78.9,78.9,0,0,1,40.82,11.73c12,7.51,21.78,18.28,26.36,31.43-13.13-4.51-24.31-8.12-35.35-10.44a160.82,160.82,0,0,0-32.1-3.68,145,145,0,0,0-32,3.13C1793.5,2117.75,1782.45,2121.44,1769.54,2126.48Z"/><path class="cls-7" d="M2237.34,2126.48c-12.92-5-24-8.73-34.91-11a145,145,0,0,0-32-3.13,160.82,160.82,0,0,0-32.1,3.68c-11,2.32-22.22,5.93-35.35,10.44,4.58-13.15,14.4-23.92,26.36-31.43a78.9,78.9,0,0,1,40.82-11.73,77.2,77.2,0,0,1,41.15,11.23C2223.43,2102.09,2233.24,2113.16,2237.34,2126.48Z"/><ellipse class="cls-7" cx="1849.82" cy="2205.99" rx="44.87" ry="59.19"/><ellipse class="cls-3" cx="1861.28" cy="2192.26" rx="13.56" ry="19.88"/><path class="cls-7" d="M1861.28,2214.85c-9.13,0-16.27-9.93-16.27-22.59s7.14-22.59,16.27-22.59,16.26,9.92,16.26,22.59S1870.4,2214.85,1861.28,2214.85Zm0-39.76c-5.88,0-10.85,7.86-10.85,17.17s5,17.16,10.85,17.16,10.84-7.86,10.84-17.16S1867.16,2175.09,1861.28,2175.09Z"/><ellipse class="cls-7" cx="2160.07" cy="2205.99" rx="44.87" ry="59.19"/><ellipse class="cls-3" cx="2148.61" cy="2192.26" rx="13.56" ry="19.88"/><path class="cls-7" d="M2148.61,2214.85c-9.13,0-16.27-9.93-16.27-22.59s7.14-22.59,16.27-22.59,16.26,9.92,16.26,22.59S2157.73,2214.85,2148.61,2214.85Zm0-39.76c-5.88,0-10.85,7.86-10.85,17.17s5,17.16,10.85,17.16,10.84-7.86,10.84-17.16S2154.49,2175.09,2148.61,2175.09Z"/><g class="cls-15"><polygon class="cls-16" points="2533.77 3291.35 1491.41 3291.37 1134.31 1954.24 2887.39 1969.52 2533.77 3291.35"/></g><path class="cls-17" d="M2656.07,3259.12a147.64,147.64,0,0,1-144.77,118.39H1513.87a147.77,147.77,0,0,1-144.78-118.39Z"/><path class="cls-7" d="M2511.29,3380.22H1513.87c-71.26,0-133.27-50.7-147.43-120.56l-.66-3.25H2659.39l-.66,3.25a150.37,150.37,0,0,1-147.44,120.56ZM1372.45,3261.84c14.89,65.65,73.83,112.95,141.42,112.95h997.42a144.91,144.91,0,0,0,141.43-112.95Z"/><path class="cls-7" d="M2511.31,3393.77H1513.88c-77.69,0-145.28-55.26-160.71-131.4a16.27,16.27,0,0,1,15.95-19.5h1287a16.27,16.27,0,0,1,15.94,19.5C2656.59,3338.51,2589,3393.77,2511.31,3393.77ZM1390.62,3275.41a131.93,131.93,0,0,0,123.26,85.83h997.43a132,132,0,0,0,123.27-85.83Z"/><g class="cls-6"><path class="cls-7" d="M2656.07,3259.12a147.64,147.64,0,0,1-144.77,118.39h-617c101.4-4.8,191.28-32.78,268.63-86.14,0,0,5.32-13,17.13-32.25Z"/></g><path class="cls-17" d="M2655.68,2633.68l-52.06,593.68a70.11,70.11,0,0,1-69.87,64H1491.41a70.18,70.18,0,0,1-69.87-64l-52-593.68a99.75,99.75,0,0,1,99.33-108.49H2556.31a99.69,99.69,0,0,1,99.37,108.49Z"/><path class="cls-7" d="M2533.75,3294.08H1491.41a72.5,72.5,0,0,1-72.57-66.48l-52-593.68a102.47,102.47,0,0,1,102-111.45H2556.3a102.42,102.42,0,0,1,102.08,111.45h0l-52.06,593.67A72.43,72.43,0,0,1,2533.75,3294.08ZM1468.86,2527.9a97,97,0,0,0-96.63,105.54l52,593.68a67.11,67.11,0,0,0,67.17,61.54H2533.75a67.05,67.05,0,0,0,67.17-61.54L2653,2633.44a97,97,0,0,0-96.68-105.54Z"/><g class="cls-18"><path class="cls-3" d="M2639.08,2569.24a98.73,98.73,0,0,0-42-9.26H1509.64a99.76,99.76,0,0,0-99.33,108.49l52,593.68a69.54,69.54,0,0,0,7.44,25.77,70.18,70.18,0,0,1-48.23-60.56l-52-593.68a99.75,99.75,0,0,1,99.33-108.49H2556.31A99.66,99.66,0,0,1,2639.08,2569.24Z"/></g><path class="cls-7" d="M2533.77,3307.62H1491.42a85.94,85.94,0,0,1-86.07-78.85l-52-593.69a116,116,0,0,1,115.57-126.15H2556.32a116,116,0,0,1,115.58,126.15l-52.06,593.69A85.93,85.93,0,0,1,2533.77,3307.62Zm-1064.9-766.16a83.49,83.49,0,0,0-83.16,90.78l52,593.68a53.58,53.58,0,0,0,53.66,49.16H2533.77a53.57,53.57,0,0,0,53.66-49.16l52.05-593.68a83.47,83.47,0,0,0-83.16-90.78Z"/><g class="cls-6"><path class="cls-7" d="M2655.68,2633.68l-52.06,593.68a70.11,70.11,0,0,1-69.87,64H1593.52c578.57-45.54,936.54-279.27,1014.66-751.6l.19.05A99.76,99.76,0,0,1,2655.68,2633.68Z"/></g><g class="cls-6"><path class="cls-3" d="M1631.86,3023.5l-65.3,6.11a30.79,30.79,0,0,1-33.52-27.79l-22.43-239.68a30.79,30.79,0,0,1,27.78-33.53l65.3-6.11a30.79,30.79,0,0,1,33.52,27.79L1659.65,2990A30.8,30.8,0,0,1,1631.86,3023.5Z"/></g><path class="cls-19" d="M2102.8,3039.52l-11.94,9.58-1.42,30.26c-.39,8.14-7.66,14.51-16.25,14.29h-.07c-8.58-.23-15.33-7-15.06-15.1l.41-12.8a4.62,4.62,0,0,0-4.62-4.65h0a4.66,4.66,0,0,0-4.88,4.41l-.36,12.8c-.22,8.14-7.35,14.51-15.91,14.28h0c-8.56-.22-15.41-7-15.31-15.08l.13-10.7a6.89,6.89,0,0,0-6.86-6.79h0a6.63,6.63,0,0,0-7,6.44l-.06,10.7c0,8.13-7,14.49-15.55,14.27h0c-8.54-.23-15.51-6.95-15.59-15.07l-.11-12.78a4.82,4.82,0,0,0-4.77-4.64h0a4.42,4.42,0,0,0-4.67,4.4l.18,12.78c.11,8.12-6.71,14.48-15.23,14.26h-.07c-8.51-.22-15.59-6.93-15.82-15l-.86-30.16-11.62-10.09a149.89,149.89,0,0,1-51.25-104.45c-4.6-83.32,60.15-154.81,145-153.47,85.36,1.34,149.76,75.58,143.51,159.5a145.94,145.94,0,0,1-54,102.87Z"/><path class="cls-7" d="M2010.93,2777.13c.78,0,1.56,0,2.34,0,85.35,1.34,149.76,75.58,143.51,159.5a145.92,145.92,0,0,1-54,102.87l-11.93,9.58-1.43,30.26c-.37,8-7.4,14.29-15.8,14.29h-.51c-8.58-.23-15.33-7-15.06-15.1l.41-12.8a4.62,4.62,0,0,0-4.62-4.65h-.13a4.65,4.65,0,0,0-4.75,4.41l-.36,12.8c-.22,8-7.1,14.29-15.47,14.29h-.44c-8.56-.22-15.41-7-15.31-15.08l.14-10.7a6.9,6.9,0,0,0-6.87-6.79h-.2a6.62,6.62,0,0,0-6.79,6.44l-.06,10.7c0,8-6.78,14.27-15.11,14.27h-.44c-8.54-.23-15.51-6.95-15.58-15.07l-.12-12.78a4.83,4.83,0,0,0-4.78-4.64h-.12a4.42,4.42,0,0,0-4.54,4.41l.17,12.78c.11,8-6.48,14.26-14.79,14.26h-.51c-8.51-.22-15.59-6.93-15.82-15l-.86-30.16-11.62-10.09a149.89,149.89,0,0,1-51.25-104.45c-4.55-82.55,59-153.49,142.69-153.49m0-26.3h0a166.53,166.53,0,0,0-122.1,52.47A174,174,0,0,0,1842,2932.07a176.54,176.54,0,0,0,60.26,122.85l2.91,2.52.53,18.63c.62,22.16,18.82,40,41.42,40.59h1.19a41.7,41.7,0,0,0,19-4.49,42.94,42.94,0,0,0,20.1,5.53h1.13a41.75,41.75,0,0,0,21.31-5.82,42.18,42.18,0,0,0,22.2,7c.38,0,.75,0,1.13,0a42.54,42.54,0,0,0,19.26-4.54,42.26,42.26,0,0,0,20,5.58l1.19,0c22.56,0,41-17.29,42.07-39.36l.87-18.41,2.68-2.15A172.49,172.49,0,0,0,2183,2938.6a176.78,176.78,0,0,0-45.55-131.89,169.73,169.73,0,0,0-123.77-55.85c-.92,0-1.83,0-2.75,0Z"/><path class="cls-20" d="M1955.81,2896.24c-22.57-.11-40,18.35-38.84,40.93,1.09,22.1,19.67,39.88,41.52,40a38.52,38.52,0,0,0,39-39.53c-.39-22.64-19.06-41.32-41.67-41.44Z"/><path class="cls-20" d="M2068.5,2895.1a41.3,41.3,0,0,0-41.38,41.08,39.91,39.91,0,0,0,39.69,40.18,41.35,41.35,0,0,0,41.45-39.67,39.87,39.87,0,0,0-39.76-41.59Z"/></svg>