<svg id="e4e579b4-5122-4d29-876c-085905a2d49a" xmlns="http://www.w3.org/2000/svg" viewBox="0 0 383 235.18"><defs><style>.cls-1{fill:#3f3d56;}.cls-2{fill:#2f2e41;}.cls-3{fill:#ffb8b8;}.cls-4{fill:#ccc;}.cls-5{fill:#facf5a;}.cls-6{fill:#fff;}.cls-7{fill:#e6e6e6;}.cls-8{fill:#f2f2f2;}.cls-9{fill:#ff6584;}</style></defs><path class="cls-1" d="M518,291.9H137a1,1,0,0,1,0-2H518a1,1,0,0,1,0,2Z" transform="translate(-136 -106.9)"/><circle class="cls-2" cx="199.06" cy="27" r="27"/><polygon class="cls-3" points="173.41 200.33 172.69 188.09 219.56 179.5 220.61 197.57 173.41 200.33"/><path class="cls-2" d="M311.68,286l1.38,23.61h0l-14.87.87h0L296,272.05h0A14.89,14.89,0,0,1,311.68,286Z" transform="translate(-136 -106.9)"/><polygon class="cls-3" points="193.79 200.21 186 209.69 145.77 184.17 157.26 170.19 193.79 200.21"/><path class="cls-2" d="M313.74,321.13l15-18.27h0l11.5,9.45h0l-24.46,29.77h0A14.88,14.88,0,0,1,313.74,321.13Z" transform="translate(-136 -106.9)"/><path class="cls-2" d="M307.39,263.07l-5.32,25.08a4,4,0,0,0,3.08,4.74,3.31,3.31,0,0,0,.77.09l52.29.84a4,4,0,0,0,4.07-3.93,4.77,4.77,0,0,0-.06-.76l-4.58-25.92a4,4,0,0,0-3.94-3.31H311.3A4,4,0,0,0,307.39,263.07Z" transform="translate(-136 -106.9)"/><path class="cls-2" d="M316.06,271.9s-51-32-61-15c-5,8.5-2.5,16.75,1.25,22.88a34.7,34.7,0,0,0,14.4,12.89l41.35,20.23,15-16-10-9Z" transform="translate(-136 -106.9)"/><path class="cls-2" d="M342.06,266.9s66-19,53,17-62,22-62,22l-5-15,17-12Z" transform="translate(-136 -106.9)"/><circle class="cls-3" cx="199.4" cy="33.17" r="24.56"/><path class="cls-4" d="M336.68,270.87a131.44,131.44,0,0,1-30.25-4l-.3-.08-13.7-63a23.22,23.22,0,0,1,14.93-26.94,80.51,80.51,0,0,1,51.3-1h0a23.48,23.48,0,0,1,15.64,27.77L359,266.75l-.22.1C352.41,269.87,344.46,270.87,336.68,270.87Z" transform="translate(-136 -106.9)"/><path class="cls-3" d="M318.27,275.77a10.06,10.06,0,0,1,12.87-6.06,9.43,9.43,0,0,1,1.61.75l27-23.43,2.44,18.41-26,19.42a10.11,10.11,0,0,1-17.91-9.09Z" transform="translate(-136 -106.9)"/><path class="cls-4" d="M344,280.88a4.68,4.68,0,0,1-1.29-.19,4.5,4.5,0,0,1-3-2.82l-3.25-9.23a4.46,4.46,0,0,1,1.3-4.9l36.77-22.07L360.07,177l.37-.08c.15,0,15-3.42,21.09,12.81,4.26,11.36,20,36.07,18.92,52.77a14.89,14.89,0,0,1-12.33,13.73l-41.38,23.71A4.43,4.43,0,0,1,344,280.88Z" transform="translate(-136 -106.9)"/><path class="cls-3" d="M348.14,273.57a10.06,10.06,0,0,0-12.87-6.05,10.21,10.21,0,0,0-1.61.74l-27-23.42-2.44,18.41,26,19.42a10.12,10.12,0,0,0,17.91-9.1Z" transform="translate(-136 -106.9)"/><path class="cls-4" d="M325.11,280.88a4.43,4.43,0,0,1-2.73-.94L278,258.23a14.88,14.88,0,0,1-12.32-13.73c-1.11-16.7,17.66-43.41,21.92-54.77,6.09-16.23,20.94-12.85,21.09-12.81l.37.08-17.5,66.67,39.77,20.07a4.46,4.46,0,0,1,1.3,4.9l-3.26,9.23a4.46,4.46,0,0,1-3,2.82A4.74,4.74,0,0,1,325.11,280.88Z" transform="translate(-136 -106.9)"/><path class="cls-5" d="M378.06,290.9h-89a7,7,0,0,1-7-7v-49a7,7,0,0,1,7-7h89a7,7,0,0,1,7,7v49A7,7,0,0,1,378.06,290.9Z" transform="translate(-136 -106.9)"/><circle class="cls-6" cx="197.56" cy="152.5" r="6"/><path class="cls-2" d="M310.59,139.07c-1.46-3.69.93-8.09,4.48-9.88s7.81-1.45,11.6-.27c3.19,1,6.17,2.52,9.28,3.74a20.79,20.79,0,0,0,9.75,1.73c3.32-.37,6.62-2.23,8-5.28s.45-7-1.71-9.71a18.88,18.88,0,0,0-8.61-5.53c-7.31-2.58-15.75-2.65-22.54,1.09s-11.39,11.71-10,19.33" transform="translate(-136 -106.9)"/><path class="cls-7" d="M168.66,280.22a122.23,122.23,0,0,1,10.1-38.52q2.28-5.08,5-10a.74.74,0,0,0-1.28-.75,123.76,123.76,0,0,0-13.77,38q-1,5.59-1.55,11.25c-.09.95,1.39.95,1.48,0Z" transform="translate(-136 -106.9)"/><circle class="cls-5" cx="51.38" cy="117.81" r="9.41"/><path class="cls-7" d="M169.63,280.47a79.13,79.13,0,0,1,6.55-25c1-2.2,2.07-4.35,3.25-6.46a.48.48,0,0,0-.19-.65.49.49,0,0,0-.64.16,80.34,80.34,0,0,0-8.93,24.64c-.45,2.42-.78,4.85-1,7.3C168.6,281.09,169.57,281.08,169.63,280.47Z" transform="translate(-136 -106.9)"/><circle class="cls-5" cx="45.77" cy="137.56" r="6.11"/><path class="cls-7" d="M168.41,279.89a78.83,78.83,0,0,1-10.2-23.73q-.87-3.51-1.41-7.1a.48.48,0,0,0-1,.13A79.94,79.94,0,0,0,164,274.11q1.69,3.27,3.69,6.38c.33.52,1.09-.08.76-.6Z" transform="translate(-136 -106.9)"/><circle class="cls-5" cx="155.83" cy="244.03" r="6.11" transform="translate(-138.13 -105.53) rotate(-0.5)"/><path class="cls-8" d="M149.66,285.3v-12a4.49,4.49,0,0,1,4.5-4.5h28a4.5,4.5,0,0,1,4.5,4.5v12a4.51,4.51,0,0,1-4.5,4.5h-28A4.51,4.51,0,0,1,149.66,285.3Z" transform="translate(-136 -106.9)"/><path class="cls-9" d="M450.41,299.3c0,6.58-5.33,9.57-11.91,9.57s-11.91-3-11.91-9.57,2.65-14.25,11.91-11.6C447.76,283.73,450.41,292.73,450.41,299.3Z" transform="translate(-136 -106.9)"/><path class="cls-1" d="M437.92,290.78a1.9,1.9,0,0,1-1.89-1.66c-.4-3.28-2.57-9.71-3.48-12.32h0a1.73,1.73,0,0,1,.23-1.57,1.78,1.78,0,0,1,2.5-.33l.16.14a1.77,1.77,0,0,1,.47,1.28c-.18,3.35,2.26,8.76,3.73,11.69a1.9,1.9,0,0,1-.84,2.56,2,2,0,0,1-.67.2Z" transform="translate(-136 -106.9)"/><path class="cls-1" d="M446.73,283.39c4.14-3.39.89-10.31-4.28-9a4.29,4.29,0,0,0-1.87,1c-3.17,3-3.66,10.67-3.66,10.67S442.52,286.83,446.73,283.39Z" transform="translate(-136 -106.9)"/></svg>