<?xml version="1.0" encoding="utf-8"?>
<!-- Generator: Adobe Illustrator 24.2.3, SVG Export Plug-In . SVG Version: 6.00 Build 0)  -->
<svg version="1.1" id="e4e579b4-5122-4d29-876c-085905a2d49a"
	 xmlns="http://www.w3.org/2000/svg" xmlns:xlink="http://www.w3.org/1999/xlink" x="0px" y="0px" viewBox="0 0 383 235.2"
	 style="enable-background:new 0 0 383 235.2;" xml:space="preserve">
<style type="text/css">
	.st0{fill:#E7E7DE;}
	.st1{fill:#2F2E41;}
	.st2{fill:#FFB8B8;}
	.st3{fill:#CCCCCC;}
	.st4{fill:#FFFFFF;}
	.st5{fill:#E6E6E6;}
	.st6{fill:#FACF5A;}
	.st7{fill:#F2F2F2;}
	.st8{fill:#FF6584;}
	.st9{fill:#3F3D56;}
</style>
<path class="st0" d="M382,185H1c-0.6,0-1-0.4-1-1s0.4-1,1-1h381c0.6,0,1,0.4,1,1S382.6,185,382,185z"/>
<circle class="st1" cx="199.1" cy="27" r="27"/>
<polygon class="st2" points="173.4,200.3 172.7,188.1 219.6,179.5 220.6,197.6 "/>
<path class="st1" d="M175.7,179.1l1.4,23.6l0,0l-14.9,0.9l0,0l-2.2-38.4l0,0C168.2,164.7,175.2,170.9,175.7,179.1z"/>
<polygon class="st2" points="193.8,200.2 186,209.7 145.8,184.2 157.3,170.2 "/>
<path class="st1" d="M177.7,214.2l15-18.3l0,0l11.5,9.5l0,0l-24.5,29.8l0,0C173.4,230,172.5,220.6,177.7,214.2L177.7,214.2z"/>
<path class="st1" d="M171.4,156.2l-5.3,25.1c-0.5,2.2,0.9,4.3,3.1,4.7c0.3,0.1,0.5,0.1,0.8,0.1l52.3,0.8c2.2,0,4-1.7,4.1-3.9l0,0
	c0-0.3,0-0.5-0.1-0.8l-4.6-25.9c-0.3-1.9-2-3.3-3.9-3.3h-42.4C173.4,153,171.8,154.3,171.4,156.2z"/>
<path class="st1" d="M180.1,165c0,0-51-32-61-15c-5,8.5-2.5,16.8,1.2,22.9c3.5,5.6,8.5,10,14.4,12.9l41.4,20.2l15-16l-10-9
	L180.1,165z"/>
<path class="st1" d="M206.1,160c0,0,66-19,53,17s-62,22-62,22l-5-15l17-12L206.1,160z"/>
<circle class="st2" cx="199.4" cy="33.2" r="24.6"/>
<path class="st3" d="M200.7,164c-10.2-0.2-20.4-1.5-30.2-4l-0.3-0.1l-13.7-63c-2.6-11.5,3.9-23,14.9-26.9c16.5-5.9,34.5-6.3,51.3-1
	l0,0c11.7,3.8,18.5,15.9,15.6,27.8L223,159.9l-0.2,0.1C216.4,163,208.5,164,200.7,164z"/>
<path class="st2" d="M182.3,168.9c1.9-5.2,7.6-7.9,12.9-6.1c0.6,0.2,1.1,0.4,1.6,0.8l27-23.4l2.4,18.4l-26,19.4
	c-3.1,4.7-9.4,5.9-14,2.8C182.3,178.2,180.7,173.3,182.3,168.9L182.3,168.9z"/>
<path class="st3" d="M208,174c-0.4,0-0.9-0.1-1.3-0.2c-1.4-0.4-2.5-1.5-3-2.8l-3.2-9.2c-0.6-1.7-0.1-3.7,1.3-4.9l36.8-22.1
	l-14.5-64.7l0.4-0.1c0.1,0,15-3.4,21.1,12.8c4.3,11.4,20,36.1,18.9,52.8c-0.4,6.9-5.5,12.6-12.3,13.7L210.7,173
	C210,173.7,209,174,208,174z"/>
<path class="st2" d="M212.1,166.7c-1.9-5.2-7.6-7.9-12.9-6c-0.6,0.2-1.1,0.4-1.6,0.7l-27-23.4l-2.4,18.4l26,19.4
	c3.1,4.6,9.4,5.9,14,2.7C212.1,175.9,213.7,171,212.1,166.7L212.1,166.7z"/>
<path class="st3" d="M189.1,174c-1,0-2-0.3-2.7-0.9L142,151.3c-6.8-1.2-11.9-6.9-12.3-13.7c-1.1-16.7,17.7-43.4,21.9-54.8
	c6.1-16.2,20.9-12.9,21.1-12.8l0.4,0.1l-17.5,66.7l39.8,20.1c1.4,1.2,1.9,3.2,1.3,4.9l-3.3,9.2c-0.5,1.4-1.6,2.4-3,2.8
	C190,173.9,189.5,174,189.1,174z"/>
<path class="st4" d="M242.1,184h-89c-3.9,0-7-3.1-7-7v-49c0-3.9,3.1-7,7-7h89c3.9,0,7,3.1,7,7v49C249.1,180.9,245.9,184,242.1,184z"
	/>
<ellipse cx="196.8" cy="152.5" rx="5.2" ry="6"/>
<path class="st1" d="M174.6,32.2c-1.5-3.7,0.9-8.1,4.5-9.9s7.8-1.4,11.6-0.3c3.2,1,6.2,2.5,9.3,3.7c3.1,1.4,6.4,1.9,9.8,1.7
	c3.3-0.4,6.6-2.2,8-5.3s0.5-7-1.7-9.7c-2.3-2.6-5.3-4.5-8.6-5.5C200.2,4.3,191.7,4.2,185,8s-11.4,11.7-10,19.3"/>
<path class="st5" d="M32.7,173.3c1.2-13.3,4.7-26.3,10.1-38.5c1.5-3.4,3.2-6.7,5-10c0.2-0.4,0.1-0.8-0.3-1s-0.8-0.1-1,0.3
	c-6.6,11.8-11.3,24.7-13.8,38c-0.7,3.7-1.2,7.5-1.6,11.2C31.1,174.3,32.6,174.3,32.7,173.3L32.7,173.3z"/>
<circle class="st6" cx="51.4" cy="117.8" r="9.4"/>
<path class="st5" d="M33.6,173.6c0.8-8.6,3-17.1,6.6-25c1-2.2,2.1-4.4,3.2-6.5c0.1-0.2,0-0.5-0.2-0.6s-0.5-0.1-0.6,0.2
	c-4.3,7.7-7.3,16-8.9,24.6c-0.4,2.4-0.8,4.9-1,7.3C32.6,174.2,33.6,174.2,33.6,173.6z"/>
<circle class="st6" cx="45.8" cy="137.6" r="6.1"/>
<path class="st5" d="M32.4,173c-4.7-7.3-8.1-15.3-10.2-23.7c-0.6-2.3-1-4.7-1.4-7.1c0-0.3-0.3-0.5-0.6-0.4c-0.3,0-0.5,0.3-0.4,0.6
	l0,0c1.3,8.7,4.1,17.1,8.2,24.9c1.1,2.2,2.4,4.3,3.7,6.4C32,174.1,32.8,173.5,32.4,173L32.4,173z"/>
<circle class="st6" cx="19.8" cy="137.1" r="6.1"/>
<path class="st7" d="M13.7,178.4v-12c0-2.5,2-4.5,4.5-4.5l0,0h28c2.5,0,4.5,2,4.5,4.5v12c0,2.5-2,4.5-4.5,4.5h-28
	C15.7,182.9,13.7,180.9,13.7,178.4z"/>
<path class="st8" d="M314.4,192.4c0,6.6-5.3,9.6-11.9,9.6s-11.9-3-11.9-9.6s2.6-14.2,11.9-11.6C311.8,176.8,314.4,185.8,314.4,192.4
	z"/>
<path class="st9" d="M301.9,183.9c-1,0-1.8-0.7-1.9-1.7c-0.4-3.3-2.6-9.7-3.5-12.3l0,0c-0.2-0.5-0.1-1.1,0.2-1.6
	c0.6-0.8,1.7-0.9,2.5-0.3l0,0l0.2,0.1c0.3,0.3,0.5,0.8,0.5,1.3c-0.2,3.4,2.3,8.8,3.7,11.7c0.5,0.9,0.1,2.1-0.8,2.6l0,0
	c-0.2,0.1-0.4,0.2-0.7,0.2H301.9z"/>
<path class="st9" d="M310.7,176.5c4.1-3.4,0.9-10.3-4.3-9c-0.7,0.2-1.3,0.5-1.9,1c-3.2,3-3.7,10.7-3.7,10.7S306.5,179.9,310.7,176.5
	z"/>
</svg>
