<svg id="Layer_1" data-name="Layer 1" xmlns="http://www.w3.org/2000/svg" viewBox="0 0 192.76 192.76"><defs><style>.cls-1{fill:#fff;fill-rule:evenodd;}</style></defs><polygon class="cls-1" points="0 0 192.76 0 192.76 192.76 0 192.76 0 0 0 0"/><path class="cls-1" d="M928.12,477.41a16.64,16.64,0,0,1,3.8-.41h32.43V578.43h-19l-.08-38.09-9.38,16-36.32.08-13.26,22-20.47-.08,56.38-95.93c1.38-2.42,2.67-4.28,5.91-5Zm17.22,60.5V493.67l-5.5-.08c-2.42,0-3.23,1.29-4.2,2.83l-24.83,41.49Z" transform="translate(-863 -444)"/><path class="cls-1" d="M1014.26,579.65c10.43,0,20.79-3.64,27.5-10.84,6.55-7,10.68-17.8,11.16-27.91v-4a32,32,0,0,0-.56-4.85c-2.35-12.14-8.42-20-18.12-26.05-5.1-3.15-12.54-5.34-20-6-6.63-.49-13.27.24-18.36,2.67-10.76,5.09-18.77,12.29-18.77,26.53v74.49l25.72-.08-7-4.29V579.81c2.34-2.18,7.12-1.54,10.19-1a46.36,46.36,0,0,0,8.17.81Zm0-58.81a20.27,20.27,0,0,1,5,.81c5.91,1.7,9.55,5.26,11.89,11.65,2.51,6.31,1.86,15.29-2.91,21.35a19.37,19.37,0,0,1-14,7,21.7,21.7,0,0,1-8.17-1.05L995.9,577.71v-41c0-5.66,2.18-8.82,5.17-11.89,2.83-3,8.17-4.29,13.19-4Z" transform="translate(-863 -444)"/></svg>