<?xml version="1.0" encoding="utf-8"?>
<!-- Generator: Adobe Illustrator 24.2.3, SVG Export Plug-In . SVG Version: 6.00 Build 0)  -->
<svg version="1.1" id="Layer_1" xmlns="http://www.w3.org/2000/svg" xmlns:xlink="http://www.w3.org/1999/xlink" x="0px" y="0px"
	 viewBox="0 0 453.8 438.3" style="enable-background:new 0 0 453.8 438.3;" xml:space="preserve">
<style type="text/css">
	.st0{fill:#FFFFFF;}
	.st1{fill:#E0E0E0;}
	.st2{opacity:0.3;}
	.st3{fill:none;}
	.st4{fill-rule:evenodd;clip-rule:evenodd;fill:#E0E0E0;}
	.st5{fill:#EBEBEB;}
	.st6{fill:#263238;}
	.st7{fill:#E8505B;}
	.st8{enable-background:new    ;}
	.st9{font-family:'ArialMT';}
	.st10{font-size:14.54px;}
	.st11{fill:#455A64;}
	.st12{fill:#FAFAFA;}
	.st13{fill:#FFBE9D;}
	.st14{opacity:0.6;}
	.st15{fill:#EB996E;}
	.st16{fill:#F95959;}
</style>
<g id="Background_Complete">
	<rect x="49.7" y="83.5" class="st0" width="125.2" height="83.8"/>
	<path class="st1" d="M174.9,167.3c0,0,0-0.5,0-1.5s0-2.5,0-4.4c0-3.9,0-9.6,0-16.9c0-14.6-0.1-35.5-0.1-61l0.2,0.2H49.8l0,0
		l0.2-0.2c0,29.9,0,58.3,0,83.8l-0.2-0.2l90.2,0.1l25.8,0.1h6.9h1.8h0.6h-2.3h-6.8l-25.7,0.1l-90.3,0.1h-0.2v-0.2
		c0-25.6,0-54,0-83.8v-0.2h0.2h125.2h0.2v0.2c0,25.6-0.1,46.6-0.1,61.1c0,7.3,0,12.9,0,16.8c0,1.9,0,3.4,0,4.4
		S174.9,167.3,174.9,167.3z"/>
	<path class="st1" d="M49.7,91c0-0.1,28-0.2,62.6-0.2s62.6,0.1,62.6,0.2c0,0.1-28,0.2-62.6,0.2S49.7,91.1,49.7,91z"/>
	<g class="st2">
		<path class="st1" d="M54.6,87.2c0,0.6-0.4,1-1,1s-1-0.4-1-1c0-0.6,0.4-1,1-1S54.6,86.7,54.6,87.2z"/>
	</g>
	<g class="st2">
		<circle class="st1" cx="57" cy="87.2" r="1"/>
	</g>
	<g class="st2">
		<path class="st1" d="M61.4,87.2c0,0.6-0.4,1-1,1s-1-0.4-1-1c0-0.6,0.4-1,1-1S61.4,86.7,61.4,87.2z"/>
	</g>
	<rect x="60.4" y="99.7" class="st1" width="33.4" height="33.4"/>
	<path class="st1" d="M157.7,109.2c0,0.1-13,0.2-29.1,0.2s-29.1-0.1-29.1-0.2s13-0.2,29.1-0.2S157.7,109.1,157.7,109.2z"/>
	<path class="st1" d="M157.7,115.4c0,0.1-13,0.2-29.1,0.2s-29.1-0.1-29.1-0.2s13-0.2,29.1-0.2S157.7,115.3,157.7,115.4z"/>
	<path class="st1" d="M157.7,121.6c0,0.1-13,0.2-29.1,0.2s-29.1-0.1-29.1-0.2s13-0.2,29.1-0.2S157.7,121.5,157.7,121.6z"/>
	<path class="st1" d="M133.9,127.8c-0.4,0.1-0.9,0.1-1.4,0.1l-3.7,0.1c-3.1,0-7.4,0.1-12.1,0.1s-9,0-12.2-0.1l-3.7-0.1
		c-0.5,0-0.9,0-1.3-0.1c0.4-0.1,0.9-0.1,1.3-0.1l3.7-0.1c3.1-0.1,7.4-0.1,12.2-0.1s9,0,12.1,0.1l3.7,0.1
		C133,127.7,133.5,127.7,133.9,127.8z"/>
	<rect x="62.5" y="144.4" class="st1" width="15.7" height="15.7"/>
	<rect x="91" y="144.4" class="st1" width="15.7" height="15.7"/>
	<rect x="119.5" y="144.4" class="st1" width="15.7" height="15.7"/>
	<rect x="147.9" y="144.4" class="st1" width="15.7" height="15.7"/>
	<path class="st3" d="M409,110.8c-0.8,1-1.7,2-2.7,2.8l0.7,3.5l-5.4,2.4l-2.1-2.9c-1.3,0.2-2.6,0.2-3.9,0.1l-2,3l-5.5-2.1l0.5-3.5
		c-1-0.8-2-1.6-2.8-2.7l-3.5,0.7l-2.4-5.4l2.9-2.1c-0.2-1.3-0.2-2.6-0.1-3.9l-3-2l2.2-5.6l3.5,0.5c0.8-1,1.7-2,2.7-2.8l-0.7-3.5
		l5.4-2.4l2.1,2.9c1.3-0.2,2.6-0.2,3.9-0.1l2-3l5.5,2.1l-0.5,3.5c1,0.8,2,1.7,2.8,2.7l3.5-0.7l2.4,5.4l-2.9,2.1
		c0.2,1.3,0.2,2.6,0.1,3.9l3,2l-2.1,5.5L409,110.8L409,110.8z M403,104.8c1.3-3.3-0.4-6.9-3.7-8.2c-3.3-1.3-6.9,0.4-8.2,3.7
		c-1.2,3.3,0.4,6.9,3.6,8.2C398.1,109.7,401.8,108.1,403,104.8C403,104.8,403,104.7,403,104.8L403,104.8z"/>
	<path class="st1" d="M403,104.7c-0.1,0.5-0.4,1-0.7,1.4c-1.4,2.1-3.9,3.1-6.4,2.7c-1.1-0.2-2.2-0.7-3.1-1.5
		c-0.5-0.4-0.9-0.9-1.2-1.4c-0.4-0.6-0.6-1.2-0.8-1.8c-0.4-1.3-0.3-2.8,0.2-4.1c0.5-1.3,1.4-2.4,2.6-3.1c0.6-0.4,1.2-0.6,1.8-0.8
		c0.6-0.2,1.2-0.2,1.9-0.2c2.2,0.1,4.2,1.3,5.4,3.2c0.8,1.2,1.1,2.7,0.9,4.2C403.4,103.8,403.3,104.3,403,104.7c0,0,0.2-0.5,0.3-1.5
		c0.1-1.4-0.2-2.8-0.9-4c-1.1-1.8-3.1-2.9-5.2-2.9c-0.6,0-1.2,0.1-1.8,0.2c-3.3,0.9-5.2,4.3-4.3,7.6c0.2,0.6,0.4,1.2,0.8,1.7
		c0.3,0.5,0.7,1,1.1,1.4c1.6,1.4,3.8,1.9,5.8,1.3c1.4-0.4,2.6-1.2,3.4-2.4C402.5,105.7,402.8,105.2,403,104.7z"/>
	<path class="st1" d="M409,110.8h0.2l0.7,0.1l2.6,0.4h-0.1c0.5-1.4,1.2-3.3,2.1-5.5v0.1l-3-2h-0.1v-0.1c0.1-1.3,0.1-2.6-0.1-3.8
		v-0.1h0.1l2.9-2.1v0.2l-2.4-5.4l0.1,0.1l-3.5,0.7h-0.1l-0.1-0.1c-0.8-1-1.7-1.9-2.8-2.6l-0.1-0.1v-0.1c0.2-1.1,0.3-2.3,0.5-3.5
		l0.1,0.2l-5.5-2.1l0.2-0.1l-2,3l-0.1,0.1h-0.1c-1.3-0.1-2.5-0.1-3.8,0.1h-0.1l-0.1-0.1l-2.1-2.9h0.2l-5.4,2.4l0.1-0.2
		c0.2,1.1,0.5,2.3,0.7,3.5v0.1l-0.1,0.1c-1,0.8-1.9,1.7-2.6,2.8l0,0l-0.2,0.1h-0.1h-0.1h-0.2l-0.5-0.1l-0.9-0.1l-1.8-0.2l0.2-0.1
		l-2,5.5l-0.1-0.2l3,2l0.1,0.1v0.1c-0.1,1.3-0.1,2.5,0.1,3.8v0.1l-0.1,0.1l-2.9,2.1l0.1-0.2c0.8,1.9,1.6,3.7,2.4,5.4l-0.2-0.1
		l3.5-0.7h0.1l0.1,0.1c0.8,1,1.7,1.9,2.8,2.6l0.1,0.1v0.1c-0.2,1.2-0.4,2.4-0.5,3.5l-0.1-0.2l5.5,2.1l-0.2,0.1l2-3v-0.1h0.1
		c1.3,0.1,2.6,0.1,3.8-0.1h0.1v0.1l2.1,2.9h-0.1l5.4-2.4v0.1c-0.3-1.4-0.5-2.6-0.7-3.5l0,0l0,0c0.8-0.6,1.5-1.3,2.1-2l0.5-0.6
		L409,110.8l-0.1,0.3c-0.1,0.1-0.2,0.3-0.4,0.6c-0.6,0.8-1.3,1.5-2,2.1v-0.1c0.2,1,0.4,2.1,0.7,3.5v-0.1h-0.1l-5.4,2.4h-0.1
		l-0.1-0.1l-2.1-2.9l0.1,0.1c-1.3,0.2-2.6,0.2-3.9,0.1l0.1-0.1l-2,3l-0.1,0.1h-0.1l-5.5-2.1H388v-0.1c0.2-1.1,0.3-2.3,0.5-3.5
		l0.1,0.1c-1.1-0.8-2-1.7-2.8-2.7l0.2,0.1l-3.5,0.7h-0.1l-0.1-0.1l-2.4-5.4l-0.1-0.1l0.1-0.1l2.9-2.1l-0.1,0.2
		c-0.2-1.3-0.2-2.6-0.1-3.9l0.1,0.2l-3-2l-0.1-0.1v-0.1l2.1-5.5l0-0.1h0.1l1.8,0.2l0.9,0.1l0.5,0.1h0.2h0.1h0.1
		c-0.4,0.2-0.1,0-0.2,0.1l0,0c0.8-1,1.7-2,2.8-2.8l-0.1,0.2c-0.2-1.2-0.5-2.4-0.7-3.5v-0.2l0.1-0.1l5.4-2.4l0.1-0.1l0.1,0.1
		c0.7,1,1.5,2,2.1,2.9l-0.2-0.1c1.3-0.2,2.6-0.2,3.9-0.1l-0.2,0.1l2-3l0.1-0.1h0.1l5.5,2.1h0.1v0.1c-0.2,1.2-0.4,2.4-0.5,3.5
		l-0.1-0.1c1.1,0.8,2,1.7,2.8,2.7l-0.1-0.1l3.5-0.7h0.1l0,0.1c0.8,1.9,1.6,3.7,2.4,5.4v0.1l-0.1,0.1l-2.9,2.1l0-0.1
		c0.2,1.3,0.2,2.6,0.1,3.9l0-0.1l3,2h0.1v0.1l-2.2,5.5v0.1l0,0l-2.6-0.4l-0.7-0.1L409,110.8z"/>
	<path class="st4" d="M440.5,93.9c-0.6,0.9-1.4,1.7-2.2,2.3l0.6,2.9l-4.5,2l-1.8-2.4c-1.1,0.2-2.1,0.2-3.2,0.1l-1.6,2.5l-4.6-1.8
		l0.4-2.9c-0.9-0.6-1.7-1.4-2.3-2.2l-2.9,0.6l-2-4.5l2.4-1.8c-0.2-1.1-0.2-2.1-0.1-3.2l-2.5-1.7l1.8-4.6l2.9,0.4
		c0.6-0.9,1.4-1.7,2.2-2.3l-0.6-2.9l4.5-2l1.8,2.4c1.1-0.2,2.1-0.2,3.2-0.1l1.6-2.5l4.6,1.8l-0.4,2.9c0.9,0.6,1.6,1.4,2.3,2.2
		l2.9-0.6l2,4.5l-2.4,1.8c0.2,1.1,0.2,2.1,0.1,3.2l2.5,1.6l-1.8,4.6L440.5,93.9L440.5,93.9z M435.5,88.9c1.1-2.7-0.3-5.8-3-6.8
		c-2.7-1.1-5.8,0.3-6.8,3c-1.1,2.7,0.3,5.8,3,6.8c0,0,0,0,0,0C431.4,93,434.5,91.7,435.5,88.9C435.5,88.9,435.5,88.9,435.5,88.9
		L435.5,88.9z"/>
	<path class="st4" d="M421.2,66.6c-1,1.4-2.2,2.6-3.5,3.6l0.9,4.6l-7,3.1l-2.8-3.7c-1.7,0.3-3.3,0.3-5,0.1l-2.6,3.9l-7.2-2.8
		l0.7-4.6c-1.4-1-2.6-2.2-3.6-3.5l-4.6,0.9l-3.1-7l3.7-2.8c-0.3-1.7-0.3-3.3-0.1-5l-3.9-2.6l2.8-7.2l4.6,0.7c1-1.4,2.1-2.6,3.4-3.7
		l-0.9-4.6l7-3.1l2.8,3.7c1.7-0.3,3.3-0.3,5-0.1l2.6-3.9l7.2,2.8l-0.6,4.6c1.4,1,2.6,2.2,3.6,3.5l4.6-0.9l3.1,7l-3.7,2.8
		c0.3,1.7,0.3,3.3,0.1,5l3.9,2.7l-2.8,7.2L421.2,66.6L421.2,66.6z M413.4,58.7c1.6-4.3-0.5-9-4.7-10.7s-9,0.5-10.7,4.7
		c-1.6,4.3,0.5,9,4.7,10.7c0,0,0,0,0,0C407,65.1,411.7,63,413.4,58.7C413.4,58.7,413.4,58.7,413.4,58.7z"/>
	<path class="st1" d="M350.6,28.5c0.2-0.2,0.3-0.4,0.5-0.6l1.5-1.5c1.3-1.3,3.1-3,5.1-4.9h0v0.2c-2-1.9-3.8-3.6-5.1-4.8l-1.5-1.5
		c-0.2-0.2-0.4-0.4-0.5-0.6c0.2,0.1,0.4,0.3,0.6,0.5l1.6,1.4c1.3,1.2,3.2,2.9,5.2,4.8l0.1,0.1l-0.1,0.1l0,0c-2,1.9-3.8,3.6-5.2,4.9
		l-1.6,1.5C351,28.2,350.8,28.3,350.6,28.5z"/>
	<path class="st1" d="M334.9,14.7c-0.2,0.2-0.3,0.4-0.5,0.6l-1.5,1.5c-1.3,1.3-3.1,3-5.1,4.9l0,0v-0.3c2,1.9,3.8,3.6,5.1,4.8
		l1.5,1.5c0.2,0.2,0.4,0.4,0.5,0.6c-0.2-0.1-0.4-0.3-0.6-0.5c-0.4-0.4-1-0.9-1.6-1.4c-1.3-1.2-3.2-2.9-5.2-4.8l-0.1-0.1l0.1-0.1h0
		c2-1.9,3.8-3.6,5.2-4.9l1.6-1.4C334.5,15,334.7,14.8,334.9,14.7z"/>
	<path class="st1" d="M338.9,31.7c-0.1,0,1.5-4.6,3.7-10.3s3.9-10.2,4-10.2s-1.5,4.6-3.7,10.3S339,31.7,338.9,31.7z"/>
	<path class="st1" d="M368.3,41.5c0,0,0-0.3,0-0.8s0-1.3,0-2.2c0-1.9,0-4.8,0-8.4c0-7.2,0-17.5-0.1-30l0.1,0.2h-50.8l0,0l0.2-0.2
		c0,15,0,29.1,0,41.4l-0.2-0.2l36.7,0.1h10.4h2.8h-2.7l-10.4,0.1l-36.8,0.1h-0.2v-0.2c0-12.3,0-26.4,0-41.4v-0.2h0.2h50.8h0.1V0
		c0,12.5-0.1,22.8-0.1,30.1c0,3.6,0,6.4,0,8.4c0,1,0,1.7,0,2.2S368.3,41.5,368.3,41.5z"/>
	<path class="st1" d="M368.7,6.3c0,0.1-11.5,0.2-25.6,0.2s-25.6-0.1-25.6-0.2s11.5-0.2,25.6-0.2S368.7,6.2,368.7,6.3z"/>
	<path class="st1" d="M321.7,3.3c0,0.4-0.3,0.7-0.7,0.7l0,0c-0.4,0-0.7-0.3-0.7-0.7c0-0.4,0.3-0.7,0.7-0.7S321.7,2.9,321.7,3.3
		L321.7,3.3z"/>
	<circle class="st1" cx="323.5" cy="3.3" r="0.7"/>
	<path class="st1" d="M326.7,3.3c0,0.4-0.3,0.7-0.7,0.7s-0.7-0.3-0.7-0.7s0.3-0.7,0.7-0.7S326.7,2.9,326.7,3.3L326.7,3.3z"/>
	<rect x="152.8" y="20.1" class="st0" width="117.4" height="47.7"/>
	<path class="st1" d="M270.2,67.8c0,0,0-0.3,0-0.8s0-1.4,0-2.5c0-2.2,0-5.4,0-9.5c0-8.2,0-20.1-0.1-34.9l0.1,0.1l-117.4,0.1l0,0
		l0.1-0.2v47.7l-0.2-0.2l84.2,0.1l24.4,0.1h6.5l0,0h-6.5H237l-84.3,0.1h-0.2v-0.2c0-14.9,0-31,0-47.7v-0.2h0.2h117.4h0.1v0.3
		c0,14.8,0,26.7-0.1,34.9c0,4.1,0,7.3,0,9.5c0,1.1,0,1.9,0,2.4S270.2,67.8,270.2,67.8z"/>
	<path class="st1" d="M152.9,26.6c0-0.1,26.2-0.2,58.6-0.2s58.6,0.1,58.6,0.2s-26.2,0.2-58.6,0.2S152.9,26.7,152.9,26.6z"/>
	<g class="st2">
		<path class="st5" d="M157.8,23.7c0,0.5-0.4,0.8-0.9,0.8l0,0c-0.5,0-0.9-0.4-0.9-0.8c0-0.5,0.4-0.9,0.9-0.9
			C157.4,22.8,157.8,23.2,157.8,23.7C157.8,23.7,157.8,23.7,157.8,23.7z"/>
	</g>
	<g class="st2">
		<path class="st5" d="M160.7,23.7c0,0.5-0.4,0.8-0.9,0.8l0,0c-0.5,0-0.9-0.4-0.9-0.8c0-0.5,0.4-0.9,0.9-0.9
			C160.3,22.8,160.7,23.2,160.7,23.7C160.7,23.7,160.7,23.7,160.7,23.7z"/>
	</g>
	<g class="st2">
		<circle class="st5" cx="162.8" cy="23.7" r="0.9"/>
	</g>
	<rect x="162.8" y="34.3" class="st1" width="28.4" height="28.4"/>
	<path class="st1" d="M262,41.9c0,0.1-14.6,0.2-32.6,0.2s-32.6-0.1-32.6-0.2s14.6-0.2,32.6-0.2S262,41.8,262,41.9z"/>
	<path class="st1" d="M262,47.7c0,0.1-14.6,0.2-32.6,0.2s-32.6-0.1-32.6-0.2s14.6-0.2,32.6-0.2S262,47.6,262,47.7z"/>
	<path class="st1" d="M238.8,53.5c-0.1,0-0.3,0-0.4,0h-1.2l-4.5,0.1l-14.8,0.1L203,53.5l-4.5-0.1h-1.2c-0.1,0-0.3,0-0.4,0
		c0.1,0,0.3,0,0.4,0h1.2l4.5-0.1h14.8h14.8l4.5,0.1h1.2C238.5,53.4,238.7,53.4,238.8,53.5z"/>
</g>
<g id="Floor">
	<path class="st6" d="M453.8,412.2c0,0.1-99.8,0.3-222.9,0.3S8.1,412.3,8.1,412.2s99.8-0.3,222.9-0.3S453.8,412,453.8,412.2z"/>
</g>
<g id="Screens">
	<rect x="276" y="102.5" class="st1" width="140.1" height="114.2"/>
	<rect x="266" y="109.8" class="st5" width="140.1" height="114.2"/>
	<rect x="252.3" y="117.7" class="st0" width="143.9" height="117.2"/>
	<path class="st6" d="M396.1,234.9c0,0,0-0.8,0-2.2s0-3.5,0-6.3c0-5.5,0-13.5,0-23.8c0-20.5-0.1-49.7-0.1-85l0.2,0.2H252.4l0,0
		l0.3-0.3c0,42.4,0,82.4,0,117.2l-0.2-0.2l104,0.1l29.4,0.1h7.8h2h0.7h-2.6h-7.8l-29.4,0.1L252.4,235h-0.2v-0.2
		c0-34.8,0-74.8,0-117.2v-0.3h0.3h143.9h0.2v0.2c0,35.4-0.1,64.7-0.1,85.2c0,10.2,0,18.2-0.1,23.7c0,2.7,0,4.8,0,6.2
		S396.1,234.9,396.1,234.9z"/>
	<path class="st7" d="M269.8,134.6l-1.5,0.6l1.5,0.6v0.6l-2.2-0.8v-0.6l2.2-0.8V134.6z"/>
	<path class="st7" d="M273.5,133.6v3.2h-0.8v-1.3h-1.5v1.3h-0.8v-3.2h0.8v1.3h1.5v-1.3H273.5z"/>
	<path class="st7" d="M274.9,134.2h-1v-0.6h2.8v0.6h-1v2.6h-0.8V134.2z"/>
	<path class="st7" d="M280,136.8v-2l-1,1.6h-0.3l-1-1.6v1.9H277v-3.2h0.6l1.2,2l1.2-2h0.6v3.2L280,136.8z"/>
	<path class="st7" d="M281.5,133.6h0.8v2.6h1.7v0.6h-2.4L281.5,133.6z"/>
	<path class="st7" d="M286.4,134.9v0.6l-2.2,0.8v-0.6l1.5-0.6l-1.5-0.6v-0.5L286.4,134.9z"/>
	<path class="st7" d="M268.5,223.5l-1.6,0.6l1.5,0.6v0.6l-2.2-0.8v-0.6l2.2-0.8L268.5,223.5z"/>
	<path class="st7" d="M270.2,221.8h0.6l-1.5,4.4h-0.6L270.2,221.8z"/>
	<path class="st7" d="M273.9,222.5v3.2h-0.8v-1.3h-1.4v1.3H271v-3.2h0.8v1.3h1.5v-1.3H273.9z"/>
	<path class="st7" d="M275.4,223.1h-1v-0.6h2.8v0.6h-1v2.6h-0.8L275.4,223.1z"/>
	<path class="st7" d="M280.5,225.7v-2l-1,1.6h-0.3l-1-1.6v1.9h-0.7v-3.2h0.6l1.2,2l1.2-2h0.6v3.2L280.5,225.7z"/>
	<path class="st7" d="M282,222.5h0.8v2.6h1.6v0.6H282V222.5z"/>
	<path class="st7" d="M286.9,223.8v0.6l-2.2,0.8v-0.6l1.5-0.6l-1.5-0.6v-0.6L286.9,223.8z"/>
	<path d="M280,143.5l-1.6,0.6l1.6,0.6v0.4l-2.1-0.8V144l2.1-0.8V143.5z"/>
	<path d="M283.6,142.5v3.2h-0.5v-1.4h-1.9v1.4h-0.5v-3.2h0.5v1.4h1.9v-1.4H283.6z"/>
	<path d="M286.9,145.4v0.4h-2.4v-3.2h2.3v0.4h-1.8v1h1.6v0.4h-1.6v1L286.9,145.4z"/>
	<path d="M289.7,145H288l-0.4,0.8h-0.5l1.5-3.2h0.5l1.5,3.2h-0.5L289.7,145z M289.6,144.6l-0.7-1.6l-0.7,1.6H289.6z"/>
	<path d="M291.1,142.5h1.4c0.9-0.1,1.7,0.6,1.8,1.5c0.1,0.9-0.6,1.7-1.5,1.8c-0.1,0-0.2,0-0.3,0h-1.4V142.5z M292.4,145.4
		c0.7,0,1.2-0.5,1.2-1.2s-0.5-1.2-1.2-1.2l0,0h-0.9v2.4H292.4z"/>
	<path d="M296.8,144v0.4l-2.1,0.8v-0.4l1.6-0.6l-1.6-0.6v-0.4L296.8,144z"/>
	<path d="M280,154.6l-1.6,0.6l1.6,0.6v0.4l-2.1-0.8v-0.4l2.1-0.8V154.6z"/>
	<path d="M281.5,154.1h-1.1v-0.4h2.7v0.4h-1.1v2.9h-0.5L281.5,154.1z"/>
	<path d="M283.5,153.7h0.5v3.2h-0.5V153.7z"/>
	<path d="M285.6,154.1h-1.1v-0.4h2.7v0.4h-1.1v2.9h-0.5L285.6,154.1z"/>
	<path d="M287.7,153.7h0.5v2.8h1.8v0.4h-2.2L287.7,153.7z"/>
	<path d="M292.8,156.5v0.4h-2.4v-3.2h2.3v0.4h-1.8v1h1.6v0.4h-1.6v1L292.8,156.5z"/>
	<path d="M295.4,155.1v0.4l-2.1,0.8v-0.4l1.6-0.6l-1.6-0.6v-0.4L295.4,155.1z"/>
	<path d="M297.5,153.7h0.5v2.8h1.8v0.4h-2.2V153.7z"/>
	<path d="M299.9,155.7c0-0.7,0.6-1.3,1.3-1.3c0.7,0,1.3,0.6,1.3,1.3s-0.6,1.3-1.3,1.3c0,0,0,0,0,0c-0.7,0-1.2-0.5-1.3-1.2
		C299.9,155.7,299.9,155.7,299.9,155.7z M302,155.7c0.1-0.5-0.3-0.9-0.7-0.9c-0.5-0.1-0.9,0.3-0.9,0.7c0,0.1,0,0.1,0,0.2
		c-0.1,0.5,0.3,0.9,0.7,0.9c0.5,0.1,0.9-0.3,0.9-0.7C302,155.8,302,155.7,302,155.7z"/>
	<path d="M304.4,154.4v0.4h-0.1c-0.4,0-0.8,0.3-0.8,0.7c0,0,0,0.1,0,0.1v1.2h-0.4v-2.5h0.4v0.4C303.7,154.6,304,154.4,304.4,154.4z"
		/>
	<path d="M307.1,155.8h-2c0.1,0.4,0.4,0.8,0.9,0.7c0.3,0,0.5-0.1,0.7-0.3l0.2,0.3c-0.5,0.5-1.4,0.5-1.9,0c-0.2-0.2-0.4-0.5-0.4-0.9
		c0-0.7,0.5-1.2,1.2-1.2c0,0,0,0,0.1,0c0.7,0,1.2,0.5,1.2,1.1c0,0,0,0.1,0,0.1C307.1,155.7,307.1,155.8,307.1,155.8z M305.1,155.5
		h1.6c0-0.4-0.4-0.8-0.8-0.8C305.5,154.7,305.1,155.1,305.1,155.5z"/>
	<path d="M311.8,155.5v1.4h-0.5v-1.4c0-0.5-0.2-0.7-0.6-0.7c-0.4,0-0.7,0.3-0.7,0.7c0,0,0,0.1,0,0.1v1.3h-0.5v-1.4
		c0-0.5-0.2-0.7-0.6-0.7c-0.4,0-0.7,0.3-0.7,0.7c0,0,0,0.1,0,0.1v1.3h-0.4v-2.5h0.4v0.4c0.2-0.3,0.5-0.4,0.9-0.4
		c0.3,0,0.7,0.1,0.9,0.4c0.2-0.3,0.6-0.5,0.9-0.4c0.5,0,1,0.3,1,0.9C311.9,155.4,311.8,155.4,311.8,155.5z"/>
	<path d="M313.8,153.7c0-0.2,0.1-0.3,0.3-0.3c0,0,0,0,0,0c0.2,0,0.3,0.1,0.3,0.3c0,0,0,0,0,0c0,0.2-0.1,0.3-0.3,0.3c0,0,0,0,0,0
		C314,154,313.8,153.9,313.8,153.7C313.8,153.7,313.8,153.7,313.8,153.7z M313.9,154.4h0.5v2.5h-0.4L313.9,154.4z"/>
	<path d="M317.7,155.7c0,0.7-0.5,1.2-1.1,1.3c0,0-0.1,0-0.1,0c-0.3,0-0.7-0.1-0.9-0.4v1.3h-0.5v-3.4h0.4v0.4
		c0.2-0.3,0.5-0.4,0.9-0.4c0.7,0,1.2,0.5,1.2,1.1C317.7,155.6,317.7,155.6,317.7,155.7z M317.3,155.7c0-0.5-0.4-0.8-0.8-0.8
		c-0.5,0-0.8,0.4-0.8,0.8s0.4,0.8,0.8,0.8C316.9,156.5,317.3,156.1,317.3,155.7z"/>
	<path d="M318,156.6l0.2-0.4c0.3,0.2,0.6,0.2,0.9,0.2c0.4,0,0.6-0.1,0.6-0.3c0-0.6-1.6-0.1-1.6-1.1c0-0.4,0.4-0.7,1-0.7
		c0.3,0,0.6,0.1,0.9,0.2l-0.2,0.4c-0.2-0.1-0.5-0.2-0.7-0.2c-0.4,0-0.6,0.1-0.6,0.3c0,0.6,1.6,0.1,1.6,1.1c0,0.4-0.4,0.7-1.1,0.7
		C318.7,156.9,318.3,156.8,318,156.6z"/>
	<path d="M322.9,154.4v2.5h-0.4v-0.4c-0.2,0.3-0.5,0.4-0.8,0.4c-0.6,0-1-0.4-1.1-0.9c0,0,0-0.1,0-0.1v-1.4h0.5v1.4
		c0,0.5,0.2,0.7,0.7,0.7c0.4,0,0.7-0.3,0.8-0.7c0,0,0-0.1,0-0.1v-1.3L322.9,154.4z"/>
	<path d="M327.9,155.5v1.4h-0.4v-1.4c0-0.5-0.2-0.7-0.6-0.7c-0.4,0-0.7,0.3-0.7,0.7c0,0,0,0.1,0,0.1v1.3h-0.5v-1.4
		c0-0.5-0.2-0.7-0.6-0.7c-0.4,0-0.7,0.3-0.7,0.7c0,0,0,0.1,0,0.1v1.3h-0.5v-2.5h0.4v0.4c0.2-0.3,0.5-0.4,0.9-0.4
		c0.3,0,0.7,0.1,0.9,0.4c0.2-0.3,0.6-0.5,1-0.4c0.5,0,1,0.3,1,0.8C328,155.3,328,155.4,327.9,155.5z"/>
	<path d="M331.9,154.6l-1.6,0.6l1.6,0.6v0.4l-2.1-0.8v-0.4l2.1-0.8V154.6z"/>
	<path d="M333.6,153h0.4l-1.5,4.4h-0.4L333.6,153z"/>
	<path d="M335.1,154.1H334v-0.4h2.7v0.4h-1.1v2.9h-0.5L335.1,154.1z"/>
	<path d="M337.2,153.7h0.5v3.2h-0.5V153.7z"/>
	<path d="M339.3,154.1h-1.1v-0.4h2.7v0.4h-1.1v2.9h-0.5L339.3,154.1z"/>
	<path d="M341.4,153.7h0.5v2.8h1.8v0.4h-2.2V153.7z"/>
	<path d="M346.5,156.5v0.4h-2.4v-3.2h2.3v0.4h-1.8v1h1.6v0.4h-1.6v1L346.5,156.5z"/>
	<path d="M349.1,155.1v0.4l-2.1,0.8v-0.4l1.6-0.6l-1.6-0.6v-0.4L349.1,155.1z"/>
	<path d="M280,165.8l-1.6,0.6l1.6,0.6v0.4l-2.1-0.8v-0.4l2.1-0.8V165.8z"/>
	<path d="M281.7,164.1h0.4l-1.5,4.4h-0.4L281.7,164.1z"/>
	<path d="M285.2,164.8v3.2h-0.5v-1.4h-1.8v1.4h-0.5v-3.2h0.5v1.4h1.9v-1.4H285.2z"/>
	<path d="M288.5,167.6v0.4h-2.4v-3.2h2.3v0.4h-1.8v1h1.6v0.4h-1.6v1L288.5,167.6z"/>
	<path d="M291.4,167.2h-1.7l-0.4,0.8h-0.5l1.5-3.2h0.5l1.5,3.2h-0.5L291.4,167.2z M291.2,166.9l-0.7-1.6l-0.7,1.6H291.2z"/>
	<path d="M292.7,164.8h1.4c0.9-0.1,1.7,0.6,1.8,1.5c0.1,0.9-0.6,1.7-1.5,1.8c-0.1,0-0.2,0-0.3,0h-1.4V164.8z M294,167.6
		c0.7,0.1,1.3-0.4,1.3-1.1s-0.4-1.3-1.1-1.3c-0.1,0-0.1,0-0.2,0h-0.9v2.4H294z"/>
	<path d="M298.4,166.2v0.4l-2.1,0.8v-0.3l1.6-0.6l-1.6-0.6v-0.4L298.4,166.2z"/>
	<path d="M271.4,175.4l-1.6,0.6l1.6,0.6v0.4l-2.1-0.8v-0.4l2.1-0.8V175.4z"/>
	<path d="M274.9,176.8c0,0.6-0.4,0.9-1.2,0.9h-1.5v-3.2h1.5c0.8,0,1.2,0.3,1.2,0.8c-0.4,0.2-0.6,0.7-0.3,1.1
		C274.5,176.6,274.7,176.7,274.9,176.8L274.9,176.8z M272.6,174.8v1h1c0.5,0,0.7-0.2,0.7-0.5s-0.3-0.5-0.7-0.5L272.6,174.8z
		 M274.5,176.8c0-0.4-0.3-0.6-0.8-0.6h-1.1v1.1h1.1C274.2,177.3,274.5,177.1,274.5,176.8L274.5,176.8z"/>
	<path d="M275.4,176.1c0-1,0.7-1.8,1.7-1.8c1,0,1.8,0.7,1.8,1.7c0,1-0.7,1.8-1.7,1.8c0,0,0,0-0.1,0
		C276.2,177.8,275.5,177.1,275.4,176.1C275.4,176.2,275.4,176.1,275.4,176.1z M278.4,176.1c0-0.7-0.5-1.3-1.2-1.3s-1.3,0.5-1.3,1.2
		c0,0.7,0.5,1.3,1.2,1.3c0,0,0,0,0,0C277.8,177.3,278.4,176.8,278.4,176.1C278.4,176.1,278.4,176.1,278.4,176.1L278.4,176.1z"/>
	<path d="M279.6,174.4h1.4c0.9-0.1,1.7,0.6,1.8,1.5c0.1,0.9-0.6,1.7-1.5,1.8c-0.1,0-0.2,0-0.3,0h-1.4L279.6,174.4z M280.9,177.3
		c0.7,0,1.2-0.5,1.2-1.2s-0.5-1.2-1.2-1.2H280v2.4H280.9z"/>
	<path d="M284.5,176.6v1.1h-0.5v-1.1l-1.3-2.1h0.5l1,1.7l1-1.7h0.5L284.5,176.6z"/>
	<path d="M288.2,175.9v0.4l-2.1,0.8v-0.4l1.6-0.6l-1.6-0.6v-0.3L288.2,175.9z"/>
	<path d="M271.4,186.5l-1.6,0.6l1.6,0.6v0.4l-2.1-0.8V187l2.1-0.8V186.5z"/>
	<path d="M274.9,185.6v3.2h-0.5v-1.4h-1.9v1.4h-0.5v-3.2h0.5v1.4h1.9v-1.4H274.9z"/>
	<path d="M276.7,185.6v3.2h-0.5V186h-0.7v-0.4L276.7,185.6z"/>
	<path d="M279.6,187v0.4l-2.1,0.8v-0.4l1.6-0.6l-1.6-0.6v-0.4L279.6,187z"/>
	<path d="M281.6,185.6h0.3v2.9h1.8v0.3h-2.2V185.6z"/>
	<path d="M284,187.6c0-0.7,0.6-1.2,1.2-1.2s1.2,0.6,1.2,1.2c0,0.7-0.6,1.2-1.2,1.2C284.6,188.9,284.1,188.3,284,187.6
		C284,187.6,284,187.6,284,187.6z M286.2,187.6c0-0.5-0.4-0.9-0.9-0.9c-0.5,0-0.9,0.4-0.9,0.9c0,0.5,0.4,0.9,0.9,0.9
		C285.8,188.5,286.2,188.1,286.2,187.6C286.2,187.6,286.2,187.6,286.2,187.6z"/>
	<path d="M288.4,186.3v0.3h-0.1c-0.4,0-0.8,0.3-0.8,0.8c0,0,0,0.1,0,0.1v1.2h-0.3v-2.4h0.3v0.5C287.7,186.5,288,186.3,288.4,186.3z"
		/>
	<path d="M291.1,187.7h-2c0,0.5,0.5,0.9,1,0.9c0,0,0,0,0,0c0.3,0,0.6-0.1,0.8-0.3l0.2,0.2c-0.2,0.3-0.6,0.4-0.9,0.4
		c-0.7,0-1.2-0.5-1.3-1.1c0,0,0-0.1,0-0.1c0-0.7,0.5-1.2,1.1-1.2c0,0,0,0,0.1,0c0.6,0,1.2,0.5,1.2,1.1c0,0,0,0.1,0,0.1L291.1,187.7z
		 M289.1,187.4h1.7c-0.1-0.5-0.5-0.8-1-0.8C289.5,186.7,289.1,187,289.1,187.4z"/>
	<path d="M295.8,187.4v1.4h-0.3v-1.4c0-0.5-0.3-0.8-0.7-0.8c-0.4,0-0.8,0.3-0.8,0.7c0,0,0,0.1,0,0.1v1.3h-0.3v-1.4
		c0-0.5-0.3-0.8-0.7-0.8c-0.4,0-0.8,0.3-0.8,0.8c0,0,0,0.1,0,0.1v1.3h-0.3v-2.4h0.3v0.4c0.2-0.3,0.5-0.5,0.9-0.5
		c0.4,0,0.7,0.2,0.9,0.5c0.2-0.3,0.6-0.6,1-0.5c0.5,0,0.9,0.4,1,0.9C295.8,187.3,295.8,187.3,295.8,187.4z"/>
	<path d="M297.8,185.6c0-0.1,0.1-0.2,0.2-0.2c0.1,0,0.2,0.1,0.2,0.2c0,0,0,0,0,0c0,0.1-0.1,0.2-0.2,0.2S297.8,185.7,297.8,185.6z
		 M297.9,186.4h0.3v2.4h-0.3L297.9,186.4z"/>
	<path d="M301.6,187.6c0,0.7-0.5,1.2-1.1,1.2c0,0-0.1,0-0.1,0c-0.4,0-0.7-0.2-0.9-0.5v1.4h-0.3v-3.3h0.3v0.5
		c0.2-0.3,0.6-0.5,0.9-0.5C301.1,186.3,301.6,186.8,301.6,187.6C301.6,187.5,301.6,187.5,301.6,187.6z M301.3,187.6
		c0-0.5-0.4-0.9-0.9-0.9s-0.9,0.4-0.9,0.9s0.4,0.9,0.9,0.9S301.3,188.1,301.3,187.6L301.3,187.6z"/>
	<path d="M301.9,188.5l0.1-0.3c0.3,0.2,0.6,0.3,0.9,0.3c0.5,0,0.6-0.2,0.6-0.4c0-0.6-1.6-0.1-1.6-1.1c0-0.4,0.4-0.7,1-0.7
		c0.3,0,0.6,0.1,0.9,0.2l-0.1,0.3c-0.2-0.1-0.5-0.2-0.7-0.2c-0.4,0-0.6,0.2-0.6,0.4c0,0.7,1.6,0.2,1.6,1.1c0,0.4-0.4,0.7-1,0.7
		C302.6,188.8,302.2,188.7,301.9,188.5z"/>
	<path d="M306.8,186.4v2.4h-0.3v-0.4c-0.2,0.3-0.5,0.5-0.9,0.5c-0.5,0-1-0.4-1-0.9c0-0.1,0-0.1,0-0.2v-1.4h0.3v1.4
		c0,0.5,0.3,0.8,0.7,0.8c0.4,0,0.8-0.3,0.8-0.7c0,0,0-0.1,0-0.1v-1.3H306.8z"/>
	<path d="M311.7,187.4v1.4h-0.3v-1.4c0-0.5-0.3-0.8-0.7-0.8c-0.4,0-0.8,0.3-0.8,0.7c0,0,0,0.1,0,0.1v1.3h-0.3v-1.4
		c0-0.5-0.3-0.8-0.7-0.8c-0.4,0-0.8,0.3-0.8,0.8c0,0,0,0.1,0,0.1v1.3h-0.3v-2.4h0.3v0.4c0.2-0.3,0.5-0.5,0.9-0.5
		c0.4,0,0.7,0.2,0.9,0.5c0.2-0.4,0.6-0.6,1-0.5c0.5,0,0.9,0.4,0.9,0.9C311.7,187.3,311.7,187.3,311.7,187.4z"/>
	<path d="M316,185.4v3.4h-0.3v-0.5c-0.2,0.3-0.6,0.5-0.9,0.5c-0.7-0.1-1.2-0.7-1.1-1.4c0.1-0.6,0.5-1.1,1.1-1.1
		c0.4,0,0.7,0.2,0.9,0.5v-1.5H316z M315.7,187.6c0-0.5-0.4-0.9-0.9-0.9c-0.5,0-0.9,0.4-0.9,0.9c0,0.5,0.4,0.9,0.9,0.9
		C315.3,188.5,315.7,188.1,315.7,187.6C315.7,187.6,315.7,187.6,315.7,187.6z"/>
	<path d="M316.7,187.6c0-0.7,0.6-1.2,1.2-1.2s1.2,0.6,1.2,1.2s-0.6,1.2-1.2,1.2C317.3,188.9,316.7,188.3,316.7,187.6
		C316.7,187.6,316.7,187.6,316.7,187.6z M318.9,187.6c0-0.5-0.4-0.9-0.9-0.9c-0.5,0-0.9,0.4-0.9,0.9c0,0.5,0.4,0.9,0.9,0.9
		C318.4,188.5,318.8,188.1,318.9,187.6C318.9,187.6,318.9,187.6,318.9,187.6z"/>
	<path d="M319.9,185.4h0.3v3.4h-0.3V185.4z"/>
	<path d="M320.9,187.6c0-0.7,0.6-1.2,1.2-1.2s1.2,0.6,1.2,1.2c0,0.7-0.6,1.2-1.2,1.2C321.4,188.9,320.9,188.3,320.9,187.6
		C320.9,187.6,320.9,187.6,320.9,187.6z M323,187.6c0-0.5-0.4-0.9-0.9-0.9c-0.5,0-0.9,0.4-0.9,0.9c0,0.5,0.4,0.9,0.9,0.9
		C322.6,188.5,323,188.1,323,187.6C323,187.6,323,187.6,323,187.6L323,187.6z"/>
	<path d="M325.2,186.3v0.3h-0.1c-0.4,0-0.8,0.3-0.8,0.8c0,0,0,0.1,0,0.1v1.2H324v-2.4h0.3v0.5C324.5,186.5,324.9,186.3,325.2,186.3z
		"/>
	<path d="M326.7,188.5l0.1-0.3c0.3,0.2,0.6,0.3,0.9,0.3c0.5,0,0.6-0.2,0.6-0.4c0-0.6-1.6-0.1-1.6-1.1c0-0.4,0.3-0.7,1-0.7
		c0.3,0,0.6,0.1,0.9,0.2l-0.1,0.3c-0.2-0.1-0.5-0.2-0.7-0.2c-0.4,0-0.6,0.2-0.6,0.4c0,0.7,1.6,0.2,1.6,1.1c0,0.4-0.4,0.7-1,0.7
		C327.4,188.9,327,188.7,326.7,188.5z"/>
	<path d="M329.3,185.6c0-0.1,0.1-0.2,0.2-0.2c0.1,0,0.2,0.1,0.2,0.2c0,0,0,0,0,0c0,0.1-0.1,0.2-0.2,0.2S329.3,185.7,329.3,185.6z
		 M329.3,186.4h0.3v2.4h-0.3V186.4z"/>
	<path d="M331.9,188.6c-0.1,0.1-0.3,0.2-0.5,0.2c-0.4,0-0.7-0.2-0.7-0.6c0,0,0-0.1,0-0.1v-1.5h-0.4v-0.3h0.4v-0.5h0.3v0.5h0.7v0.3
		h-0.7v1.5c0,0.2,0.1,0.4,0.3,0.4c0,0,0.1,0,0.1,0c0.1,0,0.3,0,0.4-0.1L331.9,188.6z"/>
	<path d="M335.5,187.3v1.5h-0.3v-0.4c-0.2,0.3-0.5,0.4-0.8,0.4c-0.5,0-0.9-0.3-0.9-0.7s0.2-0.7,0.9-0.7h0.8v-0.1
		c0-0.3-0.2-0.6-0.5-0.7c0,0-0.1,0-0.1,0c-0.3,0-0.6,0.1-0.8,0.3l-0.1-0.2c0.3-0.2,0.6-0.3,1-0.3c0.5-0.1,0.9,0.3,1,0.7
		C335.5,187.2,335.5,187.2,335.5,187.3z M335.2,188.1v-0.4h-0.8c-0.5,0-0.6,0.2-0.6,0.4s0.2,0.5,0.6,0.5
		C334.8,188.6,335.1,188.4,335.2,188.1L335.2,188.1z"/>
	<path d="M340.5,187.4v1.4h-0.3v-1.4c0-0.5-0.3-0.8-0.7-0.8c-0.4,0-0.8,0.3-0.8,0.8c0,0,0,0.1,0,0.1v1.3h-0.3v-1.4
		c0-0.5-0.3-0.8-0.7-0.8c-0.4,0-0.8,0.3-0.8,0.8c0,0,0,0.1,0,0.1v1.3h-0.3v-2.4h0.3v0.4c0.2-0.3,0.5-0.5,0.9-0.5
		c0.4,0,0.7,0.2,0.9,0.5c0.2-0.4,0.6-0.6,1-0.5c0.5,0,0.9,0.4,1,0.9C340.5,187.3,340.5,187.3,340.5,187.4z"/>
	<path d="M343.5,187.7h-2c0,0.5,0.5,0.9,1,0.9c0,0,0,0,0,0c0.3,0,0.6-0.1,0.8-0.3l0.2,0.2c-0.2,0.3-0.6,0.4-0.9,0.4
		c-0.7,0-1.2-0.5-1.3-1.1c0,0,0-0.1,0-0.1c0-0.7,0.5-1.2,1.2-1.2s1.2,0.5,1.2,1.2C343.6,187.6,343.5,187.6,343.5,187.7z
		 M341.5,187.4h1.7c-0.1-0.5-0.5-0.8-1-0.8C341.8,186.7,341.5,187,341.5,187.4z"/>
	<path d="M345.4,188.6c-0.1,0.1-0.3,0.2-0.5,0.2c-0.4,0-0.7-0.2-0.7-0.6c0,0,0-0.1,0-0.1v-1.5h-0.4v-0.3h0.4v-0.5h0.3v0.5h0.7v0.3
		h-0.7v1.5c0,0.2,0.1,0.4,0.3,0.4c0,0,0.1,0,0.1,0c0.1,0,0.3,0,0.4-0.1L345.4,188.6z"/>
	<path d="M346.4,188.6c0,0.1,0,0.2-0.1,0.3l-0.2,0.6h-0.2l0.2-0.7c-0.1,0-0.2-0.1-0.2-0.2c0-0.1,0.1-0.2,0.2-0.2
		C346.2,188.3,346.4,188.4,346.4,188.6C346.4,188.6,346.4,188.6,346.4,188.6z"/>
	<path d="M348,187.6c0-0.7,0.5-1.2,1.2-1.2c0,0,0.1,0,0.1,0c0.4,0,0.8,0.2,1,0.5L350,187c-0.2-0.2-0.4-0.4-0.7-0.4
		c-0.5,0.2-0.8,0.7-0.6,1.3c0.1,0.3,0.3,0.5,0.6,0.6c0.3,0,0.5-0.1,0.7-0.4l0.2,0.2c-0.2,0.3-0.6,0.5-1,0.5
		C348.6,188.9,348,188.3,348,187.6C348,187.6,348,187.6,348,187.6z"/>
	<path d="M350.6,187.6c0-0.7,0.6-1.2,1.2-1.2s1.2,0.6,1.2,1.2c0,0.7-0.6,1.2-1.2,1.2C351.2,188.9,350.6,188.3,350.6,187.6
		C350.6,187.6,350.6,187.6,350.6,187.6z M352.7,187.6c0.1-0.5-0.3-0.9-0.8-1c0,0-0.1,0-0.1,0c-0.5,0.2-0.8,0.7-0.6,1.3
		c0.1,0.3,0.3,0.5,0.6,0.6C352.3,188.5,352.7,188.1,352.7,187.6C352.7,187.6,352.7,187.6,352.7,187.6z"/>
	<path d="M356,187.4v1.4h-0.3v-1.4c0.1-0.4-0.2-0.7-0.6-0.8c-0.1,0-0.1,0-0.2,0c-0.4,0-0.8,0.3-0.9,0.7c0,0,0,0.1,0,0.1v1.3h-0.3
		v-2.4h0.3v0.4c0.2-0.3,0.6-0.5,0.9-0.5c0.5,0,1,0.4,1,0.9C356,187.3,356,187.3,356,187.4z"/>
	<path d="M356.5,188.5l0.1-0.3c0.3,0.2,0.6,0.3,0.9,0.3c0.5,0,0.6-0.2,0.6-0.4c0-0.6-1.6-0.1-1.6-1.1c0-0.4,0.3-0.7,1-0.7
		c0.3,0,0.6,0.1,0.9,0.2l-0.1,0.3c-0.2-0.1-0.5-0.2-0.7-0.2c-0.4,0-0.6,0.2-0.6,0.4c0,0.7,1.6,0.2,1.6,1.1c0,0.4-0.4,0.7-1,0.7
		C357.2,188.9,356.8,188.7,356.5,188.5z"/>
	<path d="M361.3,187.7h-2c0,0.5,0.5,0.9,1,0.9c0,0,0,0,0,0c0.3,0,0.6-0.1,0.8-0.3l0.2,0.2c-0.2,0.3-0.6,0.4-0.9,0.4
		c-0.7,0-1.2-0.5-1.3-1.1c0,0,0-0.1,0-0.1c0-0.7,0.5-1.2,1.1-1.2c0,0,0,0,0.1,0c0.6,0,1.2,0.5,1.2,1.1c0,0,0,0.1,0,0.1L361.3,187.7z
		 M359.3,187.4h1.7c-0.1-0.5-0.5-0.8-1-0.8C359.6,186.7,359.3,187,359.3,187.4L359.3,187.4z"/>
	<path d="M361.7,187.6c0-0.7,0.5-1.2,1.2-1.2c0,0,0.1,0,0.1,0c0.4,0,0.8,0.2,1,0.5l-0.2,0.2c-0.2-0.2-0.4-0.4-0.7-0.4
		c-0.5,0.2-0.8,0.7-0.6,1.3c0.1,0.3,0.3,0.5,0.6,0.6c0.3,0,0.5-0.1,0.7-0.4l0.2,0.2c-0.2,0.3-0.6,0.5-1,0.5
		C362.3,188.9,361.7,188.3,361.7,187.6C361.7,187.6,361.7,187.6,361.7,187.6z"/>
	<path d="M365.9,188.6c-0.1,0.1-0.3,0.2-0.5,0.2c-0.4,0-0.7-0.2-0.7-0.6c0,0,0-0.1,0-0.1v-1.5h-0.4v-0.3h0.4v-0.5h0.3v0.5h0.7v0.3
		h-0.7v1.5c0,0.2,0.1,0.4,0.3,0.4c0,0,0.1,0,0.1,0c0.1,0,0.3,0,0.4-0.1L365.9,188.6z"/>
	<path d="M368.5,187.7h-2c0,0.5,0.5,0.9,1,0.9c0,0,0,0,0,0c0.3,0,0.6-0.1,0.8-0.3l0.2,0.2c-0.2,0.3-0.6,0.4-0.9,0.4
		c-0.7,0-1.2-0.5-1.3-1.1c0,0,0-0.1,0-0.1c0-0.7,0.5-1.2,1.2-1.2s1.2,0.5,1.2,1.2C368.6,187.6,368.5,187.6,368.5,187.7z
		 M366.5,187.4h1.7c-0.1-0.5-0.5-0.8-1-0.8C366.9,186.7,366.5,187,366.5,187.4z"/>
	<path d="M370.5,188.6c-0.1,0.1-0.3,0.2-0.5,0.2c-0.4,0-0.7-0.2-0.7-0.6c0,0,0-0.1,0-0.1v-1.5h-0.4v-0.3h0.4v-0.5h0.3v0.5h0.7v0.3
		h-0.7v1.5c0,0.2,0.1,0.4,0.3,0.4c0,0,0.1,0,0.1,0c0.1,0,0.3,0,0.4-0.1L370.5,188.6z"/>
	<path d="M373.2,186.4v2.4h-0.3v-0.4c-0.2,0.3-0.5,0.5-0.9,0.5c-0.6,0-1-0.4-1-1c0,0,0,0,0-0.1v-1.4h0.3v1.4c0,0.5,0.3,0.8,0.7,0.8
		c0.4,0,0.8-0.3,0.8-0.7c0,0,0-0.1,0-0.1v-1.3H373.2z"/>
	<path d="M376.3,187.7h-2c0,0.5,0.4,0.9,0.9,0.9c0,0,0,0,0.1,0c0.3,0,0.6-0.1,0.7-0.3l0.2,0.2c-0.5,0.5-1.3,0.5-1.8,0
		c-0.2-0.2-0.4-0.6-0.4-0.9c0-0.6,0.5-1.2,1.1-1.2c0,0,0.1,0,0.1,0c0.6,0,1.2,0.5,1.2,1.1c0,0,0,0.1,0,0.1L376.3,187.7z
		 M374.3,187.4h1.7c-0.1-0.5-0.5-0.8-1-0.8C374.7,186.7,374.3,187,374.3,187.4z"/>
	<path d="M378.2,186.3v0.3h-0.1c-0.4,0-0.8,0.3-0.8,0.8c0,0,0,0.1,0,0.1v1.2h-0.4v-2.4h0.3v0.5C377.4,186.5,377.8,186.3,378.2,186.3
		z"/>
	<path d="M271.3,192.8v1.5H271V194c-0.2,0.3-0.5,0.4-0.8,0.4c-0.5,0-0.9-0.3-0.9-0.7s0.2-0.7,0.9-0.7h0.7v-0.1
		c0-0.4-0.2-0.6-0.7-0.6c-0.3,0-0.6,0.1-0.8,0.3l-0.1-0.2c0.3-0.2,0.6-0.3,1-0.3c0.5-0.1,0.9,0.2,1,0.7
		C271.3,192.7,271.3,192.8,271.3,192.8z M271,193.6v-0.4h-0.8c-0.5,0-0.6,0.2-0.6,0.4s0.2,0.5,0.6,0.5
		C270.5,194.1,270.8,193.9,271,193.6L271,193.6z"/>
	<path d="M274.4,190.9v3.4h-0.3v-0.5c-0.2,0.3-0.6,0.5-1,0.5c-0.7-0.1-1.2-0.7-1.1-1.4c0.1-0.6,0.5-1.1,1.1-1.1
		c0.4,0,0.7,0.2,0.9,0.5v-1.5H274.4z M274.1,193.1c0-0.5-0.4-0.9-0.9-0.9c-0.5,0-0.9,0.4-0.9,0.9c0,0.5,0.4,0.9,0.9,0.9
		C273.7,194.1,274.1,193.7,274.1,193.1C274.1,193.2,274.1,193.2,274.1,193.1L274.1,193.1z"/>
	<path d="M275.3,191.1c0-0.1,0.1-0.2,0.2-0.2c0.1,0,0.2,0.1,0.2,0.2c0,0,0,0,0,0c0,0.1-0.2,0.2-0.3,0.2
		C275.4,191.3,275.3,191.2,275.3,191.1z M275.3,191.9h0.3v2.4h-0.3V191.9z"/>
	<path d="M279.1,193.1c0,0.7-0.5,1.2-1.1,1.2c0,0-0.1,0-0.1,0c-0.4,0-0.7-0.2-0.9-0.5v1.4h-0.3v-3.3h0.3v0.5
		c0.2-0.3,0.6-0.5,0.9-0.5C278.5,191.9,279.1,192.4,279.1,193.1C279.1,193.1,279.1,193.1,279.1,193.1z M278.7,193.1
		c0-0.5-0.4-0.9-0.9-0.9s-0.9,0.4-0.9,0.9s0.4,0.9,0.9,0.9S278.7,193.6,278.7,193.1z"/>
	<path d="M279.7,191.1c0-0.1,0.1-0.2,0.2-0.2c0.1,0,0.2,0.1,0.2,0.2c0,0,0,0,0,0c0,0.1-0.1,0.2-0.2,0.2S279.7,191.3,279.7,191.1z
		 M279.7,191.9h0.3v2.4h-0.3V191.9z"/>
	<path d="M280.6,194.1l0.1-0.3c0.3,0.2,0.6,0.3,0.9,0.3c0.5,0,0.6-0.2,0.6-0.4c0-0.6-1.6-0.1-1.6-1.1c0-0.4,0.3-0.7,1-0.7
		c0.3,0,0.6,0.1,0.9,0.2l-0.1,0.3c-0.2-0.1-0.5-0.2-0.7-0.2c-0.4,0-0.6,0.2-0.6,0.4c0,0.7,1.6,0.2,1.6,1.1c0,0.4-0.4,0.7-1,0.7
		C281.3,194.4,280.9,194.3,280.6,194.1z"/>
	<path d="M283,193.1c0-0.7,0.5-1.2,1.2-1.2c0,0,0.1,0,0.1,0c0.4,0,0.8,0.2,1,0.5l-0.2,0.2c-0.2-0.2-0.4-0.4-0.7-0.4
		c-0.5,0.2-0.8,0.7-0.6,1.3c0.1,0.3,0.3,0.5,0.6,0.6c0.3,0,0.5-0.1,0.7-0.4l0.2,0.2c-0.2,0.3-0.6,0.5-1,0.5
		C283.6,194.4,283,193.9,283,193.1C283,193.2,283,193.2,283,193.1z"/>
	<path d="M285.8,191.1c0-0.1,0.1-0.2,0.2-0.2c0.1,0,0.2,0.1,0.2,0.2c0,0,0,0,0,0c0,0.1-0.1,0.2-0.2,0.2S285.8,191.3,285.8,191.1z
		 M285.9,191.9h0.3v2.4h-0.3V191.9z"/>
	<path d="M289.4,192.9v1.4H289V193c0.1-0.4-0.2-0.7-0.6-0.8c-0.1,0-0.1,0-0.2,0c-0.4,0-0.8,0.3-0.9,0.7c0,0,0,0.1,0,0.1v1.3h-0.3
		v-2.4h0.3v0.4c0.2-0.3,0.6-0.5,0.9-0.5c0.5,0,1,0.4,1,0.9C289.4,192.8,289.4,192.9,289.4,192.9z"/>
	<path d="M292.5,191.9v2.2c0.1,0.6-0.3,1.1-0.9,1.2c-0.1,0-0.2,0-0.3,0c-0.4,0-0.8-0.1-1.1-0.4l0.2-0.2c0.3,0.2,0.6,0.4,1,0.3
		c0.6,0,0.9-0.3,0.9-0.9v-0.3c-0.2,0.3-0.6,0.5-1,0.5c-0.7,0.1-1.2-0.4-1.3-1.1c-0.1-0.7,0.4-1.2,1.1-1.3c0.1,0,0.1,0,0.2,0
		c0.4,0,0.8,0.2,1,0.5v-0.5L292.5,191.9z M292.2,193.1c0-0.5-0.4-0.9-0.9-1s-0.9,0.4-1,0.9s0.4,0.9,0.9,1c0,0,0,0,0,0
		C291.7,194,292.2,193.7,292.2,193.1C292.2,193.1,292.2,193.1,292.2,193.1L292.2,193.1z"/>
	<path d="M296.8,193.2h-2c0,0.5,0.4,0.9,0.9,0.8c0,0,0,0,0.1,0c0.3,0,0.6-0.1,0.7-0.3l0.2,0.2c-0.5,0.5-1.3,0.5-1.8,0
		c-0.2-0.2-0.4-0.6-0.4-0.9c0-0.6,0.5-1.2,1.1-1.2c0,0,0.1,0,0.1,0c0.6,0,1.2,0.5,1.2,1.1c0,0,0,0.1,0,0.1L296.8,193.2z M294.8,193
		h1.7c-0.1-0.5-0.5-0.8-1-0.8C295.1,192.3,294.8,192.6,294.8,193z"/>
	<path d="M297.4,190.9h0.3v3.4h-0.3V190.9z"/>
	<path d="M298.6,191.1c0-0.1,0.1-0.2,0.2-0.2c0.1,0,0.2,0.1,0.2,0.2c0,0,0,0,0,0c0,0.1-0.2,0.2-0.3,0.2
		C298.7,191.3,298.6,191.2,298.6,191.1z M298.7,191.9h0.3v2.4h-0.3V191.9z"/>
	<path d="M301.2,194.2c-0.1,0.1-0.3,0.2-0.5,0.2c-0.4,0-0.7-0.2-0.7-0.6c0,0,0-0.1,0-0.1v-1.5h-0.4v-0.3h0.4v-0.5h0.3v0.5h0.7v0.3
		h-0.7v1.5c0,0.2,0.1,0.4,0.3,0.4c0,0,0.1,0,0.1,0c0.1,0,0.3,0,0.4-0.1L301.2,194.2z"/>
	<path d="M302.1,194.1c0,0.1,0,0.2-0.1,0.3l-0.2,0.6h-0.2l0.2-0.7c-0.1,0-0.2-0.1-0.2-0.2c0-0.1,0.1-0.2,0.2-0.2
		C302,193.8,302.1,193.9,302.1,194.1C302.1,194.1,302.1,194.1,302.1,194.1z"/>
	<path d="M303.7,194.1l0.1-0.3c0.3,0.2,0.6,0.3,0.9,0.3c0.5,0,0.6-0.2,0.6-0.4c0-0.6-1.6-0.1-1.6-1.1c0-0.4,0.3-0.7,1-0.7
		c0.3,0,0.6,0.1,0.9,0.2l-0.1,0.3c-0.2-0.1-0.5-0.2-0.7-0.2c-0.4,0-0.6,0.2-0.6,0.4c0,0.7,1.6,0.2,1.6,1.1c0,0.4-0.4,0.7-1,0.7
		C304.4,194.4,304,194.3,303.7,194.1z"/>
	<path d="M308.5,193.2h-2c0,0.5,0.5,0.9,1,0.8c0,0,0,0,0,0c0.3,0,0.6-0.1,0.8-0.3l0.2,0.2c-0.5,0.5-1.3,0.5-1.8,0
		c-0.2-0.2-0.4-0.6-0.4-0.9c0-0.6,0.5-1.2,1.1-1.2c0,0,0.1,0,0.1,0c0.6,0,1.2,0.5,1.2,1.1c0,0,0,0.1,0,0.1L308.5,193.2z M306.5,193
		h1.7c-0.1-0.5-0.5-0.8-1-0.8C306.8,192.3,306.5,192.6,306.5,193z"/>
	<path d="M311.4,190.9v3.4H311v-0.5c-0.2,0.3-0.6,0.5-0.9,0.5c-0.7-0.1-1.2-0.7-1.1-1.4c0.1-0.6,0.5-1.1,1.1-1.1
		c0.4,0,0.7,0.2,0.9,0.5v-1.5H311.4z M311,193.1c0-0.5-0.4-0.9-0.9-0.9c-0.5,0-0.9,0.4-0.9,0.9c0,0.5,0.4,0.9,0.9,0.9
		C310.6,194.1,311,193.7,311,193.1C311,193.2,311,193.2,311,193.1z"/>
	<path d="M315.7,190.9v3.4h-0.3v-0.5c-0.2,0.3-0.6,0.5-0.9,0.5c-0.7-0.1-1.2-0.7-1.1-1.4c0.1-0.6,0.5-1.1,1.1-1.1
		c0.4,0,0.7,0.2,0.9,0.5v-1.5H315.7z M315.4,193.1c0-0.5-0.4-0.9-0.9-0.9c-0.5,0-0.9,0.4-0.9,0.9c0,0.5,0.4,0.9,0.9,0.9
		C315,194.1,315.4,193.7,315.4,193.1C315.4,193.2,315.4,193.2,315.4,193.1z"/>
	<path d="M316.5,191.1c0-0.1,0.1-0.2,0.2-0.2c0.1,0,0.2,0.1,0.2,0.2c0,0.1-0.1,0.2-0.2,0.2l0,0C316.7,191.4,316.6,191.3,316.5,191.1
		C316.5,191.2,316.5,191.2,316.5,191.1z M316.6,191.9h0.3v2.4h-0.3L316.6,191.9z"/>
	<path d="M319.7,192.8v1.5h-0.3V194c-0.2,0.3-0.5,0.4-0.8,0.4c-0.5,0-0.9-0.3-0.9-0.7s0.2-0.7,0.9-0.7h0.8v-0.1
		c0-0.3-0.2-0.6-0.5-0.7c0,0-0.1,0-0.1,0c-0.3,0-0.6,0.1-0.8,0.3l-0.1-0.2c0.3-0.2,0.6-0.3,1-0.3c0.5-0.1,0.9,0.3,1,0.7
		C319.7,192.7,319.7,192.8,319.7,192.8z M319.4,193.6v-0.4h-0.8c-0.5,0-0.6,0.2-0.6,0.4s0.2,0.5,0.6,0.5
		C318.9,194.2,319.3,193.9,319.4,193.6z"/>
	<path d="M324.6,192.9v1.4h-0.3V193c0-0.5-0.3-0.8-0.7-0.8c-0.4,0-0.8,0.3-0.8,0.8c0,0,0,0.1,0,0.1v1.3h-0.3V193
		c0-0.5-0.3-0.8-0.7-0.8c-0.4,0-0.8,0.3-0.8,0.8c0,0,0,0.1,0,0.1v1.3h-0.3v-2.4h0.3v0.4c0.2-0.3,0.5-0.5,0.9-0.5
		c0.4,0,0.7,0.2,0.9,0.5c0.2-0.4,0.6-0.6,1-0.5c0.5,0,0.9,0.4,0.9,0.9C324.6,192.9,324.6,192.9,324.6,192.9z"/>
	<path d="M327.5,192.1l-1.6,0.6l1.6,0.6v0.4l-2.1-0.8v-0.4l2.1-0.8V192.1z"/>
	<path d="M329.2,190.5h0.4l-1.5,4.4h-0.4L329.2,190.5z"/>
	<path d="M332.7,191.1v3.2h-0.5v-1.4h-1.9v1.4h-0.5v-3.2h0.5v1.4h1.9v-1.4H332.7z"/>
	<path d="M334.4,191.1v3.2h-0.4v-2.8h-0.7v-0.4H334.4z"/>
	<path d="M337.2,192.5v0.4l-2.1,0.8v-0.4l1.7-0.6l-1.7-0.6v-0.4L337.2,192.5z"/>
	<path d="M271.4,203.2l-1.6,0.6l1.6,0.6v0.4l-2.1-0.8v-0.4l2.1-0.8V203.2z"/>
	<path d="M274.8,203.4c0,0.7-0.5,1.1-1.4,1.1h-0.8v1h-0.5v-3.2h1.3C274.3,202.2,274.8,202.7,274.8,203.4z M274.3,203.4
		c0-0.5-0.3-0.7-0.9-0.7h-0.8v1.4h0.8C274,204.1,274.3,203.8,274.3,203.4z"/>
	<path d="M277.4,203.7v0.4l-2.1,0.8v-0.4l1.6-0.6l-1.6-0.6v-0.4L277.4,203.7z"/>
	<path d="M281.4,203.2l-1.6,0.6l1.6,0.6v0.4l-2.1-0.8v-0.4l2.1-0.8V203.2z"/>
	<path d="M282.2,202.2h0.5v3.2h-0.5V202.2z"/>
	<path d="M286.6,205.5v-2.4l-1.2,2h-0.2l-1.2-2v2.4h-0.4v-3.2h0.4l1.4,2.3l1.3-2.3h0.4v3.2L286.6,205.5z"/>
	<path d="M290.3,203.8h0.5v1.2c-0.4,0.3-0.8,0.4-1.2,0.4c-0.9,0-1.6-0.8-1.6-1.7s0.8-1.6,1.7-1.6c0.4,0,0.8,0.2,1.1,0.5l-0.3,0.3
		c-0.2-0.3-0.6-0.4-0.9-0.4c-0.7,0-1.2,0.6-1.2,1.2s0.6,1.2,1.2,1.2c0.3,0,0.5-0.1,0.8-0.2L290.3,203.8z"/>
	<path d="M292.6,205.1l0.2-0.4c0.3,0.2,0.7,0.4,1.1,0.4c0.6,0,0.8-0.2,0.8-0.5c0-0.8-2-0.3-2-1.5c0-0.5,0.4-0.9,1.2-0.9
		c0.4,0,0.7,0.1,1,0.3l-0.2,0.4c-0.3-0.2-0.6-0.3-0.9-0.3c-0.5,0-0.8,0.2-0.8,0.5c0,0.8,2,0.3,2,1.5c0,0.5-0.4,0.9-1.3,0.9
		C293.4,205.5,292.9,205.4,292.6,205.1z"/>
	<path d="M297.9,205.5l-0.7-1h-1v1h-0.5v-3.2h1.3c0.9,0,1.4,0.4,1.4,1.1c0,0.5-0.3,0.9-0.7,1l0.8,1.1L297.9,205.5z M297.9,203.4
		c0-0.5-0.3-0.7-0.9-0.7h-0.8v1.4h0.8C297.6,204.1,297.9,203.8,297.9,203.4z"/>
	<path d="M298.8,203.9c0-0.9,0.7-1.6,1.6-1.7c0,0,0.1,0,0.1,0c0.5,0,0.9,0.2,1.2,0.5l-0.3,0.3c-0.2-0.3-0.6-0.4-0.9-0.4
		c-0.7,0-1.2,0.6-1.2,1.2s0.6,1.2,1.2,1.2c0.3,0,0.7-0.1,0.9-0.4l0.3,0.3c-0.3,0.3-0.8,0.5-1.2,0.5c-0.9,0-1.7-0.7-1.7-1.6
		C298.8,203.9,298.8,203.9,298.8,203.9z"/>
	<path d="M302.3,203.1h2.1v0.4h-2.1V203.1z M302.3,204.2h2.1v0.4h-2.1V204.2z"/>
	<path d="M306.2,202.2h0.4v1.2h-0.3L306.2,202.2z M307,202.2h0.4v1.2h-0.3L307,202.2z"/>
	<path d="M308.2,202.2h0.5v2.9h1.8v0.4h-2.2V202.2z"/>
	<path d="M310.6,204.2c0-0.7,0.6-1.3,1.3-1.3c0.7,0,1.3,0.6,1.3,1.3s-0.6,1.3-1.3,1.3c0,0,0,0,0,0c-0.7,0-1.2-0.5-1.3-1.2
		C310.6,204.3,310.6,204.3,310.6,204.2z M312.7,204.2c0.1-0.5-0.3-0.9-0.7-0.9c-0.5-0.1-0.9,0.3-0.9,0.7c0,0.1,0,0.1,0,0.2
		c-0.1,0.5,0.3,0.9,0.7,0.9c0.5,0.1,0.9-0.3,0.9-0.7C312.7,204.4,312.7,204.3,312.7,204.2z"/>
	<path d="M315.1,203v0.4H315c-0.4,0-0.8,0.3-0.8,0.7c0,0,0,0.1,0,0.1v1.2h-0.4V203h0.4v0.4C314.4,203.1,314.8,203,315.1,203z"/>
	<path d="M317.9,204.4h-2c0.1,0.4,0.4,0.8,0.9,0.7c0.3,0,0.5-0.1,0.7-0.3l0.2,0.3c-0.5,0.5-1.4,0.5-1.9,0c-0.2-0.2-0.4-0.5-0.4-0.9
		c0-0.7,0.5-1.2,1.2-1.2c0,0,0,0,0.1,0c0.7,0,1.2,0.5,1.2,1.1c0,0,0,0.1,0,0.1V204.4z M315.9,204.1h1.6c-0.1-0.4-0.5-0.7-0.9-0.7
		C316.2,203.5,315.9,203.7,315.9,204.1z"/>
	<path d="M322.6,204.1v1.4h-0.4v-1.4c0-0.5-0.2-0.7-0.6-0.7s-0.7,0.3-0.7,0.8v1.3h-0.4v-1.4c0-0.5-0.2-0.7-0.6-0.7
		c-0.4,0-0.7,0.3-0.7,0.7c0,0,0,0.1,0,0.1v1.3h-0.4V203h0.5v0.4c0.2-0.3,0.5-0.4,0.8-0.4c0.4,0,0.7,0.2,0.9,0.5
		c0.2-0.3,0.6-0.5,0.9-0.5c0.6,0,1,0.5,1,1C322.6,204,322.6,204.1,322.6,204.1z"/>
	<path d="M324.5,202.3c0-0.2,0.1-0.3,0.3-0.3c0,0,0,0,0,0c0.2,0,0.3,0.1,0.3,0.3c0,0.2-0.1,0.3-0.3,0.3
		C324.7,202.6,324.6,202.4,324.5,202.3C324.6,202.3,324.6,202.3,324.5,202.3z M324.6,203h0.5v2.4h-0.5V203z"/>
	<path d="M328.5,204.2c0,0.7-0.5,1.2-1.1,1.3c0,0-0.1,0-0.1,0c-0.3,0-0.7-0.1-0.9-0.4v1.3h-0.4V203h0.4v0.4c0.2-0.3,0.5-0.4,0.9-0.4
		c0.7,0,1.2,0.5,1.2,1.1C328.5,204.2,328.5,204.2,328.5,204.2z M328,204.2c0-0.5-0.4-0.8-0.9-0.8c-0.5,0-0.8,0.4-0.8,0.9
		c0,0.4,0.4,0.8,0.8,0.8C327.6,205.1,328,204.8,328,204.2C328,204.3,328,204.3,328,204.2z"/>
	<path d="M328.8,205.2l0.2-0.4c0.3,0.2,0.6,0.3,0.9,0.3c0.4,0,0.6-0.1,0.6-0.3c0-0.6-1.6-0.1-1.6-1c0-0.4,0.4-0.7,1-0.7
		c0.3,0,0.6,0.1,0.9,0.2l-0.2,0.4c-0.2-0.1-0.5-0.2-0.7-0.2c-0.4,0-0.6,0.1-0.6,0.3c0,0.6,1.5,0.1,1.5,1.1c0,0.4-0.4,0.7-1.1,0.7
		C329.4,205.6,329.1,205.4,328.8,205.2z"/>
	<path d="M333.7,203v2.4h-0.4v-0.4c-0.2,0.3-0.5,0.4-0.8,0.4c-0.6,0-1-0.4-1.1-0.9c0,0,0-0.1,0-0.1V203h0.5v1.4
		c0,0.5,0.2,0.7,0.7,0.7c0.4,0,0.7-0.3,0.8-0.7c0-0.1,0-0.1,0-0.2V203L333.7,203z"/>
	<path d="M338.6,204.1v1.4h-0.5v-1.4c0-0.5-0.2-0.7-0.6-0.7s-0.7,0.3-0.7,0.8v1.3h-0.5v-1.4c0-0.5-0.2-0.7-0.6-0.7s-0.7,0.3-0.7,0.8
		v1.3h-0.4V203h0.4v0.4c0.2-0.3,0.5-0.4,0.9-0.4c0.3,0,0.7,0.2,0.9,0.5c0.2-0.3,0.6-0.5,1-0.5c0.6,0,1,0.4,1,1
		C338.6,204,338.6,204,338.6,204.1z"/>
	<path d="M339.3,202.2h0.4v1.2h-0.3L339.3,202.2z M340.1,202.2h0.4v1.2h-0.3L340.1,202.2z"/>
	<path d="M343.2,203.7v0.4l-2.1,0.8v-0.4l1.6-0.6l-1.6-0.6v-0.4L343.2,203.7z"/>
	<path d="M345.9,203.2l-1.6,0.6l1.6,0.6v0.4l-2.1-0.8v-0.4l2.1-0.8L345.9,203.2z"/>
	<path d="M347.6,201.6h0.4l-1.5,4.4h-0.4L347.6,201.6z"/>
	<path d="M350.9,203.4c0,0.7-0.5,1.1-1.4,1.1h-0.8v1h-0.5v-3.2h1.3C350.5,202.2,350.9,202.7,350.9,203.4z M350.5,203.4
		c0-0.5-0.3-0.7-0.9-0.7h-0.8v1.4h0.8C350.2,204.1,350.5,203.8,350.5,203.4L350.5,203.4z"/>
	<path d="M353.6,203.7v0.4l-2.1,0.8v-0.4l1.7-0.6l-1.7-0.6v-0.4L353.6,203.7z"/>
	<path d="M271.4,214.3l-1.6,0.6l1.6,0.6v0.4l-2.1-0.8v-0.4l2.1-0.8V214.3z"/>
	<path d="M273.1,212.7h0.4l-1.6,4.4h-0.4L273.1,212.7z"/>
	<path d="M276.6,215.7c0,0.6-0.4,0.9-1.2,0.9h-1.5v-3.2h1.5c0.8,0,1.2,0.3,1.2,0.8c0,0.3-0.2,0.6-0.4,0.7
		C276.4,215,276.6,215.3,276.6,215.7z M274.3,213.7v1h1c0.5,0,0.8-0.2,0.8-0.5s-0.3-0.5-0.8-0.5L274.3,213.7z M276.1,215.7
		c0-0.4-0.3-0.5-0.8-0.5h-1.1v1.1h1.1C275.9,216.2,276.1,216.1,276.1,215.7L276.1,215.7z"/>
	<path d="M277.1,215c0-1,0.7-1.8,1.7-1.8c1,0,1.8,0.7,1.8,1.7c0,1-0.7,1.8-1.7,1.8c0,0,0,0-0.1,0C277.9,216.7,277.1,216,277.1,215
		C277.1,215,277.1,215,277.1,215z M280.1,215c0-0.7-0.6-1.3-1.2-1.3s-1.3,0.6-1.3,1.2c0,0.7,0.6,1.3,1.2,1.3c0,0,0,0,0,0
		C279.5,216.2,280,215.7,280.1,215C280.1,215,280.1,215,280.1,215L280.1,215z"/>
	<path d="M281.2,213.4h1.4c0.9-0.1,1.7,0.6,1.8,1.5c0.1,0.9-0.6,1.7-1.5,1.8c-0.1,0-0.2,0-0.3,0h-1.4V213.4z M282.6,216.2
		c0.7,0,1.2-0.5,1.2-1.2s-0.5-1.2-1.2-1.2h-0.9v2.4H282.6z"/>
	<path d="M286.1,215.5v1.1h-0.5v-1.1l-1.3-2.1h0.5l1,1.7l1-1.7h0.5L286.1,215.5z"/>
	<path d="M289.8,214.8v0.4l-2.1,0.8v-0.4l1.6-0.6l-1.6-0.6V214L289.8,214.8z"/>
	<path class="st6" d="M396.1,127.4c0,0.1-32.1,0.3-71.7,0.3s-71.7-0.1-71.7-0.3s32.1-0.3,71.7-0.3S396.1,127.3,396.1,127.4z"/>
	<path class="st6" d="M257.1,122.3c0,0.5-0.4,0.9-0.9,0.9c-0.5,0-0.9-0.4-0.9-0.9c0-0.5,0.4-0.9,0.9-0.9
		C256.7,121.4,257.1,121.8,257.1,122.3z"/>
	<circle class="st6" cx="259.7" cy="122.3" r="0.9"/>
	<path class="st6" d="M264.2,122.3c0,0.5-0.4,0.9-0.9,0.9c-0.5,0-0.9-0.4-0.9-0.9s0.4-0.9,0.9-0.9c0,0,0,0,0,0
		C263.8,121.4,264.2,121.8,264.2,122.3z"/>
	<path class="st1" d="M261.9,235.9c-0.1,0-0.3-24.3-0.3-54.3s0.1-54.3,0.3-54.3s0.3,24.3,0.3,54.3S262,235.9,261.9,235.9z"/>
	<rect x="61.2" y="21.9" class="st7" width="59.2" height="42.2"/>
	<path class="st0" d="M120.9,28.1c0,0.1-13.4,0.3-29.9,0.3s-29.9-0.1-29.9-0.3s13.4-0.3,29.9-0.3S120.9,28,120.9,28.1z"/>
	<path class="st0" d="M66,25.1c0.1,0.4-0.2,0.9-0.7,0.9s-0.9-0.2-0.9-0.7c-0.1-0.4,0.2-0.9,0.7-0.9c0,0,0.1,0,0.1,0
		C65.6,24.4,66,24.7,66,25.1C66,25.1,66,25.1,66,25.1z"/>
	<path class="st0" d="M68.9,25.1c0,0.4-0.4,0.7-0.8,0.7c0,0,0,0,0,0c-0.4,0-0.7-0.4-0.6-0.8c0-0.4,0.4-0.7,0.8-0.6
		C68.7,24.4,68.9,24.7,68.9,25.1z"/>
	<ellipse class="st0" cx="71" cy="25" rx="0.8" ry="0.7"/>
	<rect x="383.3" y="183.4" class="st7" width="53.6" height="38.2"/>
	<path class="st0" d="M387.7,186.3c-0.1,0.4-0.4,0.7-0.8,0.6c-0.3-0.1-0.5-0.3-0.6-0.6c0.1-0.4,0.4-0.7,0.8-0.6
		C387.4,185.7,387.6,186,387.7,186.3z"/>
	<path class="st0" d="M390.3,186.3c-0.1,0.4-0.4,0.7-0.8,0.6c-0.3-0.1-0.5-0.3-0.6-0.6c0.1-0.4,0.4-0.7,0.8-0.6
		C390,185.7,390.3,186,390.3,186.3z"/>
	<path class="st0" d="M392.9,186.3c0.1,0.4-0.2,0.8-0.6,0.8c-0.4,0.1-0.8-0.2-0.8-0.6c-0.1-0.4,0.2-0.8,0.6-0.8c0,0,0.1,0,0.1,0
		C392.6,185.6,392.9,185.9,392.9,186.3z"/>
	<rect x="32.7" y="182.8" class="st7" width="39.5" height="28.1"/>
	<path class="st0" d="M72.5,187c0,0.1-8.9,0.1-19.9,0.1s-19.9-0.1-19.9-0.1s8.9-0.1,19.9-0.1S72.5,186.9,72.5,187z"/>
	<path class="st0" d="M35.9,185c0,0.3-0.3,0.5-0.5,0.5c-0.3,0-0.5-0.2-0.5-0.4c0,0,0,0,0,0c0-0.3,0.3-0.5,0.5-0.5c0,0,0,0,0,0
		C35.7,184.5,35.9,184.7,35.9,185C35.9,185,35.9,185,35.9,185z"/>
	<path class="st0" d="M37.9,185c0,0.3-0.3,0.5-0.6,0.5c-0.2,0-0.4-0.2-0.5-0.5c0-0.3,0.3-0.5,0.6-0.5
		C37.7,184.5,37.8,184.7,37.9,185z"/>
	<path class="st0" d="M39.8,185c0,0.3-0.2,0.6-0.5,0.6c-0.3,0-0.6-0.2-0.6-0.5c0-0.3,0.2-0.6,0.5-0.6c0,0,0,0,0.1,0
		C39.6,184.5,39.8,184.7,39.8,185z"/>
	<path class="st7" d="M268,74.4c-0.1-4.1,3.2-7.5,7.3-7.5c0.1,0,0.3,0,0.4,0c2-0.1,3.9,0.6,5.3,2l-0.7,0.7c-1.2-1.2-2.9-1.8-4.5-1.8
		c-3.6-0.2-6.7,2.5-6.9,6.1c-0.2,3.6,2.5,6.7,6.1,6.9c0.2,0,0.5,0,0.7,0c1.7,0.1,3.3-0.6,4.5-1.8l0.7,0.7c-1.4,1.4-3.3,2.1-5.3,2.1
		c-4.1,0.2-7.5-3-7.7-7.1C268,74.6,268,74.5,268,74.4z"/>
	<path class="st7" d="M282.9,79.9l0.5-0.8c1.3,1.2,3.1,1.9,4.9,1.9c3,0,4.3-1.3,4.3-2.9c0-4.4-9.2-1.8-9.2-7.2
		c0-2.1,1.6-3.9,5.2-3.9c1.6,0,3.1,0.5,4.5,1.3l-0.4,0.9c-1.2-0.8-2.6-1.2-4.1-1.2c-2.9,0-4.2,1.3-4.2,3c0,4.4,9.2,1.8,9.2,7.2
		c0,2.1-1.7,3.9-5.3,3.9C286.3,82,284.4,81.2,282.9,79.9z"/>
	<path class="st7" d="M295.8,79.9l0.5-0.8c1.3,1.2,3.1,1.9,4.9,1.9c3,0,4.3-1.3,4.3-2.9c0-4.4-9.2-1.8-9.2-7.2
		c0-2.1,1.6-3.9,5.2-3.9c1.6,0,3.1,0.5,4.5,1.3l-0.4,0.9c-1.2-0.8-2.6-1.2-4.1-1.2c-2.9,0-4.2,1.3-4.2,3c0,4.4,9.2,1.8,9.2,7.2
		c0,2.1-1.7,3.9-5.3,3.9C299.2,82,297.3,81.2,295.8,79.9z"/>
	<path class="st7" d="M319.1,93.6c0,0,0-0.3,0-0.8c0-0.5,0-1.3,0-2.3c0-2,0-4.9-0.1-8.6c0-7.4-0.1-18-0.1-31l0.2,0.2h-65.9l0,0
		l0.3-0.3c0,15.1,0,29.5,0,42.6l-0.2-0.2l47.4,0.1l13.6,0.1h3.6h0.9l0,0H318h-3.6l-13.5,0.1l-47.6,0.1H253v-0.2c0-13,0-27.4,0-42.6
		v-0.1h0.3l65.9,0.1h0.2v0.2c0,13-0.1,23.7-0.1,31.1c0,3.7,0,6.5,0,8.5c0,1,0,1.7,0,2.2C319.2,93.4,319.1,93.6,319.1,93.6z"/>
	<path class="st7" d="M319.1,57.4c0,0.1-14.8,0.3-33,0.3s-33-0.1-33-0.3s14.8-0.3,33-0.3S319.1,57.2,319.1,57.4z"/>
	<path class="st7" d="M258.1,54.3c0.1,0.4-0.2,0.9-0.7,0.9c-0.4,0.1-0.9-0.2-0.9-0.7c-0.1-0.4,0.2-0.9,0.7-0.9c0,0,0.1,0,0.1,0
		C257.7,53.5,258.1,53.8,258.1,54.3C258.1,54.3,258.1,54.3,258.1,54.3z"/>
	<path class="st7" d="M261,54.3c0.1,0.4-0.2,0.9-0.7,0.9c-0.4,0.1-0.9-0.2-0.9-0.7c-0.1-0.4,0.2-0.9,0.7-0.9c0,0,0.1,0,0.1,0
		C260.7,53.5,261,53.8,261,54.3C261,54.3,261,54.3,261,54.3z"/>
	<path class="st7" d="M263.9,54.3c0.1,0.4-0.2,0.9-0.7,0.9c-0.4,0.1-0.9-0.2-0.9-0.7c-0.1-0.4,0.2-0.9,0.7-0.9c0,0,0.1,0,0.1,0
		C263.6,53.5,263.9,53.8,263.9,54.3C263.9,54.3,263.9,54.3,263.9,54.3z"/>
	<g>
		<g class="st8">
			<path class="st0" d="M67.9,38.4c0.8-0.1,2-0.2,3-0.2c1.7,0,2.8,0.3,3.6,0.9c0.6,0.5,1,1.2,1,2.1c0,1.4-1,2.4-2.3,2.8v0
				c0.9,0.3,1.5,1.1,1.8,2.2c0.4,1.5,0.7,2.6,0.9,3h-1.6c-0.2-0.3-0.5-1.2-0.8-2.6c-0.4-1.5-1-2.1-2.5-2.1h-1.5v4.7h-1.6V38.4z
				 M69.5,43.3h1.6c1.7,0,2.8-0.8,2.8-2.1c0-1.4-1.1-2-2.8-2c-0.8,0-1.3,0.1-1.6,0.1V43.3z"/>
			<path class="st0" d="M84.1,44h-4.8v3.9h5.3v1.2h-6.9V38.2h6.6v1.2h-5v3.4h4.8V44z"/>
		</g>
	</g>
	<g>
		<g class="st8">
			<path class="st0" d="M88.6,45.7l-1.3,3.4h-1.6l4.1-10.8h1.9l4.1,10.8h-1.7l-1.3-3.4H88.6z M92.6,44.6l-1.2-3.1
				c-0.3-0.7-0.4-1.3-0.6-2h0c-0.2,0.6-0.4,1.3-0.6,1.9l-1.2,3.1H92.6z"/>
		</g>
	</g>
	<g>
		<g class="st8">
			<path class="st0" d="M106.1,48.7c-0.6,0.3-1.7,0.5-3.2,0.5c-3.5,0-6-1.9-6-5.5c0-3.4,2.6-5.7,6.4-5.7c1.5,0,2.5,0.3,2.9,0.5
				l-0.4,1.1c-0.6-0.3-1.4-0.4-2.5-0.4c-2.9,0-4.8,1.6-4.8,4.5c0,2.7,1.7,4.4,4.7,4.4c1,0,2-0.2,2.6-0.4L106.1,48.7z"/>
		</g>
	</g>
	<g>
		<g class="st8">
			<path class="st0" d="M110.9,39.4h-3.7v-1.2h9.1v1.2h-3.8v9.7h-1.6V39.4z"/>
		</g>
	</g>
	<text transform="matrix(0.9 0 0 1 392.21 208.4199)" class="st0 st9 st10">NODE</text>
</g>
<g id="Character">
	<path class="st11" d="M127.9,237.6l26.1,88.2c1.2,3.9,4.8,6.6,8.8,6.6l106,0.3c5.4,0,9.8-4.4,9.8-9.8c0-0.2,0-0.4,0-0.5l0,0
		c-0.3-5.2-4.6-9.3-9.8-9.3h-40.6l-32.4-90.4h-56.9c-6.4,0-11.6,5.2-11.6,11.7C127.5,235.5,127.6,236.6,127.9,237.6z"/>
	<path class="st6" d="M217.6,320.4c0,0.2-10.8,0.4-24.1,0.4s-24.1-0.2-24.1-0.4s10.8-0.4,24.1-0.4S217.6,320.1,217.6,320.4z"/>
	<path class="st6" d="M135.7,225.5c0.2-0.1,7.4,21,16.1,47.2s15.6,47.3,15.4,47.4s-7.4-21-16.1-47.2S135.5,225.5,135.7,225.5z"/>
	<polygon class="st11" points="213.2,410.8 206.7,410.6 206.7,332.4 213.2,332.4 	"/>
	<polygon class="st11" points="179.9,410.4 240,410.4 212.8,400.9 206.3,400.9 	"/>
	<path class="st7" d="M164.7,202.4l10,49.7l-1.8,37.2l66.9-11.1l-2.6-32.6l0-27l16.4,31.8l12.8-24.7l-23.4-42.3l0,0
		c-4.3-4.4-9.5-7.8-15.3-9.9c-3.1-1.1-6.3-1.7-9.6-1.8l0,0c-7.5,2.4-15.6,2.4-23.1,0c-0.9,0.1-2.2,0.2-3.9,0.4h-0.3
		c-14.2,1.8-25.1,13.5-25.8,27.8L164.7,202.4z"/>
	<path class="st7" d="M190.9,172.1c0,0-27.5,0.2-30.9,29.2l-0.5,21.3l23.7-0.2L190.9,172.1z"/>
	<path class="st12" d="M256.6,209.5c0,0.2-21.6,0.4-48.3,0.4s-48.3-0.2-48.3-0.4s21.6-0.4,48.3-0.4S256.6,209.3,256.6,209.5z"/>
	<path class="st12" d="M256.6,214.1c0,0.2-21.6,0.4-48.3,0.4s-48.3-0.2-48.3-0.4s21.6-0.4,48.3-0.4S256.6,213.9,256.6,214.1z"/>
	<path class="st12" d="M255,205.7c0,0.2-21.3,0.4-47.5,0.4s-47.5-0.2-47.5-0.4s21.3-0.4,47.5-0.4S255,205.5,255,205.7z"/>
	<path class="st6" d="M236.7,250.4c-0.2,0-0.1-11.8,0.2-26.3c0.3-14.5,0.7-26.3,1-26.3s0.1,11.8-0.2,26.3S236.9,250.4,236.7,250.4z"
		/>
	<path class="st13" d="M227.3,231.4c0,0,13,0.9,15.3,4.4s5.9,13.2,4.6,13.3c-0.8,0-1.7-0.2-2.3-0.7l-3.6-6.3c0,0,0.6,6.1-1.5,6.2
		s-12.7,2.2-12.7,2.2L227.3,231.4z"/>
	<path class="st7" d="M159.6,217v33.5c0.4,7,6.4,12.4,13.4,12c0.7,0,1.3-0.1,1.9-0.3l52.4-10.8l-0.1-21.5l-45.2,8.7l-0.6-22.8
		L159.6,217z"/>
	<path class="st6" d="M189.5,259.6c0.2-0.1,0.5-0.1,0.7-0.2l2-0.5l7.8-1.6l27.3-5.6l-0.3,0.4c0-6.7,0-14.2,0-22.1l0.4,0.4l-9.3,1.7
		l-36,6.9l-0.4,0.1v-0.4c0.4-10,0.6-18.3,0.8-24.2c0.1-2.9,0.2-5.1,0.3-6.8c0-0.7,0.1-1.3,0.1-1.8c0-0.2,0-0.4,0.1-0.6
		c0,0.2,0,0.4,0,0.6v1.8c0,1.6-0.1,3.9-0.1,6.8c-0.1,5.9-0.3,14.2-0.6,24.2l-0.4-0.3l36-7l9.2-1.8l0.4-0.1v0.5c0,7.9,0,15.3,0,22.1
		v0.3h-0.3l-27.4,5.4l-7.7,1.4l-2.1,0.4C190,259.5,189.7,259.6,189.5,259.6z"/>
	<path class="st6" d="M219.5,172.1c0,0,0.1,0.2,0.2,0.5c0.2,0.5,0.3,1,0.4,1.5c0.4,1.9,0.3,3.8-0.2,5.6c-0.8,2.7-2.4,5.2-4.6,7
		c-2.6,2.4-6,3.6-9.5,3.6c-3.5,0.1-6.9-1.3-9.4-3.8c-2-2.1-3.2-4.7-3.5-7.6c-0.2-1.9,0-3.8,0.7-5.6c0.2-0.5,0.4-0.9,0.7-1.4
		c0.2-0.3,0.3-0.4,0.3-0.4s-0.3,0.7-0.7,1.9c-0.5,1.8-0.7,3.6-0.4,5.4c0.4,2.7,1.6,5.2,3.5,7.2c2.4,2.3,5.6,3.6,8.9,3.6
		c3.3,0,6.6-1.2,9.1-3.4c2.1-1.8,3.7-4.1,4.5-6.7c0.5-1.8,0.7-3.6,0.5-5.4C219.7,172.9,219.5,172.2,219.5,172.1z"/>
	<path class="st12" d="M222.1,253.2c-0.1-1.1-0.1-2.2,0-3.3c0.1-2,0.2-4.8,0.2-7.9s-0.1-5.9-0.1-8c-0.1-1.1-0.1-2.2,0-3.3
		c0.3,1.1,0.5,2.2,0.5,3.3c0.2,2,0.3,4.9,0.3,8s-0.2,5.9-0.4,8C222.5,251.1,222.4,252.2,222.1,253.2z"/>
	<path class="st12" d="M219.4,253.8c-0.2-1.1-0.2-2.2-0.1-3.3c0-2.3,0.1-5,0.1-7.9s0-5.6,0-7.9c-0.1-1.1,0-2.2,0.1-3.3
		c0.3,1.1,0.4,2.2,0.4,3.3c0.1,2,0.2,4.8,0.2,7.9s-0.1,5.9-0.3,7.9C219.8,251.6,219.6,252.7,219.4,253.8z"/>
	<path class="st7" d="M271.9,386.9l9.9,27.3l14.1,19.3c1,1.3,0.7,3.2-0.7,4.2c0,0-0.1,0.1-0.1,0.1l0,0c-0.8,0.5-1.8,0.6-2.7,0.2
		c-5.7-2.4-26.5-11.1-27.1-13.1c-0.7-2.4-14.1-31.7-14.1-31.7L271.9,386.9z"/>
	<g class="st14">
		<path class="st0" d="M295,437.8l-30.5-14.7l0.4,1.1c0.4,1,1.1,1.8,2,2.3c2.5,1.4,9.5,4.9,25.2,11.5
			C293.1,438.5,294.1,438.4,295,437.8L295,437.8z"/>
	</g>
	<g class="st14">
		<path class="st0" d="M266.6,412.2c0.9,0.2,1.4,1.1,1.3,2c-0.2,0.9-1.1,1.5-2,1.3c-0.9-0.3-1.5-1.2-1.4-2.1
			c0.3-0.9,1.3-1.4,2.2-1.1"/>
	</g>
	<path class="st6" d="M284.2,428.4c0.3-1.1,0.8-2.1,1.5-3c1.3-1.4,2.9-1.6,2.9-1.8s-0.4-0.1-1.1,0c-1.8,0.5-3.1,1.9-3.4,3.7
		C284,428,284.1,428.4,284.2,428.4z"/>
	<path class="st6" d="M287.5,431.2c0.2,0.1,0.7-1.1,1.9-2.1c0.8-0.5,1.6-1,2.5-1.4c0-0.2-1.5-0.2-2.9,0.9S287.4,431.2,287.5,431.2z"
		/>
	<path class="st6" d="M278.8,425.1c0.2,0.1,1-1.8,2.8-3.4s3.7-2.3,3.6-2.5s-2.2,0.2-4.1,2S278.6,425.1,278.8,425.1z"/>
	<path class="st6" d="M275.1,417.1c0.1,0.1,1.4-1.1,3.3-1.9s3.6-1,3.6-1.1s-1.8-0.3-3.9,0.6S274.9,417,275.1,417.1z"/>
	<path class="st6" d="M272,409.2c0.1,0.1,1.3-1.4,3.4-2.1s3.9-0.3,3.9-0.5s-0.4-0.3-1.2-0.4c-2-0.3-4.1,0.4-5.5,1.9
		C272.1,408.7,271.9,409.1,272,409.2z"/>
	<path class="st6" d="M274.8,405.6c-0.1-0.4-0.2-0.7-0.4-1c-0.5-0.9-1.1-1.7-1.9-2.4c-0.5-0.5-1.2-0.9-1.9-1c-0.5,0-1,0.3-1.2,0.7
		c-0.2,0.4-0.2,0.9,0,1.4c0.9,1.8,2.9,2.8,4.9,2.3c1.9-0.5,3.3-2.2,3.5-4.1c0.1-0.5-0.1-1-0.4-1.3c-0.4-0.3-0.9-0.4-1.4-0.1
		c-0.6,0.4-1.1,1-1.4,1.6c-0.5,0.9-0.8,1.8-1,2.8c-0.1,0.4-0.1,0.7,0,1.1c0.3-1.3,0.8-2.5,1.5-3.7c0.3-0.6,0.7-1,1.3-1.4
		c0.2-0.1,0.5-0.1,0.7,0.1c0.2,0.2,0.3,0.6,0.2,0.9c-0.3,1.7-1.5,3.1-3.1,3.5c-1.6,0.4-3.4-0.4-4.1-1.9c-0.1-0.3-0.2-0.7-0.1-1
		c0.1-0.3,0.4-0.4,0.6-0.4c0.6,0.1,1.2,0.4,1.7,0.8C273.3,403.4,274.1,404.4,274.8,405.6z"/>
	<path class="st7" d="M313.7,379.8l-0.9,22.2c0,0,22.2,8.3,22.5,12.4l-43-0.1l-0.1-34.6L313.7,379.8z"/>
	<g class="st14">
		<path class="st0" d="M299.5,400.1c-0.9,0.3-1.4,1.1-1.2,2c0.2,0.9,1.1,1.4,2,1.2c0.9-0.3,1.5-1.2,1.3-2.1c-0.3-0.9-1.3-1.3-2.2-1"
			/>
	</g>
	<g class="st14">
		<path class="st0" d="M292.2,414.3v-3.5l41.4,1.4c0,0,1.9,0.8,1.7,2.2L292.2,414.3z"/>
	</g>
	<path class="st6" d="M313.5,401.7c0,0.2-1.1,0.3-2.1,1s-1.6,1.6-1.8,1.5s0.1-1.3,1.4-2.1S313.5,401.5,313.5,401.7z"/>
	<path class="st6" d="M318,403.6c0,0.2-0.9,0.6-1.6,1.5s-0.9,1.8-1.1,1.8s-0.3-1.2,0.6-2.3S318,403.4,318,403.6z"/>
	<path class="st6" d="M320.6,409c-0.2,0-0.5-1,0.1-2.1s1.5-1.6,1.6-1.4s-0.5,0.8-1,1.7S320.8,409,320.6,409z"/>
	<path class="st6" d="M313.1,396.7c-0.1,0.2-1-0.1-2.2,0s-2.1,0.5-2.2,0.3s0.8-0.9,2.2-1S313.2,396.5,313.1,396.7z"/>
	<g class="st2">
		<polygon points="313.5,384.2 313.3,388.1 292.2,387.9 292.2,384.3 		"/>
	</g>
	<path class="st6" d="M313.2,392.2c-0.7,0.2-1.4,0.2-2.1,0c-0.8-0.1-1.5-0.4-2.3-0.7c-0.4-0.2-0.8-0.4-1.2-0.7
		c-0.2-0.1-0.5-0.3-0.6-0.5c-0.3-0.3-0.3-0.8-0.1-1.1c0.2-0.3,0.6-0.5,0.9-0.5c0.3,0,0.5,0,0.8,0.1c0.5,0.1,0.9,0.3,1.3,0.5
		c0.7,0.3,1.4,0.8,2,1.3c1,0.9,1.3,1.7,1.3,1.8s-0.6-0.6-1.6-1.4c-0.6-0.4-1.2-0.8-1.9-1.1c-0.4-0.2-0.8-0.3-1.2-0.4
		c-0.5-0.1-0.8-0.1-1,0.1s0,0.1,0,0.2c0.1,0.2,0.3,0.3,0.5,0.4c1,0.6,2.1,1.1,3.2,1.5C311.9,391.8,312.6,392,313.2,392.2z"/>
	<path class="st6" d="M312.9,392.5c-0.4-0.6-0.6-1.4-0.6-2.1c0-0.8,0.1-1.6,0.3-2.4c0.1-0.5,0.3-0.9,0.5-1.3c0.2-0.6,0.8-1,1.4-1.1
		c0.4,0,0.7,0.2,0.9,0.6c0.1,0.3,0.2,0.5,0.2,0.8c0.1,0.5,0.1,1,0,1.5c-0.1,0.8-0.4,1.6-0.9,2.2c-0.8,1.1-1.7,1.4-1.7,1.3
		s0.7-0.5,1.3-1.6c0.4-0.6,0.6-1.3,0.7-2c0.1-0.4,0.1-0.8,0-1.2c-0.1-0.5-0.2-0.8-0.4-0.8s-0.6,0.3-0.8,0.7
		c-0.2,0.4-0.4,0.8-0.5,1.2c-0.2,0.7-0.4,1.4-0.4,2.1C312.9,391.7,313.1,392.5,312.9,392.5z"/>
	<path class="st6" d="M292.2,273.5c-25.4,2.6-59.1,6.1-59.1,6.1l4.6,41.4c0,0,49.5-13.1,49.2-12s2.3,88.1,2.3,88.1h29.8l0.6-98.5
		c0.2-13.7-10.7-24.9-24.4-25.1C294.2,273.4,293.2,273.4,292.2,273.5z"/>
	<path class="st6" d="M172.2,290.2v12.9c0,8.7,10,18,18.7,18h6.8c5.3,0,13.7-3.9,18-7l2.6-1.9l31,96.2c0,0,35.5-6.4,35.5-7.5
		s-24.1-78.8-35.2-114.9c-4.5-14.7-20.3-23.3-34.9-18.3c-0.5,0.2-1,0.4-1.5,0.6C197.3,274.6,172.2,290.2,172.2,290.2z"/>
	<path class="st11" d="M284.8,400.9c0,0-0.1-0.1-0.2-0.3s-0.2-0.6-0.4-1c-0.3-0.9-0.8-2.2-1.4-4c-1.2-3.5-2.8-8.5-4.8-14.8
		c-4-12.5-9.3-29.9-15.1-49.1l-8.1-27.1c-1.2-4.2-2.4-8.1-3.5-11.8c-0.5-1.9-1.1-3.6-1.6-5.4c-0.5-1.6-1-3.3-1.6-4.9
		c-1.1-2.7-2.8-5.1-5-7.1c-1.6-1.5-3.4-2.9-5.3-4.1c-1.5-1-2.7-1.8-3.6-2.3l-0.9-0.6c-0.1-0.1-0.2-0.1-0.3-0.2
		c0.1,0,0.2,0.1,0.4,0.2l1,0.5c0.9,0.5,2.1,1.2,3.6,2.2c1.9,1.2,3.7,2.5,5.4,4c2.3,2,4,4.4,5.2,7.2c0.6,1.6,1.2,3.2,1.7,4.9
		c0.5,1.7,1.1,3.5,1.6,5.4l3.6,11.8c2.5,8.3,5.3,17.5,8.2,27.1c5.8,19.2,11,36.5,14.8,49.2l4.6,14.9l1.3,4c0.1,0.4,0.2,0.8,0.3,1
		C284.8,400.6,284.8,400.7,284.8,400.9z"/>
	<path class="st11" d="M292.3,296.6c0.2,0.1-1.5,2.7-2.9,6.1s-2,6.4-2.3,6.4s0.1-3.1,1.6-6.7S292.2,296.4,292.3,296.6z"/>
	<path class="st11" d="M298,300.6c0.1,0.2-2.5,1.3-5.1,3.4s-4.4,4.3-4.6,4.2s1.3-2.6,4.1-4.8S297.9,300.4,298,300.6z"/>
	<path class="st11" d="M249.6,408.4c-0.2,0.1-8.6-25.7-18.7-57.5s-18.2-57.7-18-57.8s8.6,25.7,18.7,57.5
		C241.7,382.4,249.8,408.3,249.6,408.4z"/>
	<polygon class="st11" points="211.5,258.3 313.1,259.2 332.1,205.7 258.2,206.2 241,254.4 211.5,254.8 	"/>
	<path class="st0" d="M288.6,237.1c-2.3-0.3-3.8-2.4-3.5-4.7c0.3-2.3,2.4-3.8,4.7-3.5c2.3,0.3,3.8,2.4,3.5,4.7c0,0,0,0,0,0
		C292.9,235.8,290.8,237.4,288.6,237.1z"/>
	<path class="st6" d="M203.2,113.2c1-3.6,3.6-5.3,7.1-6.5c3.6-1.2,7.5-0.6,10.5,1.7c2,1.5,3.5,3.7,5.8,4.5c3.8,1.3,8.3-1.5,12,0.2
		c2.6,1.2,3.8,4.3,2.6,6.9c-0.9,2-2.9,3.2-5.1,3.1c2.5,0.9,3.3,4.5,1.8,6.7s-4.5,3.1-7.1,2.6c-2.6-0.6-5-2-6.9-3.9
		c-2-1.8-3.8-3.8-5.9-5.4c-2.1-1.7-4.7-2.7-7.4-2.7c-3.6,0.2-6.7,2.9-8.3,6.1s-2,6.9-2.2,10.5s-0.3,7.3-1.3,10.7
		c-0.1,0.4-0.3,0.9-0.7,1c-0.6,0.2-1.1-0.4-1.4-1c-3.3-6.1-5.3-12.8-6-19.7c-0.4-4-0.3-7.8,1.9-11.1S200.5,111.1,203.2,113.2"/>
	<path class="st13" d="M196.2,130l-1.8,40.5c-0.3,6.9,0.6,17.1,11.5,17.1l0,0c9.5-0.7,12.2-9.6,12.5-16c0.1-3,0.3-5.6,0.3-5.9
		c0,0,10.3-0.5,11.6-10.7c0.6-4.9,1-15.1,1.2-24.4c0.3-9.9-7.1-18.4-17-19.4l-1-0.1C202.8,110.6,196.4,119.3,196.2,130z"/>
	<path class="st15" d="M218.8,165.5c-4.7-0.4-9.2-2.2-12.8-5.2c0,0,2.4,7.6,12.6,7.8L218.8,165.5z"/>
	<path class="st6" d="M227.8,137.1c-0.1,0.8-0.8,1.4-1.6,1.3c-0.8,0-1.4-0.6-1.4-1.4c0,0,0,0,0-0.1c0.1-0.8,0.8-1.4,1.6-1.3
		C227.2,135.6,227.8,136.3,227.8,137.1C227.8,137.1,227.8,137.1,227.8,137.1z"/>
	<path class="st6" d="M228.8,135.4c-0.2,0.2-1.2-0.8-2.8-0.9s-2.8,0.5-2.9,0.3s0.1-0.4,0.7-0.7c0.7-0.4,1.6-0.6,2.4-0.5
		c0.8,0.1,1.6,0.4,2.2,1C228.8,134.9,228.9,135.3,228.8,135.4z"/>
	<path class="st6" d="M212.4,136c-0.1,0.8-0.8,1.4-1.6,1.3c-0.8,0-1.4-0.7-1.4-1.4c0,0,0,0,0,0c0.1-0.8,0.8-1.4,1.6-1.3
		C211.8,134.5,212.4,135.2,212.4,136C212.4,136,212.4,136,212.4,136z"/>
	<path class="st6" d="M213.4,134c-0.2,0.2-1.2-0.8-2.8-0.9s-2.8,0.5-2.9,0.3s0.1-0.4,0.7-0.7c1.5-0.8,3.3-0.6,4.6,0.5
		C213.4,133.6,213.5,133.9,213.4,134z"/>
	<path class="st6" d="M217.8,146.2c0.8-0.2,1.7-0.2,2.6-0.2c0.4,0,0.8,0,0.9-0.3c0.1-0.4,0-0.8-0.1-1.2l-0.9-3.2
		c-1.2-4.5-2-8.2-1.8-8.2s1.3,3.6,2.5,8.1c0.3,1.1,0.6,2.2,0.8,3.2c0.2,0.5,0.2,1.1,0,1.6c-0.1,0.3-0.4,0.5-0.7,0.5
		c-0.2,0-0.5,0-0.7,0C219.5,146.5,218.7,146.4,217.8,146.2z"/>
	<path class="st6" d="M213.1,146.8c0.3,0,0.1,1.7,1.4,3.1s3.1,1.4,3.1,1.6s-0.4,0.3-1.2,0.2c-1-0.1-1.9-0.5-2.6-1.2
		c-0.7-0.7-1.1-1.6-1.1-2.6C212.8,147.2,212.9,146.8,213.1,146.8z"/>
	<path class="st6" d="M214.4,127.9c-0.2,0.4-1.7,0-3.6,0.1s-3.4,0.4-3.6,0c-0.1-0.2,0.2-0.6,0.9-0.9c0.8-0.4,1.8-0.7,2.7-0.6
		c1,0,1.9,0.2,2.7,0.6C214.2,127.4,214.5,127.7,214.4,127.9z"/>
	<path class="st6" d="M228.7,130.8c-0.3,0.3-1.4-0.2-2.6-0.3s-2.4,0-2.6-0.4c-0.1-0.2,0.1-0.5,0.6-0.8c0.7-0.3,1.5-0.5,2.2-0.4
		c0.7,0.1,1.4,0.4,2,0.9C228.7,130.2,228.8,130.6,228.7,130.8z"/>
	<path class="st13" d="M196.2,137.6c-0.2-0.1-6.8-2.8-7.3,4.2s6.6,6.1,6.6,5.9S196.2,137.6,196.2,137.6z"/>
	<path class="st15" d="M193.7,144.8c0,0-0.1,0.1-0.3,0.2c-0.3,0.1-0.6,0.1-0.9-0.1c-0.9-0.6-1.3-1.7-1.2-2.8c0-0.6,0.2-1.2,0.5-1.7
		c0.2-0.4,0.5-0.8,1-0.9c0.3,0,0.6,0.1,0.7,0.4c0.1,0.2,0,0.3,0.1,0.4s0.2-0.1,0.1-0.4c0-0.2-0.1-0.3-0.2-0.4
		c-0.2-0.2-0.4-0.2-0.7-0.2c-0.6,0.1-1.1,0.5-1.4,1c-0.3,0.6-0.5,1.2-0.6,1.9c-0.1,1.4,0.6,2.8,1.6,3.1c0.4,0.1,0.8,0.1,1.1-0.1
		C193.6,145,193.7,144.8,193.7,144.8z"/>
	<path class="st6" d="M233.9,128.7c-4.7,0.7-9.4-0.9-12.7-4.3c-2.2-2.4-3.8-5.6-6.8-6.9c-2.1-0.8-4.4-0.7-6.4,0.2
		c-2,0.9-3.8,2.3-5.3,3.9c1.4,5.4-0.5,11-2.4,16.2c-0.2,0.6-0.5,1.1-1,1.5c-0.9,0.6-2.1-0.1-2.7-0.9c-0.9-1.4-1.4-3.1-1.4-4.7
		c-0.3-3.8,0.1-7.6,1.3-11.3c1.2-3.6,3.4-6.9,6.4-9.3c3.9-2.9,8.7-4.1,13.5-3.5c4.8,0.6,9.2,2.8,12.6,6.1c1.7,1.5,3,3.3,3.7,5.4"/>
</g>
<g id="Plant">
	<path class="st7" d="M39.3,345.2c3.6-1.7,7.7-2.2,11.7-1.4c2.1,0.4,4.3,1,5.8,2.6s1.7,4.4,0.1,5.8c-1.1,0.7-2.4,1-3.7,0.9
		c-3.1,0-6.5-0.6-9,1.3c-1.4,1.1-2.4,2.8-4,3.4c-1.7,0.4-3.5-0.4-4.4-2c-0.8-1.5-1-3.3-0.5-5C35.7,348.3,37.1,346.3,39.3,345.2z"/>
	<path class="st7" d="M31.1,329.4c2.2,3.1,6.4,2.1,8.4,0.2c2-1.9,2.8-4.6,3.6-7.3c1.7-6,3.5-12.3,2.2-18.4c-0.3-1.9-1.1-3.6-2.4-5
		c-1.3-1.4-3.2-2.1-5.1-1.7c-2.1,0.6-3.5,2.7-4.4,4.6c-2.8,5.9-4.3,12.3-4.3,18.8C29,323.7,29.4,326.9,31.1,329.4"/>
	<path class="st7" d="M25.1,333.9c2.3-3,2.9-6.9,1.8-10.4c-1.2-3.5-3.3-6.6-6.2-9c-3.2-2.9-6.9-5.1-11-6.5c-1.6-0.6-3.3-0.9-5-0.8
		c-1.7,0.1-3.3,1-4.2,2.5c-1.2,2.2,0,4.9,1.2,7.1c2.1,3.9,4.6,7.6,7.3,11.1c2.2,2.8,4.7,5.6,8,6.8s6.8,1.1,8.5-1.2"/>
	<path class="st6" d="M30.9,376.4c0.1-0.5,0.2-0.9,0.2-1.4c0.1-1,0.2-2.3,0.4-3.9c0.2-1.9,0.5-3.8,0.9-5.7c0.5-2.3,1.2-4.5,2.1-6.7
		c0.9-2.2,2-4.2,3.4-6c1.1-1.5,2.6-2.8,4.3-3.6c1.1-0.6,2.4-1,3.6-1.1c0.5,0,0.9-0.1,1.4-0.2c-0.5,0-1,0-1.4,0
		c-1.3,0.1-2.6,0.4-3.8,1c-1.8,0.8-3.3,2.1-4.6,3.6c-1.5,1.9-2.6,3.9-3.5,6.2c-0.9,2.2-1.5,4.5-2,6.8c-0.4,1.9-0.6,3.8-0.8,5.7
		c-0.1,1.6-0.2,3-0.2,3.9C30.9,375.4,30.9,375.9,30.9,376.4z"/>
	<path class="st6" d="M31.2,373.4c0-0.2,0-0.4,0-0.6c0-0.5,0-1.1,0-1.9c0-1.6,0-4,0.1-6.9c0.1-5.8,0.6-12.1,1.6-20.9
		c0.9-8.3,2.2-18,3.4-24.3c0.3-1.4,0.6-2.7,0.8-3.8c0.3-1.1,0.5-2.1,0.7-2.9s0.3-1.4,0.4-1.8c0.1-0.2,0.1-0.4,0.1-0.6
		c-0.1,0.2-0.2,0.4-0.2,0.6c-0.2,0.5-0.3,1.1-0.6,1.8c-0.2,0.7-0.5,1.8-0.8,2.9s-0.6,2.4-0.9,3.8c-1.6,7.4-2.8,14.9-3.6,22.5
		c-0.9,8.9-1.4,16.9-1.4,22.8c0,2.9,0,5.3,0.1,6.9c0,0.8,0.1,1.4,0.1,1.9C31.1,373,31.2,373.2,31.2,373.4z"/>
	<path class="st6" d="M31.3,357.9c0.1-0.7,0.1-1.3,0-2c-0.1-1.8-0.3-3.6-0.6-5.3c-0.4-2.6-1-5.2-1.7-7.7c-0.8-3.1-1.9-6.2-3.2-9.2
		c-2.2-5.5-5.5-10.5-9.5-14.8c-0.7-0.7-1.5-1.4-2.2-2.1c-0.3-0.3-0.7-0.6-1-0.8l-0.9-0.6c-0.5-0.4-1.1-0.8-1.6-1.1
		c1.9,1.5,3.7,3.1,5.4,4.8c3.9,4.4,7,9.3,9.3,14.8c1.3,2.9,2.4,6,3.3,9.1c0.8,2.9,1.4,5.5,1.8,7.7s0.6,4,0.8,5.3
		C31,356.6,31.1,357.2,31.3,357.9z"/>
	<polygon class="st6" points="16.2,385.3 17.8,406.6 45.2,406.6 46.8,385.3 	"/>
	<rect x="13.6" y="376.9" class="st6" width="36.5" height="8.4"/>
	<polygon class="st11" points="13.6,405.8 13.6,408.1 15.3,408.1 49.4,408.1 49.4,405.8 	"/>
	<polygon class="st11" points="17,412.2 15.3,408.1 48.1,408.1 46.2,412.2 	"/>
	<path class="st1" d="M46.2,392.2c0,0.1-0.1,0.1-0.1,0.2l-0.4,0.5l-1.6,2l-0.1,0.1L44,395l-3.9-5.4h0.2l-3.9,5.5l-0.1,0.2l-0.1-0.2
		c-1.4-1.7-3-3.5-4.6-5.5h0.3c-0.1,0.1-0.2,0.2-0.2,0.3l-4.1,5.1l-0.1,0.2l-0.1-0.2l-3.9-5.5h0.2l-4.8,5.5l-0.1,0.1l-0.1-0.1
		c-0.6-1-1.1-1.9-1.5-2.5l-0.4-0.7l-0.1-0.2c0,0,0.1,0.1,0.2,0.2l0.4,0.6l1.6,2.5h-0.2l4.7-5.5l0.1-0.1l0.1,0.1l3.9,5.4h-0.3
		l4.1-5.1l0.2-0.3l0.1-0.2l0.1,0.2l4.6,5.5h-0.3l3.9-5.4l0.1-0.2l0.1,0.2l3.8,5.5h-0.2l1.7-2l0.4-0.5
		C46.2,392.3,46.2,392.2,46.2,392.2z"/>
	<path class="st11" d="M47.1,385.1c0,0.1-6.9,0.2-15.4,0.2s-15.3-0.1-15.3-0.2s6.9-0.2,15.3-0.2S47.1,385.1,47.1,385.1z"/>
	<path class="st6" d="M48.5,408.4c0,0.1-7.5,0.2-16.7,0.2s-16.7-0.1-16.7-0.2s7.5-0.2,16.7-0.2S48.5,408.3,48.5,408.4z"/>
</g>
<g id="Devices">
	<polygon class="st6" points="372.6,162.6 353.6,242.3 358.9,242.3 377.7,162.6 	"/>
	<path class="st6" d="M365.3,215.1C365,216.6,374,260,374,260h-4.3l-6.8-34.4L365.3,215.1z"/>
	<rect x="339.5" y="317.4" class="st16" width="89.2" height="94.6"/>
	<rect x="428.8" y="331.2" class="st6" width="4.4" height="4.4"/>
	<rect x="428.8" y="345.1" class="st6" width="4.4" height="4.4"/>
	<rect x="428.8" y="359.1" class="st6" width="4.4" height="4.4"/>
	<rect x="428.8" y="373" class="st6" width="4.4" height="4.4"/>
	<path class="st6" d="M433.3,360.3c0.4-0.1,0.9-0.2,1.3-0.3c1.2-0.2,2.5-0.4,3.8-0.4c1.9,0,3.8,0.5,5.4,1.4c2.1,1.3,3.2,3.6,3,6
		c-0.1,1.2-0.5,2.4-1.1,3.4c-0.6,1-1.4,1.8-2.3,2.4c-1.5,1.1-3.3,1.8-5.2,2.1c-1.2,0.2-2.5,0.2-3.8,0.1c-0.5,0-0.9-0.1-1.4-0.2
		c0.5,0,0.9,0,1.4,0c1.2,0,2.5-0.1,3.7-0.3c1.8-0.3,3.5-1,5-2.1c1.8-1.3,3-3.3,3.2-5.5c0.2-2.2-0.8-4.4-2.8-5.6
		c-1.6-1-3.3-1.5-5.2-1.5c-1.2,0-2.5,0-3.7,0.2C434.2,360.3,433.8,360.4,433.3,360.3z"/>
	<path class="st6" d="M432.2,346.5c0.1-0.1,0.3-0.2,0.4-0.2c0.4-0.2,0.9-0.4,1.3-0.5c1.7-0.5,3.4-0.6,5.1-0.3
		c0.6,0.1,1.1,0.3,1.6,0.6c0.6,0.4,1,0.9,1.1,1.6c0.5,2.2-0.7,4.5-2.9,5.4c-0.8,0.3-1.7,0.3-2.4-0.1c-0.8-0.4-1.3-1.2-1.4-2.1
		c0-0.9,0.6-1.8,1.4-2.2c0.8-0.4,1.7-0.5,2.5-0.3c0.8,0.2,1.6,0.5,2.2,1.1c1.2,1,2,2.4,2.2,4c0.1,1.4-0.3,2.9-1.1,4
		c-0.7,1-1.7,1.8-2.7,2.3c-1.6,0.8-3.3,1.2-5,1.3c-0.6,0-1.1,0.1-1.4,0.1c-0.2,0-0.3,0-0.5,0c0,0,0.7-0.1,1.9-0.2
		c1.7-0.2,3.3-0.7,4.8-1.4c1-0.6,1.9-1.3,2.6-2.2c0.8-1,1.1-2.4,1-3.6c-0.2-1.4-0.9-2.7-2.1-3.6c-0.6-0.5-1.3-0.8-2-1
		c-0.7-0.2-1.5-0.1-2.2,0.2c-0.7,0.3-1.1,1-1.1,1.7c0.1,0.7,0.5,1.3,1.1,1.6c0.6,0.3,1.3,0.4,2,0.1c0.6-0.2,1.2-0.7,1.6-1.2
		c0.9-1,1.3-2.3,1-3.6c-0.4-1.1-1.3-1.9-2.5-2c-1.7-0.4-3.4-0.3-5,0.1C432.8,346.2,432.2,346.6,432.2,346.5z"/>
	<path class="st6" d="M432.3,332.9c0.3-0.1,0.7-0.2,1-0.2c0.9-0.1,1.8,0,2.7,0.3c1.3,0.4,2.4,1.2,3.3,2.2c1.1,1.3,1.7,2.9,1.7,4.6
		c0.1,1.7-0.4,3.3-1.4,4.7c-0.8,1.1-1.9,1.9-3.2,2.4c-0.8,0.4-1.7,0.5-2.6,0.5c-0.3,0-0.7,0-1-0.1c1.2,0,2.4-0.3,3.5-0.8
		c1.2-0.5,2.2-1.4,3-2.4c1.8-2.6,1.7-6.2-0.3-8.7c-0.8-1-1.9-1.7-3.1-2.2C434.6,333.1,433.5,332.9,432.3,332.9z"/>
	<path class="st6" d="M366,267.2c0.3,0.6,0.6,1.2,0.8,1.8c0.5,1.8,0.9,3.6,1.2,5.4c0.4,2.4,0.7,5.3,1,8.6s0.6,7.2,1.1,11.5
		c0.1,1,0.3,2.1,0.5,3.2c0.2,1.1,0.5,2.2,1,3.2c0.6,1,1.3,1.9,2.2,2.7c2.7,2.6,6.3,4.3,10.1,4.7c2.7,0.3,5.4-0.2,7.9-1.4
		c2.6-1.3,4.4-3.6,5.1-6.4c0.3-1.4,0.2-2.9-0.3-4.2c-0.6-1.4-1.5-2.5-2.8-3.4c-1.3-0.8-2.7-1.3-4.2-1.4c-1.5-0.1-3,0.4-4.3,1.2
		c-0.6,0.4-1.1,1-1.5,1.7c-0.3,0.7-0.4,1.4-0.3,2.2c0.4,1.5,1.4,2.8,2.8,3.5c1.4,0.7,3,1.1,4.6,1.3c1.6,0.2,3.2,0.3,4.7,0.3
		c3.1,0,6.2-0.2,9.3-0.5c6.1-0.7,12-1.7,17.6-1.7s11.1,0.7,15.7,3c2.2,1.1,4.2,2.5,5.8,4.4c1.5,1.7,2.5,3.8,3,6
		c0.8,3.8,0.2,7.8-1.8,11.2c-1.5,2.5-3.5,4.7-5.9,6.3c-1.5,1-3.2,1.9-4.9,2.5c-0.6,0.2-1.2,0.4-1.8,0.5l0.5-0.2
		c0.3-0.1,0.8-0.3,1.3-0.5c1.7-0.7,3.3-1.5,4.8-2.6c2.4-1.6,4.4-3.8,5.8-6.3c1.8-3.4,2.4-7.3,1.6-11c-0.5-2.2-1.5-4.2-3-5.8
		c-1.6-1.8-3.6-3.2-5.7-4.2c-4.5-2.2-9.9-3-15.5-2.9s-11.5,1-17.6,1.7c-3.1,0.4-6.2,0.6-9.4,0.5c-1.6,0-3.2-0.1-4.8-0.3
		c-1.6-0.1-3.3-0.6-4.7-1.3c-1.5-0.8-2.6-2.2-3-3.9c-0.2-0.8,0-1.7,0.3-2.5c0.4-0.8,0.9-1.4,1.6-1.9c1.3-1,3-1.4,4.6-1.4
		c1.6,0.1,3.2,0.6,4.5,1.5c1.3,0.9,2.3,2.1,3,3.6c0.6,1.5,0.7,3,0.3,4.5c-0.7,2.9-2.7,5.4-5.4,6.7c-2.5,1.2-5.4,1.7-8.1,1.4
		c-2.6-0.3-5.1-1.1-7.4-2.5c-1.1-0.7-2.1-1.4-3-2.3c-0.9-0.8-1.7-1.8-2.3-2.8c-0.5-1.1-0.8-2.2-1-3.3c-0.2-1.1-0.4-2.2-0.5-3.2
		c-0.5-4.2-0.8-8.1-1.1-11.5s-0.6-6.3-0.9-8.6c-0.2-1.8-0.6-3.6-1.1-5.4c-0.1-0.5-0.3-0.9-0.5-1.4
		C366.1,267.5,366.1,267.3,366,267.2z"/>
	<path class="st6" d="M423.7,408.1c0,0,0-0.1,0-0.4s0-0.7,0-1.2c0-1.1,0-2.6,0-4.7c0-4.1,0-10.1-0.1-17.7c0-15.2-0.1-36.9-0.1-62.9
		l0.2,0.2h-80.6l0,0l0.3-0.3c0,32,0,61.8,0,86.9l-0.2-0.2l58.4,0.1L418,408h4.3h1.5h-1.5l-4.4,0.1l-16.3,0.1l-58.6,0.1h-0.2v-0.2
		c0-25.1,0-55,0-86.9v-0.3h0.3h80.6h0.2v0.2c0,26-0.1,47.8-0.1,63c0,7.6,0,13.6-0.1,17.7c0,2,0,3.6,0,4.6c0,0.5,0,0.9,0,1.2
		S423.7,408.1,423.7,408.1z"/>
	<path class="st6" d="M400.9,331.8c0,0.2-0.2,0.4-0.4,0.4c0,0,0,0,0,0c-0.2,0-0.4-0.1-0.5-0.4s0.1-0.4,0.4-0.5c0,0,0.1,0,0.1,0
		C400.8,331.4,400.9,331.6,400.9,331.8z"/>
	<path class="st6" d="M403.2,331.8c0,0.2-0.2,0.4-0.4,0.4c0,0,0,0,0,0c-0.2,0-0.4-0.1-0.5-0.4s0.1-0.4,0.4-0.5c0,0,0.1,0,0.1,0
		C403.1,331.4,403.2,331.6,403.2,331.8z"/>
	<path class="st6" d="M405.5,331.8c0,0.2-0.2,0.4-0.4,0.4c0,0,0,0,0,0c-0.2,0-0.4-0.1-0.5-0.4s0.1-0.4,0.4-0.5c0,0,0.1,0,0.1,0
		C405.3,331.4,405.5,331.6,405.5,331.8z"/>
	<path class="st6" d="M407.8,331.8c0,0.2-0.2,0.4-0.4,0.4s-0.4-0.2-0.4-0.4s0.2-0.4,0.4-0.4c0,0,0,0,0,0
		C407.6,331.4,407.8,331.6,407.8,331.8z"/>
	<path class="st6" d="M410.1,331.8c0,0.2-0.2,0.4-0.4,0.4h0c-0.2,0-0.4-0.3-0.4-0.5c0-0.2,0.2-0.3,0.4-0.4
		C409.9,331.4,410.1,331.6,410.1,331.8z"/>
	<path class="st6" d="M412.4,331.8c0,0.2-0.2,0.4-0.4,0.4h0c-0.2,0-0.4-0.3-0.4-0.5c0-0.2,0.2-0.3,0.4-0.4
		C412.2,331.4,412.4,331.6,412.4,331.8z"/>
	<path class="st6" d="M414.6,331.8c0,0.2-0.2,0.4-0.4,0.4h0c-0.2,0-0.4-0.3-0.4-0.5c0-0.2,0.2-0.3,0.4-0.4
		C414.5,331.4,414.6,331.6,414.6,331.8z"/>
	<circle class="st6" cx="413.2" cy="333.4" r="0.4"/>
	<circle class="st6" cx="410.9" cy="333.4" r="0.4"/>
	<path class="st6" d="M408.9,333.4c0,0.2-0.2,0.4-0.4,0.4l0,0c-0.2,0-0.4-0.2-0.4-0.4c0,0,0,0,0,0c0-0.2,0.2-0.4,0.4-0.4h0
		C408.8,332.9,408.9,333.1,408.9,333.4C408.9,333.4,408.9,333.4,408.9,333.4z"/>
	<circle class="st6" cx="406.2" cy="333.4" r="0.4"/>
	<circle class="st6" cx="403.9" cy="333.4" r="0.4"/>
	<path class="st6" d="M401.9,333.4c0,0.2-0.2,0.4-0.4,0.4c0,0,0,0,0,0c-0.2,0-0.4-0.2-0.4-0.4l0,0c0-0.2,0.2-0.4,0.4-0.4
		c0,0,0,0,0,0C401.8,332.9,401.9,333.1,401.9,333.4L401.9,333.4z"/>
	<path class="st6" d="M400.9,335.1c0,0.2-0.2,0.4-0.4,0.4l0,0c-0.2,0-0.4-0.2-0.4-0.4c0,0,0,0,0,0c0-0.2,0.2-0.4,0.4-0.4h0
		C400.8,334.7,400.9,334.9,400.9,335.1C400.9,335.1,400.9,335.1,400.9,335.1z"/>
	<path class="st6" d="M403.2,335.1c0,0.2-0.2,0.4-0.4,0.4l0,0c-0.2,0-0.4-0.2-0.4-0.4c0,0,0,0,0,0c0-0.2,0.2-0.4,0.4-0.4h0
		C403.1,334.7,403.3,334.9,403.2,335.1C403.3,335.1,403.3,335.1,403.2,335.1z"/>
	<path class="st6" d="M405.5,335.1c0,0.2-0.2,0.4-0.4,0.4l0,0c-0.2,0-0.4-0.2-0.4-0.4c0,0,0,0,0,0c0-0.2,0.2-0.4,0.4-0.4h0
		C405.3,334.7,405.5,334.9,405.5,335.1C405.5,335.1,405.5,335.1,405.5,335.1z"/>
	<path class="st6" d="M407.8,335.1c0,0.2-0.3,0.4-0.5,0.4c-0.2,0-0.3-0.2-0.4-0.4c0-0.2,0.1-0.4,0.4-0.5s0.4,0.1,0.5,0.4
		C407.8,335,407.8,335,407.8,335.1z"/>
	<path class="st6" d="M410.1,335.1c0,0.2-0.2,0.4-0.4,0.4c0,0,0,0,0,0c-0.2,0-0.4-0.2-0.4-0.4l0,0c0-0.2,0.2-0.4,0.4-0.4
		c0,0,0,0,0,0C409.9,334.7,410.1,334.9,410.1,335.1L410.1,335.1z"/>
	<path class="st6" d="M412.4,335.1c0,0.2-0.2,0.4-0.4,0.4c0,0,0,0,0,0c-0.2,0-0.4-0.2-0.4-0.4l0,0c0-0.2,0.2-0.4,0.4-0.4
		c0,0,0,0,0,0C412.2,334.7,412.4,334.9,412.4,335.1L412.4,335.1z"/>
	<path class="st6" d="M414.6,335.1c0,0.2-0.2,0.4-0.4,0.4c0,0,0,0,0,0c-0.2,0-0.4-0.2-0.4-0.4l0,0c0-0.2,0.2-0.4,0.4-0.4
		c0,0,0,0,0,0C414.5,334.7,414.6,334.9,414.6,335.1L414.6,335.1z"/>
	<path class="st6" d="M413.6,336.6c0,0.2-0.2,0.4-0.4,0.4h0c-0.2,0-0.4-0.2-0.4-0.4c0,0,0,0,0,0c0-0.2,0.2-0.4,0.4-0.4l0,0
		C413.4,336.2,413.6,336.4,413.6,336.6C413.6,336.6,413.6,336.6,413.6,336.6z"/>
	<path class="st6" d="M411.3,336.6c0,0.2-0.2,0.4-0.4,0.4c0,0,0,0,0,0c-0.2,0-0.4-0.2-0.4-0.4v0c0-0.2,0.2-0.4,0.4-0.4c0,0,0,0,0,0
		C411.1,336.2,411.3,336.4,411.3,336.6L411.3,336.6z"/>
	<path class="st6" d="M408.9,336.6c0,0.2-0.2,0.4-0.4,0.4c0,0,0,0,0,0c-0.2,0-0.4-0.2-0.4-0.4v0c0-0.2,0.2-0.4,0.4-0.4c0,0,0,0,0,0
		C408.8,336.2,408.9,336.4,408.9,336.6L408.9,336.6z"/>
	<path class="st6" d="M406.6,336.6c0,0.2-0.2,0.4-0.4,0.4c0,0,0,0,0,0c-0.2,0-0.4-0.2-0.4-0.4v0c0-0.2,0.2-0.4,0.4-0.4c0,0,0,0,0,0
		C406.4,336.2,406.6,336.4,406.6,336.6L406.6,336.6z"/>
	<path class="st6" d="M404.3,336.6c0,0.2-0.1,0.4-0.4,0.5s-0.4-0.1-0.5-0.4c0,0,0-0.1,0-0.1c0-0.2,0.3-0.4,0.5-0.4
		C404.1,336.3,404.2,336.4,404.3,336.6z"/>
	<path class="st6" d="M401.9,336.6c0,0.2-0.2,0.4-0.4,0.4h0c-0.2,0-0.4-0.2-0.4-0.4c0,0,0,0,0,0c0-0.2,0.2-0.4,0.4-0.4l0,0
		C401.7,336.2,401.9,336.4,401.9,336.6C401.9,336.6,401.9,336.6,401.9,336.6z"/>
	<path class="st6" d="M400.9,338.4c0,0.2-0.2,0.4-0.4,0.4c0,0,0,0,0,0c-0.2,0-0.4-0.2-0.4-0.4v0c0-0.2,0.2-0.4,0.4-0.4c0,0,0,0,0,0
		C400.8,337.9,400.9,338.1,400.9,338.4L400.9,338.4z"/>
	<path class="st6" d="M403.2,338.4c0,0.2-0.2,0.4-0.4,0.4c0,0,0,0,0,0c-0.2,0-0.4-0.2-0.4-0.4v0c0-0.2,0.2-0.4,0.4-0.4c0,0,0,0,0,0
		C403.1,337.9,403.2,338.1,403.2,338.4L403.2,338.4z"/>
	<path class="st6" d="M405.5,338.4c0,0.2-0.2,0.4-0.4,0.4c0,0,0,0,0,0c-0.2,0-0.4-0.2-0.4-0.4v0c0-0.2,0.2-0.4,0.4-0.4c0,0,0,0,0,0
		C405.3,337.9,405.5,338.1,405.5,338.4L405.5,338.4z"/>
	<path class="st6" d="M407.8,338.4c0,0.2-0.1,0.4-0.4,0.5s-0.4-0.1-0.5-0.4c0,0,0-0.1,0-0.1c0-0.2,0.3-0.4,0.5-0.4
		C407.6,338,407.8,338.2,407.8,338.4z"/>
	<path class="st6" d="M410.1,338.4c0,0.2-0.2,0.4-0.4,0.4h0c-0.2,0-0.4-0.2-0.4-0.4c0,0,0,0,0,0c0-0.2,0.2-0.4,0.4-0.4l0,0
		C409.9,337.9,410.1,338.1,410.1,338.4C410.1,338.3,410.1,338.3,410.1,338.4z"/>
	<path class="st6" d="M412.4,338.4c0,0.2-0.2,0.4-0.4,0.4h0c-0.2,0-0.4-0.2-0.4-0.4c0,0,0,0,0,0c0-0.2,0.2-0.4,0.4-0.4l0,0
		C412.2,337.9,412.4,338.1,412.4,338.4C412.4,338.3,412.4,338.3,412.4,338.4z"/>
	<path class="st6" d="M414.6,338.4c0,0.2-0.2,0.4-0.4,0.4h0c-0.2,0-0.4-0.2-0.4-0.4c0,0,0,0,0,0c0-0.2,0.2-0.4,0.4-0.4l0,0
		C414.5,337.9,414.6,338.1,414.6,338.4C414.6,338.3,414.6,338.3,414.6,338.4z"/>
	<circle class="st6" cx="413.2" cy="339.9" r="0.4"/>
	<circle class="st6" cx="410.9" cy="339.9" r="0.4"/>
	<path class="st6" d="M408.9,339.9c0,0.2-0.2,0.4-0.4,0.4l0,0c-0.2,0-0.4-0.1-0.5-0.4s0.1-0.4,0.4-0.5c0,0,0.1,0,0.1,0
		C408.8,339.5,408.9,339.7,408.9,339.9C408.9,339.9,408.9,339.9,408.9,339.9z"/>
	<circle class="st6" cx="406.2" cy="339.9" r="0.4"/>
	<circle class="st6" cx="403.9" cy="339.9" r="0.4"/>
	<path class="st6" d="M401.9,339.9c0,0.2-0.2,0.4-0.4,0.4c-0.2,0-0.4-0.3-0.4-0.5c0-0.2,0.2-0.3,0.4-0.4
		C401.8,339.5,401.9,339.7,401.9,339.9z"/>
	<path class="st1" d="M369.4,238.4c0.6,0,1.1,0.1,1.6,0.3c1.5,0.5,2.9,1.4,3.9,2.6c1.6,1.9,2.8,4.2,3.5,6.6c1,3.2,1.7,6.4,2.2,9.7
		c1.1,8.5,1.3,17.2,0.6,25.8c-0.1,2.5-0.9,5-2.2,7.1c-0.7,1.1-1.7,2-2.8,2.7c-1.2,0.7-2.5,1.1-3.9,0.9c-1.4-0.1-2.7-0.7-3.7-1.7
		c-0.5-0.5-0.9-1.1-1.1-1.8c-0.2-0.7-0.2-1.4,0-2.1c0.4-1.4,1.4-2.6,2.8-3.1c0.7-0.3,1.5-0.3,2.2,0c0.7,0.3,1.3,0.7,1.8,1.3
		c0.9,1.2,1.2,2.7,1,4.1c-0.2,1.4-0.7,2.7-1.5,3.9c-4.1,7.2-13.2,9.9-20.5,5.9c-2.1-1.2-3.9-2.7-5.4-4.6c-1.4-1.8-2.5-3.7-3.3-5.8
		c-1.3-3.8-2.1-7.8-2.2-11.8c-0.2-3.7,0-7-0.4-9.9c-0.2-1.3-0.5-2.6-0.9-3.9c-0.4-1.1-1-2-1.7-2.9c-1-1.2-2.2-2.2-3.7-2.8
		c-0.5-0.2-1.1-0.3-1.6-0.4c0.6,0,1.1,0.1,1.6,0.3c1.5,0.5,2.8,1.5,3.8,2.7c0.7,0.9,1.3,1.9,1.8,3c0.5,1.3,0.8,2.6,1,4
		c0.4,2.9,0.2,6.2,0.4,9.9c0.1,4,0.9,7.9,2.2,11.7c0.8,2.1,1.9,4,3.2,5.7c1.4,1.8,3.2,3.4,5.3,4.5c7.1,3.8,15.9,1.2,19.8-5.8
		c0.7-1.2,1.2-2.4,1.4-3.8c0.2-1.3-0.1-2.7-0.9-3.8c-0.4-0.5-0.9-0.9-1.5-1.2c-0.6-0.2-1.3-0.2-1.9,0c-1.2,0.5-2.1,1.5-2.5,2.8
		c-0.3,1.3,0.1,2.6,1,3.5c0.9,0.9,2.1,1.5,3.4,1.6c1.3,0.1,2.5-0.2,3.6-0.9c1.1-0.7,2-1.5,2.7-2.6c1.3-2.1,2-4.5,2.2-6.9
		c0.7-8.5,0.5-17.1-0.5-25.6c-0.5-3.3-1.2-6.5-2.1-9.6c-0.6-2.4-1.8-4.6-3.4-6.5c-1-1.2-2.3-2.1-3.8-2.6
		C370.5,238.7,370,238.5,369.4,238.4z"/>
	<rect x="328.4" y="252.9" class="st1" width="33.2" height="6.3"/>
	<rect x="78.5" y="318.3" class="st6" width="43.3" height="93.3"/>
	<path class="st11" d="M118.1,401.7c0,0,0-0.1,0-0.4s0-0.7,0-1.2c0-1,0-2.5,0-4.5c0-3.9,0-9.5-0.1-16.7c0-14.2-0.1-34.2-0.1-57.5
		l0.2,0.2H81.9l0,0l0.3-0.3c0,31.2,0,59.5-0.1,80.2l-0.2-0.2l26.5,0.1l7.2,0h1.9C117.9,401.7,118.1,401.7,118.1,401.7l-0.5-0.1h-1.9
		h-7.2l-26.6,0.1h-0.2v-0.2c0-20.8,0-49.1-0.1-80.2v-0.3h36.8v0.2c0,23.4-0.1,43.4-0.1,57.7c0,7.1,0,12.7-0.1,16.6
		c0,1.9,0,3.4,0,4.4c0,0.5,0,0.9,0,1.1S118.1,401.7,118.1,401.7z"/>
	<path class="st11" d="M115.8,328.3c0,0,0-0.4,0-1s0-1.6-0.1-2.7l0.1,0.1c-5.6,0.1-17.6,0.1-31.5,0.1l0,0l0.3-0.3l0,0v1.9
		c0,0.6,0,1.2,0,1.8l-0.2-0.3c8.8,0,16.7,0.1,22.3,0.1l6.7,0.1h1.8c0.2,0,0.4,0,0.7,0c-0.2,0-0.4,0-0.6,0h-1.8l-6.6,0.1
		c-5.7,0.1-13.6,0.1-22.5,0.1h-0.3v-3.9l0,0l0.3-0.3l0,0c13.9,0,25.9,0.1,31.5,0.1h0v0.1c0,1.2,0,2.1-0.1,2.8
		C115.9,327.6,115.9,327.9,115.8,328.3z"/>
	<path class="st11" d="M87.5,330.9c0,0.1-0.7,0.3-1.4,0.3s-1.5-0.1-1.5-0.3s0.7-0.3,1.5-0.3S87.5,330.8,87.5,330.9z"/>
	<path class="st11" d="M115,335.8c0,0.1-6.7,0.3-15,0.3s-15-0.1-15-0.3s6.7-0.3,15-0.3S115,335.6,115,335.8z"/>
	<path class="st11" d="M115.1,341.6c0,0.1-6.6,0.3-14.7,0.3s-14.7-0.1-14.7-0.3s6.6-0.3,14.7-0.3S115.1,341.4,115.1,341.6z"/>
	<circle class="st7" cx="100" cy="355.1" r="2.4"/>
	<path class="st11" d="M93.3,355.1c-1,0.3-2.1,0.3-3.2,0.3c-1.1,0.1-2.1,0-3.1-0.3c1-0.3,2.1-0.3,3.2-0.3
		C91.2,354.7,92.2,354.8,93.3,355.1z"/>
	<path class="st11" d="M112.6,354.4c-1,0.3-2,0.3-3,0.3c-1,0.1-2,0-3-0.3c1-0.3,2-0.3,3-0.3C110.6,354.1,111.7,354.2,112.6,354.4z"
		/>
	<path class="st6" d="M79.9,365.1c-0.5-0.1-1.1-0.2-1.6-0.3c-1.5-0.4-3-1.1-4.3-2c-2.1-1.4-3.8-3.3-5.2-5.4c-1.7-2.8-3-5.9-3.8-9.2
		c-1-3.9-1.4-7.9-1.2-11.9c0.3-4.7,1.8-9.1,4.6-12.9c1.5-2,3.3-3.8,5.4-5.2c1.1-0.7,2.3-1.3,3.5-1.7c1.3-0.4,2.5-0.7,3.9-0.9
		c2.6-0.4,5.3-0.3,8-0.5c2.7-0.1,5.4-0.7,7.9-1.8c2.5-1.1,4.3-3.4,4.9-6c1-4.5-1.8-9.1-6.3-10.1c-0.7-0.2-1.4-0.2-2.1-0.2
		c-1.2,0.1-2.4,0.5-3.3,1.2c-0.9,0.7-1.4,1.8-1.4,3c0.3,2.3,2.1,4.1,4.5,4.3c2.2,0,4.3-0.9,5.7-2.6c1.3-1.6,2.3-3.4,2.8-5.4
		c0.5-1.8,0.9-3.7,1.2-5.6c0.7-5.7,0.9-11.5,0.5-17.3c-0.1-2-0.2-3.6-0.2-4.7c0-0.5,0-0.9-0.1-1.2c0-0.1,0-0.3,0-0.4
		c0,0.1,0.1,0.3,0.1,0.4c0,0.3,0.1,0.7,0.1,1.2c0.1,1.1,0.2,2.7,0.3,4.7c0.4,5.8,0.3,11.6-0.4,17.4c-0.3,1.9-0.6,3.8-1.1,5.7
		c-0.5,2.1-1.5,4-2.8,5.6c-1.5,1.8-3.7,2.8-6.1,2.7c-2.6-0.2-4.6-2.2-4.9-4.7c-0.1-1.3,0.5-2.6,1.6-3.4c1-0.8,2.3-1.3,3.6-1.4
		c5-0.1,9,3.9,9.1,8.9c0,2.1-0.7,4.1-2,5.8c-0.9,1.1-2.1,2-3.3,2.6c-2.5,1.2-5.3,1.8-8.1,1.9c-2.7,0.2-5.4,0.1-8,0.5
		c-1.3,0.2-2.5,0.5-3.8,0.9c-1.2,0.4-2.3,1-3.4,1.7c-2.1,1.3-3.9,3-5.3,5c-2.7,3.7-4.2,8.1-4.5,12.7c-0.3,4,0.1,8,1.1,11.8
		c0.7,3.2,2,6.3,3.7,9.1c1.3,2.1,3,3.9,5,5.4c1.3,0.9,2.7,1.6,4.2,2.1c0.5,0.1,0.9,0.2,1.2,0.3C79.7,365,79.8,365,79.9,365.1z"/>
	<rect x="65.2" y="173.6" class="st6" width="102.6" height="70.5"/>
	<rect x="108.6" y="234.4" class="st6" width="14" height="26.6"/>
</g>
<g id="Desk">
	<polygon class="st6" points="75.4,260 75.4,269.6 128.3,269.6 128.3,412 133.2,412 133.2,269.6 354.3,270.7 354.3,412 359.1,412 
		359.1,270.4 393.2,270.7 393.2,259.2 	"/>
	<polygon class="st6" points="109.3,267.7 130.1,282.7 128.3,284.5 107.3,268.6 	"/>
	<polygon class="st6" points="378.8,269.1 354.5,286.4 356.4,288.1 380.7,270 	"/>
	<rect x="152.4" y="256.5" class="st6" width="54.7" height="4"/>
</g>
</svg>
