<svg id="Layer_1" data-name="Layer 1" xmlns="http://www.w3.org/2000/svg" viewBox="0 0 1922 478.04"><defs><style>.cls-1{fill:#233142;stroke:#000;stroke-miterlimit:10;}</style></defs><path class="cls-1" d="M1115.5,804.5" transform="translate(1)"/><path class="cls-1" d="M354.5,456.5c51.14-15.31,76.34-31.85,129-59,63.38-32.68,153.13-79,215-93,179.76-40.79,249.66,162.07,441,143.46,150.41-14.62,173.76-147,311-132.17,111.08,12,139.63,102.84,248,105.5,94.54,2.31,172.32-64.37,222-118.84V.5H-.5V347.31a286.31,286.31,0,0,0,57,64.19,291.87,291.87,0,0,0,124,60C251.42,486.62,308.65,470.23,354.5,456.5Z" transform="translate(1)"/><path class="cls-1" d="M176.5,493.5" transform="translate(1)"/></svg>