<svg id="Слой_1" data-name="Слой 1" xmlns="http://www.w3.org/2000/svg" xmlns:xlink="http://www.w3.org/1999/xlink" viewBox="0 0 2540.13 2000"><defs><style>.cls-1{fill:#fcfcfc;}.cls-2{fill:url(#linear-gradient);}.cls-3{fill:url(#linear-gradient-2);}.cls-4{fill:url(#linear-gradient-3);}.cls-5{fill:url(#linear-gradient-4);}.cls-6{fill:#f0c141;}.cls-7{fill:#8f8f8f;}.cls-8{fill:#f0f0f0;}.cls-9{fill:#fff;}.cls-10{fill:url(#linear-gradient-5);}.cls-11{fill:#ccc;}.cls-12{fill:#f5f7ff;}.cls-13{fill:#e6e6e6;}.cls-14{fill:#78c2ff;}.cls-15{fill:#f3f3f3;}.cls-16{fill:url(#linear-gradient-6);}.cls-17{fill:url(#linear-gradient-7);}.cls-18{fill:url(#linear-gradient-8);}.cls-19{fill:url(#linear-gradient-9);}.cls-20{fill:url(#linear-gradient-10);}.cls-21{fill:url(#linear-gradient-11);}.cls-22{fill:#eea886;}.cls-23{fill:#db9c7c;}.cls-24{fill:#323657;}.cls-25{fill:#4da8f2;}.cls-26{fill:#efaa88;}.cls-27{fill:#424773;}.cls-28{fill:#292c47;}.cls-29{fill:#d88a51;}.cls-30{fill:#e2d2ca;}.cls-31{fill:#dfe1e8;}.cls-32{fill:#de9673;}.cls-33{fill:#2f4563;}.cls-34{fill:#1e2d40;}.cls-35{fill:#23344a;}.cls-36{fill:#41608a;}.cls-37{fill:#eea987;}.cls-38{fill:#eb4747;}.cls-39{fill:#464240;}.cls-40{fill:#a77860;}.cls-41{fill:#6e6760;}.cls-42{fill:#5c544d;}.cls-43{fill:#3c4145;}.cls-44{fill:#33373b;}.cls-45{fill:#fccca2;}.cls-46{fill:#d6d6d6;}.cls-47{fill:#c98462;}.cls-48{fill:#de9d7d;}.cls-49{fill:#1d3b54;}.cls-50{fill:#434343;}.cls-51{fill:#cf8c6c;}.cls-52{fill:#eef0f7;}.cls-53{fill:#e0e0e0;}.cls-54{fill:#b8b8b8;}.cls-55{fill:#d9d9d9;}.cls-56{fill:url(#linear-gradient-12);}.cls-57{fill:url(#linear-gradient-13);}</style><linearGradient id="linear-gradient" x1="-11517.05" y1="496.85" x2="-11128.95" y2="496.85" gradientTransform="matrix(-1, -0.05, -0.05, 1, -10712.4, -262.79)" gradientUnits="userSpaceOnUse"><stop offset="0" stop-color="#40d5e6"/><stop offset="1" stop-color="#57f"/></linearGradient><linearGradient id="linear-gradient-2" x1="-3043.09" y1="4004.77" x2="-3043.09" y2="3731.88" gradientTransform="translate(403.18 -3989.72) rotate(-41.45)" xlink:href="#linear-gradient"/><linearGradient id="linear-gradient-3" x1="-11479.9" y1="379.71" x2="-11296.2" y2="379.71" xlink:href="#linear-gradient"/><linearGradient id="linear-gradient-4" x1="-1375.04" y1="3396.01" x2="-1375.04" y2="3128.05" gradientTransform="translate(250.24 -2755.38) rotate(-29.45)" xlink:href="#linear-gradient"/><linearGradient id="linear-gradient-5" x1="715.82" y1="547.58" x2="1827.13" y2="547.58" gradientTransform="translate(2542.95 1095.16) rotate(-180)" xlink:href="#linear-gradient"/><linearGradient id="linear-gradient-6" x1="-4687.12" y1="1329.51" x2="-4467.71" y2="1329.51" gradientTransform="matrix(-1, 0, 0, 1, -4081.01, 0)" xlink:href="#linear-gradient"/><linearGradient id="linear-gradient-7" x1="-4526.17" y1="1451.94" x2="-4327.76" y2="1451.94" gradientTransform="matrix(-1, 0, 0, 1, -4081.01, 0)" xlink:href="#linear-gradient"/><linearGradient id="linear-gradient-8" x1="-4509.21" y1="1480.79" x2="-4360.29" y2="1480.79" gradientTransform="matrix(-1, 0, 0, 1, -4081.01, 0)" xlink:href="#linear-gradient"/><linearGradient id="linear-gradient-9" x1="-4562.99" y1="1360.95" x2="-4389.55" y2="1360.95" gradientTransform="matrix(-1, 0, 0, 1, -4081.01, 0)" xlink:href="#linear-gradient"/><linearGradient id="linear-gradient-10" x1="355.71" y1="1609.72" x2="515.75" y2="1609.72" gradientTransform="translate(6.03 0)" gradientUnits="userSpaceOnUse"><stop offset="0" stop-color="#ff9340"/><stop offset="1" stop-color="#ffce45"/></linearGradient><linearGradient id="linear-gradient-11" x1="355.71" y1="1609.72" x2="515.75" y2="1609.72" gradientTransform="translate(6.03)" gradientUnits="userSpaceOnUse"><stop offset="0" stop-color="#c97332"/><stop offset="1" stop-color="#ffce45"/></linearGradient><linearGradient id="linear-gradient-12" x1="1445.09" y1="758.81" x2="831.5" y2="758.81" gradientTransform="matrix(1, 0, 0, 1, 0, 0)" xlink:href="#linear-gradient"/><linearGradient id="linear-gradient-13" x1="777.55" y1="744.17" x2="1379.25" y2="744.17" gradientTransform="matrix(1, 0, 0, 1, 0, 0)" xlink:href="#linear-gradient"/></defs><rect class="cls-1" width="2540.13" height="2000"/><path class="cls-2" d="M726.51,863.11c25.15,54.9,39.29,106.84,20.76,130a30.35,30.35,0,0,1-3.58,3.76c-14.27,12.57-42.33,12.86-89.71-5.86-126.09-49.8-132.07-135.76-157.57-219.7-25.14-82.89-113-68.88-115.2-68.51C585.83,631.55,683.83,770,726.51,863.11Z" transform="translate(0 0)"/><path class="cls-3" d="M747.27,993.13a30.35,30.35,0,0,1-3.58,3.76c-23.69-14.26-69-44.51-90.42-78.47-10.08-16-18.56-34.06-27.55-53.12-17-36.06-34.55-73.35-65.21-101.95l3.42-3.68c31.37,29.28,49.13,67,66.32,103.5,8.91,18.93,17.32,36.81,27.26,52.57C678.37,948.86,724.19,979.23,747.27,993.13Z" transform="translate(0 0)"/><path class="cls-4" d="M704.6,885.54c-1.49,3.65-2.45,5.72-2.55,6-.39-2-.77-4-1.15-6C684.08,799.35,661.59,790.35,594.14,715,525.17,637.85,564.83,566,564.83,566,795.91,632.78,720.3,847,704.6,885.54Z" transform="translate(0 0)"/><path class="cls-5" d="M704.6,885.54c-1.49,3.65-2.45,5.72-2.55,6-.39-2-.77-4-1.15-6,7.49-74.51-37.46-161.94-51.59-177.63-14.61-16.24-23.62-38.58-27-47-.57-1.4-1.11-2.73-1.28-3l3.26-1.84c.28.51.66,1.44,1.49,3.48,3.32,8.25,12.16,30.14,26.34,45.88C670,725.29,711.47,813.14,704.6,885.54Z" transform="translate(0 0)"/><path class="cls-6" d="M2015.1,531.26l-28.47-46.63a8.11,8.11,0,0,1,13.84-8.46l20.14,33,53.54-31.69a8.11,8.11,0,1,1,8.26,14Z" transform="translate(0 0)"/><path class="cls-6" d="M2034.22,603.13a102.42,102.42,0,1,1,102.42-102.41A102.52,102.52,0,0,1,2034.22,603.13Zm0-190.2A87.79,87.79,0,1,0,2122,500.72,87.88,87.88,0,0,0,2034.22,412.93Z" transform="translate(0 0)"/><path class="cls-6" d="M1697.93,380.63l-17.6-28.82a5,5,0,1,1,8.56-5.22L1701.33,367l33.09-19.58a5,5,0,1,1,5.11,8.63Z" transform="translate(0 0)"/><path class="cls-6" d="M1709.75,425A63.29,63.29,0,1,1,1773,361.75,63.36,63.36,0,0,1,1709.75,425Zm0-117.54A54.25,54.25,0,1,0,1764,361.75,54.31,54.31,0,0,0,1709.75,307.5Z" transform="translate(0 0)"/><path class="cls-6" d="M1372.48,274.27l-27-44.2a7.69,7.69,0,0,1,13.12-8l19.1,31.26,50.75-30a7.69,7.69,0,0,1,7.83,13.24Z" transform="translate(0 0)"/><path class="cls-6" d="M1390.6,342.41a97.09,97.09,0,1,1,97.09-97.09A97.2,97.2,0,0,1,1390.6,342.41Zm0-180.31a83.22,83.22,0,1,0,83.22,83.22A83.32,83.32,0,0,0,1390.6,162.1Z" transform="translate(0 0)"/><path class="cls-6" d="M1086.93,380.22,1069.09,351a5.08,5.08,0,1,1,8.67-5.3l12.62,20.65,33.53-19.85a5.08,5.08,0,1,1,5.18,8.75Z" transform="translate(0 0)"/><path class="cls-6" d="M1098.91,425.25a64.16,64.16,0,1,1,64.15-64.16A64.23,64.23,0,0,1,1098.91,425.25Zm0-119.15a55,55,0,1,0,55,55A55,55,0,0,0,1098.91,306.1Z" transform="translate(0 0)"/><path class="cls-6" d="M836.31,239.93,814,203.37a6.36,6.36,0,0,1,10.86-6.64l15.79,25.86,42-24.85a6.36,6.36,0,1,1,6.48,10.95Z" transform="translate(0 0)"/><path class="cls-6" d="M851.31,296.29A80.31,80.31,0,1,1,931.62,216,80.4,80.4,0,0,1,851.31,296.29Zm0-149.15A68.84,68.84,0,1,0,920.14,216,68.92,68.92,0,0,0,851.31,147.14Z" transform="translate(0 0)"/><path class="cls-6" d="M551.85,421.69l-24.76-40.54a7.05,7.05,0,0,1,12-7.35l17.51,28.67,46.54-27.55a7.05,7.05,0,1,1,7.18,12.14Z" transform="translate(0 0)"/><path class="cls-6" d="M568.47,484.17a89,89,0,1,1,89-89A89.13,89.13,0,0,1,568.47,484.17Zm0-165.35a76.32,76.32,0,1,0,76.32,76.32A76.4,76.4,0,0,0,568.47,318.82Z" transform="translate(0 0)"/><path class="cls-6" d="M1910.13,255,1896.06,232a4,4,0,0,1,6.84-4.18l10,16.3,26.46-15.66a4,4,0,0,1,4.09,6.9Z" transform="translate(0 0)"/><path class="cls-6" d="M1919.58,290.55a50.63,50.63,0,1,1,50.63-50.62A50.68,50.68,0,0,1,1919.58,290.55Zm0-94a43.4,43.4,0,1,0,43.4,43.4A43.45,43.45,0,0,0,1919.58,196.53Z" transform="translate(0 0)"/><rect class="cls-7" x="1201.66" y="1235.62" width="139.64" height="424.12" transform="translate(2542.96 2895.36) rotate(180)"/><rect class="cls-8" x="668.6" y="589.33" width="1205.75" height="850.6" rx="61.33" transform="translate(2542.96 2029.25) rotate(180)"/><rect class="cls-9" x="715.82" y="498.8" width="1111.31" height="807.83" transform="translate(2542.96 1805.42) rotate(180)"/><rect class="cls-10" x="715.82" y="498.8" width="1111.31" height="97.57" transform="translate(2542.96 1095.16) rotate(180)"/><path class="cls-11" d="M1691.89,1367.62c0,21.48,20.48,38.9,45.74,38.9s45.73-17.42,45.73-38.9-20.48-38.89-45.73-38.89S1691.89,1346.14,1691.89,1367.62Z" transform="translate(0 0)"/><rect class="cls-11" x="957.38" y="1643.73" width="628.2" height="32.01"/><rect class="cls-12" x="762.24" y="529.15" width="158.5" height="36.87" rx="13.25"/><rect class="cls-13" x="797.24" y="936.33" width="581.84" height="20"/><rect class="cls-13" x="797.24" y="972.35" width="431.55" height="20"/><rect class="cls-13" x="797.24" y="1050.62" width="273.63" height="20"/><rect class="cls-13" x="797.24" y="1086.65" width="491.6" height="20"/><rect class="cls-13" x="797.24" y="1172.71" width="460.53" height="20"/><rect class="cls-13" x="797.24" y="1208.73" width="562.36" height="20"/><rect class="cls-14" x="768.85" y="936.33" width="14.62" height="56.02"/><rect class="cls-14" x="768.85" y="1050.62" width="14.62" height="56.02"/><rect class="cls-14" x="768.85" y="1172.71" width="14.62" height="56.02"/><rect class="cls-14" x="1508.95" y="1173.82" width="80.14" height="80.14" rx="16.77"/><path class="cls-15" d="M1546.48,1231.54l-20.26-17.66a4,4,0,1,1,5.25-6l14.32,12.49,20.43-22.78a4,4,0,0,1,6,5.32Z" transform="translate(0 0)"/><path class="cls-14" d="M1570.86,1131.91h-43.69a18.28,18.28,0,0,1-18.26-18.26V1070a18.29,18.29,0,0,1,18.26-18.27h43.69a18.29,18.29,0,0,1,18.27,18.27v43.69A18.28,18.28,0,0,1,1570.86,1131.91Zm-43.69-75.13A13.19,13.19,0,0,0,1514,1070v43.69a13.19,13.19,0,0,0,13.17,13.17h43.69a13.19,13.19,0,0,0,13.18-13.17V1070a13.19,13.19,0,0,0-13.18-13.18Z" transform="translate(0 0)"/><path class="cls-14" d="M1691.53,1254h-43.7a18.28,18.28,0,0,1-18.26-18.26v-43.69a18.29,18.29,0,0,1,18.26-18.27h43.7a18.29,18.29,0,0,1,18.26,18.27v43.69A18.28,18.28,0,0,1,1691.53,1254Zm-43.7-75.13a13.2,13.2,0,0,0-13.18,13.18v43.69a13.2,13.2,0,0,0,13.18,13.17h43.7a13.19,13.19,0,0,0,13.17-13.17v-43.69a13.19,13.19,0,0,0-13.17-13.18Z" transform="translate(0 0)"/><rect class="cls-14" x="1629.61" y="1051.73" width="80.14" height="80.14" rx="16.77"/><path class="cls-15" d="M1667.14,1109.45l-20.26-17.66a4,4,0,1,1,5.25-6l14.32,12.49,20.43-22.79a4,4,0,0,1,5.95,5.32Z" transform="translate(0 0)"/><path class="cls-14" d="M1691.53,1009.82h-43.7a18.28,18.28,0,0,1-18.26-18.26V947.87a18.29,18.29,0,0,1,18.26-18.27h43.7a18.29,18.29,0,0,1,18.26,18.27v43.69A18.28,18.28,0,0,1,1691.53,1009.82Zm-43.7-75.13a13.2,13.2,0,0,0-13.18,13.18v43.69a13.2,13.2,0,0,0,13.18,13.18h43.7a13.2,13.2,0,0,0,13.17-13.18V947.87a13.19,13.19,0,0,0-13.17-13.18Z" transform="translate(0 0)"/><rect class="cls-14" x="1508.95" y="929.64" width="80.14" height="80.14" rx="16.77"/><path class="cls-15" d="M1546.48,987.36l-20.26-17.66a4,4,0,1,1,5.25-6l14.32,12.49,20.43-22.79a4,4,0,1,1,6,5.33Z" transform="translate(0 0)"/><path class="cls-16" d="M586.94,1039.59c-18.92-9-37.75,51.18-37.75,51.18-32.15,42.49-77.09-14-72.69,49.48,7.68,111.14-127.94,35-65.37,151s-55.25,65.61-16.36,159.18-11.52,205.16,47,159.3c0,0,51.51-113,104.64-147.92s-31.83-76.42-15.21-123.89c24.14-69,82.31-66.25,40.37-140.34S651.25,1070.34,586.94,1039.59Z" transform="translate(0 0)"/><path class="cls-9" d="M423.23,1567.21c25.36-17.84,55-142.13,56.81-216.16.91-37.92,12.12-53.71,22-67.65,9.45-13.33,17.61-24.83,12.86-51.25-9.09-50.49,14.8-72.29,15.05-72.5l-2.77-3.16c-1.06.93-26,23.41-16.41,76.4,4.44,24.69-2.88,35-12.15,48.08-9.73,13.72-21.84,30.78-22.78,70-1.9,79.45-32.25,196.8-55,212.82Z" transform="translate(0 0)"/><path class="cls-17" d="M370.07,1531c-2.39-5.42-4.87-11-7.67-17-14.49-30.58-27.32-35.62-48.58-44-5.2-2-11.08-4.35-17.55-7.26-30.45-13.69-24.56-33.86-19.35-51.65.72-2.49,1.45-5,2.08-7.43,2.68-10.47-2.47-15.72-10.26-23.67-5.79-5.9-13-13.26-18.55-24.87-6.08-12.71-3-19.52.69-23,7.73-7.32,25.54-6,42.36,3.21h0c5.23,2.85,9.53,7.36,14.08,12.13,10.72,11.23,24.07,25.2,57.82,25.36,19.24.09,29.78,2.74,35.24,8.88,6.2,7,5,17.38,3.42,31.81-.56,5-1.2,10.64-1.58,16.75-2.3,36.45,19.22,62.75,19.43,63,12.86,15.31,28.7,47.07,21.86,66.62-2.86,8.19-9.27,13.35-19.05,15.32a54,54,0,0,1-10.72,1.17C390.14,1576.42,381.5,1556.84,370.07,1531Zm-78.84-191.9c-15-8.2-31.13-9.85-37.47-3.84-4.81,4.56-2.54,12.38.21,18.14,5.26,11,11.9,17.77,17.77,23.75,8.15,8.32,14.59,14.88,11.32,27.64-.64,2.5-1.38,5-2.12,7.56C275.76,1430,270.87,1446.76,298,1459c6.37,2.86,12.21,5.15,17.36,7.17,21.46,8.42,35.64,14,50.84,46.07,2.83,6,5.32,11.61,7.72,17.06,13.12,29.73,21,47.68,49.72,41.88,8.22-1.66,13.58-5.9,15.92-12.6,6-17.23-8.39-47.39-21.11-62.54-.93-1.12-22.81-27.79-20.41-66,.39-6.21,1-11.92,1.6-17,1.49-13.35,2.57-23-2.38-28.55-4.53-5.09-14.44-7.4-32.13-7.48-35.53-.17-49.56-14.85-60.83-26.66-4.51-4.72-8.41-8.8-13.06-11.34Z" transform="translate(0 0)"/><path class="cls-18" d="M424,1600.63l4.19-.22c-.21-3.93-5.49-96.69-42.73-123.83-40.86-29.79-53.74-61.79-59.88-83.27-7.22-25.32-44-32.08-45.58-32.36l-.73,4.13c.35.07,35.77,6.59,42.28,29.38,6.31,22.08,19.54,55,61.44,85.5C418.64,1506,424,1599.69,424,1600.63Z" transform="translate(0 0)"/><path class="cls-19" d="M338.86,1133.19c26.47-9.08,21,41.94,32.16,79.69s124.43,16.47,76.89,111,60.12,31.61,28,114.1-2.79,170.7-37.75,148.26-19.63-126.31-56-138.65-42.28-26.74-6.29-60.29-94.31-66.87-62.15-134.62S308.28,1143.67,338.86,1133.19Z" transform="translate(0 0)"/><path class="cls-9" d="M421.91,1582.28c3.33-14.12,31.75-138.39,5.23-153.41-23.38-13.24-22.8-64.73-19.16-113.36,3.23-43-52.05-63.16-54.4-64l-1.41,4c.55.19,54.62,19.88,51.63,59.73-3.74,49.93-4.15,102.93,21.27,117.32,20.15,11.41,1.6,111.28-7.24,148.8Z" transform="translate(0 0)"/><polygon class="cls-20" points="521.78 1538.03 483.99 1681.41 399.53 1681.41 361.74 1538.03 521.78 1538.03"/><path class="cls-21" d="M521.78,1538s-83.2,15.62-83.2,143.38H399.53L361.74,1538Z" transform="translate(0 0)"/><path class="cls-22" d="M1183.66,1442.88s2.91,4.76,3.28,8.65c.28,3.08,2.87,7.68,4,10.22s4.73,14,4.86,17c0,1.22-2.68,8.93-2.29,11.4s1.8,7.35-.42,7.68-4.72-3.68-4.72-3.68a3.28,3.28,0,0,1-1.67,3.14c-3.65,1.68-5.57.2-5.57.2s-1.35,2.5-3,2.83c-3.72.74-5.54-.75-5.54-.75a6.71,6.71,0,0,1-4.21,1.35,5.51,5.51,0,0,1-4.67-2.9s-4.17.84-5.38-1.1-1-4-1.5-5.78-.12-17.66,5.28-29.11-1.37-22.62-1.37-22.62Z" transform="translate(0 0)"/><path class="cls-23" d="M1188.94,1492.7s.37-14.27-3.38-17.31-4.19,2.11-4.19,2.11.51-5.09-3.59-5.78-4.28,5.36-4.28,5.36a4,4,0,0,0-5-3.12c-4.31.81-3.28,5.82-3.28,5.82s-4.12-4.91-6.79-.19c-4.51,8-.17,17.37-.17,17.37s1.27,2.16,5.38,1.1c0,0,2.74,5.53,8.88,1.55,0,0,6.29,3.46,8.58-2.08C1181.12,1497.53,1188,1500.82,1188.94,1492.7Z" transform="translate(0 0)"/><path class="cls-24" d="M1232.07,1237.32s-24.43,81.42-32.68,111.45c-2.59,9.42-8.86,99.36-10,103s-32.09,8.59-32.09,8.59,3.75-112.52,4.1-118.66,34.19-131.79,44-136.27c7.37-3.36,11.26-.58,20.55,6.31C1239.06,1221.4,1232.07,1237.32,1232.07,1237.32Z" transform="translate(0 0)"/><rect class="cls-25" x="1466.19" y="1104.58" width="66.82" height="4.96" transform="translate(-361.4 1001.98) rotate(-33.2)"/><path class="cls-26" d="M1534.88,1107.72a14.55,14.55,0,0,1-1.44,4.44s-1.83,2.18-3,3.81a12.66,12.66,0,0,0-.87,1.3,27,27,0,0,1-4.62,7.17c-2.66,2.71-13,11.29-13,11.29l-8.88-7.54-9.23-4.13s5.17-22.46,7.36-25.26a8.32,8.32,0,0,1,.66-.77c2.09-2.19,4.56-3,5.79-4,.45-.38,5.19-3.8,6.89-3.36a5.74,5.74,0,0,1,4.26,3.56s4.55,1.4,6.32,4.07c0,0,4.23,1.15,5.49,5.09C1530.53,1103.42,1534.7,1105.08,1534.88,1107.72Z" transform="translate(0 0)"/><path class="cls-27" d="M1212.25,1793.2s-2.23,15.46-2.51,17.78-24.77-1.37-24.77-1.37l-2-18.4S1209.19,1791,1212.25,1793.2Z" transform="translate(0 0)"/><path class="cls-28" d="M1210,1809s7.76,9.32,15.27,13.38,19.3,5.66,23.74,9.87c3.2,3,11.66,16.09-19.51,15.82s-46.2,1.85-49.54-3.16,4.84-37,4.84-37S1192.18,1810.62,1210,1809Z" transform="translate(0 0)"/><path class="cls-27" d="M1387.73,1793.2s-2.22,15.46-2.5,17.78-24.77-1.37-24.77-1.37l-2-18.4S1384.67,1791,1387.73,1793.2Z" transform="translate(0 0)"/><path class="cls-28" d="M1385.49,1809s7.76,9.32,15.27,13.38,35.12,7.39,39.56,11.59c3.2,3,8.53,15.25-35.33,14.1-31.16-.81-46.2,1.85-49.54-3.16s4.83-37,4.83-37S1367.24,1810.8,1385.49,1809Z" transform="translate(0 0)"/><path class="cls-28" d="M1232.53,1396.07s-23,36.56-21.3,69.61-8.34,69.13-11.8,103.66c-3.85,38.49-19.62,129.61-20.2,150.2s2.45,86.33,2.45,86.33l31.57.72s26.52-159.3,33.39-175.55,40.92-132.14,42.07-145.14S1232.53,1396.07,1232.53,1396.07Z" transform="translate(0 0)"/><path class="cls-28" d="M1353.67,1401s17.35,90.58,19.64,110.81,3.81,97.9,5,110.54S1389,1787.43,1392,1806.59h-40.36s-31-111.07-31-163.63-23.93-114.26-39.38-148.93-50.82-35.5-60.32-99.84C1221,1394.19,1340.81,1380.61,1353.67,1401Z" transform="translate(0 0)"/><path class="cls-22" d="M1270.93,1088.67s30.89-11.54,45.13,12,12.87,70.59-2.7,76.38-39,2.76-46.93-12-15.17-36-14.82-50.19S1262.82,1092.77,1270.93,1088.67Z" transform="translate(0 0)"/><path class="cls-22" d="M1310,1178.09s-1.29,8.34.84,12.45-40,4.21-40,4.21-3.42-22.34-9.91-41.22S1310,1178.09,1310,1178.09Z" transform="translate(0 0)"/><path class="cls-29" d="M1260.92,1153.53s2.91,4.8,14.79,2.94,26.35-17.66,31.31-19.4,5-4.64,5-4.64l3.11,4.53,5.26.33s-4.8-14.13,2.45-19.89-7.52-45.74-45.6-32.43c0,0-29.25,8.06-28.18,24.7S1254.38,1145.25,1260.92,1153.53Z" transform="translate(0 0)"/><path class="cls-30" d="M1313.35,1190.05s-.13-7.85-3.69-8.61-39.27-4.18-43.64-2.47v9.15S1274.43,1193.3,1313.35,1190.05Z" transform="translate(0 0)"/><path class="cls-22" d="M1311.24,1126.38c-.67-2.79-7.76-10.76-10.48-2.23s4.11,20,7.91,19S1312.93,1133.45,1311.24,1126.38Z" transform="translate(0 0)"/><path class="cls-24" d="M1372.42,1201.93c-24.49-3.23-59.07-11.89-59.07-11.89l-47.33-1.92s-43.44,9.56-60.55,17.29c-1.62.73-1.63,38.75-6.08,48.72l14.18,29.92s8.2,59.28,9.89,85.64c.79,12.1-16.89,113.48-16.89,113.48s18.94,5.58,51.24,9.14,113-1.29,113.53-5.1S1355.71,1345.13,1355,1338c-1.09-11,3.79-69.39,3.79-69.39,7.46-5.78,72.94-36.18,90.81-52,4.78-4.24,25-23.89,30.7-30.67,20.31-24,37-44.63,39-49.07,2.3-2.53-22.59-15.95-24.8-16.68-1.94-.65-28.88,35.1-39.45,46.55-4.71,5.1-24.3,19.35-24.3,19.35S1387.74,1202.81,1372.42,1201.93Z" transform="translate(0 0)"/><path class="cls-29" d="M1262.13,1091.44s-39.38,3.08-1.21,62.09Z" transform="translate(0 0)"/><polygon class="cls-31" points="1528.92 1090.83 1532.15 1085.9 1526.2 1086.68 1528.92 1090.83"/><path class="cls-32" d="M740.37,1374.14s19.16,1.16,24.53,4.15,41.59-8.44,42.26-11.07,0-3.93,0-3.93H736.05Z" transform="translate(0 0)"/><path class="cls-32" d="M654.35,1289.65s-6.11,48,0,54.32c23.35,24,109.89,22.14,109.89,22.14l0,9.78s-131.55,16.41-143.77-9.11c-14.69-30.65-9-80.65-9-80.65Z" transform="translate(0 0)"/><polygon class="cls-33" points="610.94 1795.81 618.75 1786.9 604.64 1772.14 592.73 1780.49 610.94 1795.81"/><path class="cls-34" d="M592.73,1780.49s16.1,12.13,20.58,12.62,6.59,2.48,6.06,9.3,6.54,35.56,11.47,36,21.71.55,24.76,11.62-53.25,8.74-56.74-.33-27.72-53.07-24.85-56.61S584.47,1781.62,592.73,1780.49Z" transform="translate(0 0)"/><path class="cls-35" d="M696,1436.71s105.18,183.23,62.48,221.14c-16.74,14.86-32.86,28.31-56,48.2-12.32,10.58-27.19,22.83-44.82,41.18l-.73.77c-12.57,13.1-23,24.18-26.14,27.6-.12.11-.22.22-.31.32l-.35.38-11.71,11.17-17.18-15.1s19.47-26.94,30.45-47.63c15.41-29,41.3-63.18,53.28-72.71,20.52-16.31,26.16-19.51,26.16-35.11,0-16.73-96.4-110.19-96.4-110.19s-14-58.5,19.42-73.8C666.72,1418,696,1436.71,696,1436.71Z" transform="translate(0 0)"/><path class="cls-36" d="M615.82,1824.19s-.66-8.44.76-13.84-21.77-2.29-21.77-2.29-3,22.53-2.12,27.69S615.82,1824.19,615.82,1824.19Z" transform="translate(0 0)"/><path class="cls-33" d="M620.16,1810.38,588.87,1816s-2.25-39.92-1.85-70.5c.44-32.88-1.21-58.72,8.83-84.89,9.39-24.47,7.25-33.8,8.07-50.51s-8-102.75-8-102.75-10.69-38.52,14.05-65.7c24.1-26.48,86.46-.11,86.46-.11s-13,117.55-44.18,190.25c-8.82,20.58-4.05,33.08-15.31,64.87C636.92,1696.68,619.82,1766,620.16,1810.38Z" transform="translate(0 0)"/><path class="cls-37" d="M647.39,1209.16a36,36,0,0,0-3.71,10A88,88,0,0,0,642,1230a125.25,125.25,0,0,0-.63,13.67s-41.73-9.09-34.89-18.82,2.82-39.23,2.82-39.23S652.79,1200.05,647.39,1209.16Z" transform="translate(0 0)"/><path class="cls-22" d="M670.87,1128.77s10.68,9.27,5.91,36c0,0,2.36,21.29,5.62,25s-8.75,5.08-10,7.75-3.66,15.19-12,22.73-49.82-15.19-51.84-28-30.74-67.9,14.72-70.42S670.87,1128.77,670.87,1128.77Z" transform="translate(0 0)"/><path class="cls-38" d="M699.47,1326c-.84,2.68,2.34,43.8,2,47.35-1.59,19.45,3.43,49,5.41,59.6.47,2.5.73,3.78.73,3.78-45.06,22-107.74,20.11-107.74,20.11.23-1.7,9-22.88,9.2-24.5,3.71-26.46,9.19-38.53,7.7-56.43h0c-.84-10.05-3.39-20.56-8.69-33.58-15.31-37.6-14.47-62.63-12-83.29s8.69-32.44,8.69-32.44l38.07,4.09c8.08,8.95,15.27,13.72,38.24,34.11C705.59,1286.48,709.87,1293.06,699.47,1326Z" transform="translate(0 0)"/><path class="cls-35" d="M591.29,1829.9s22-6.26,22.67-6.87.8-2,3.84-.74,4.29,5.82,7.27,7.28,21.15,6.77,31.11,11.67c3.6,1.77,18.82,7.57,21,12.42s1.51,12.14-24.65,10.41-54.77,2-60.5-.9S589.79,1837.47,591.29,1829.9Z" transform="translate(0 0)"/><path class="cls-39" d="M677.92,1155.17s5.11-55.51-48.7-45.6-26.08,70.57-18.83,90.34c0,0-.88-30.7,25-31.7S666.68,1161.21,677.92,1155.17Z" transform="translate(0 0)"/><path class="cls-37" d="M631.21,1160.41c-3.24-5.63-14.35-2.63-13.08,6s10.17,17.15,13.12,13S636,1168.69,631.21,1160.41Z" transform="translate(0 0)"/><path class="cls-37" d="M632.44,1269.45s-4.44,47.55,1.67,53.84c23.35,24,115.48,24.51,115.48,24.51l4.4,13.83s-136.94,9.32-149.16-16.19c-14.69-30.66-9-80.66-9-80.66Z" transform="translate(0 0)"/><path class="cls-39" d="M612.16,1123.23s-20.72-19.88-35.46,2.64,17.51,53.93,30.57,35.29S612.16,1123.23,612.16,1123.23Z" transform="translate(0 0)"/><path class="cls-40" d="M643.68,1219.21A88,88,0,0,0,642,1230c-13.87-6.32-24.23-25.63-24.23-25.63,10,8.66,25.94,14.89,25.94,14.89Z" transform="translate(0 0)"/><rect class="cls-41" x="711.17" y="1361.62" width="130.61" height="7.29"/><rect class="cls-41" x="802.63" y="1305.32" width="130.61" height="7.29" transform="translate(-691.68 1494.19) rotate(-63.23)"/><path class="cls-37" d="M730.36,1347.8s19.16-1.47,24.53-5.27,41.59,10.73,42.27,14.09,0,5,0,5H726Z" transform="translate(0 0)"/><polygon class="cls-38" points="604.85 1226.58 607.53 1219.3 644.1 1226.58 644.1 1233.06 604.85 1226.58"/><path class="cls-37" d="M632.38,1270.08s3.92-27.56-15.26-30-21.29,24.78-21.29,24.78Z" transform="translate(0 0)"/><path class="cls-42" d="M1882.29,1789.62s2.22,15.6,2.5,17.94,24.77-1.38,24.77-1.38l2-18.57S1885.35,1787.42,1882.29,1789.62Z" transform="translate(0 0)"/><path class="cls-43" d="M1884.53,1805.58s-7.76,9.4-15.26,13.5-19.3,5.72-23.73,10c-3.21,3.06-11.67,16.24,19.5,16s46.19,1.87,49.53-3.19-4.83-37.3-4.83-37.3S1902.35,1807.2,1884.53,1805.58Z" transform="translate(0 0)"/><path class="cls-42" d="M1706.83,1789.62s2.23,15.6,2.5,17.94,24.77-1.38,24.77-1.38l2-18.57S1709.89,1787.42,1706.83,1789.62Z" transform="translate(0 0)"/><path class="cls-43" d="M1709.07,1805.58s-7.75,9.4-15.26,13.5-35.12,7.46-39.56,11.7c-3.2,3.06-8.53,15.39,35.33,14.23,31.15-.81,46.19,1.87,49.53-3.19s-4.83-37.3-4.83-37.3S1727.32,1807.38,1709.07,1805.58Z" transform="translate(0 0)"/><path class="cls-44" d="M1873.59,1386.85s13,38.71,11.32,72.07,6.74,69.87,10.19,104.72c3.86,38.86,19.62,130.84,20.2,151.62s-2.45,87.15-2.45,87.15l-31.57.72s-26.51-160.8-33.38-177.21-40.91-133.38-42.06-146.5S1873.59,1386.85,1873.59,1386.85Z" transform="translate(0 0)"/><path class="cls-43" d="M1740.88,1393.74s-17.34,91.44-19.62,111.86-3.82,98.81-5,111.57-7.63,167-13.74,186h40.36s31-112.12,31-165.17,23.93-115.33,39.38-150.34,50.81-35.83,60.31-100.77C1873.59,1386.85,1753.74,1373.14,1740.88,1393.74Z" transform="translate(0 0)"/><path class="cls-22" d="M1822.9,1081.24s-31.81-11.88-46.48,12.33-13.25,72.7,2.78,78.66,40.12,2.84,48.33-12.31,15.62-37.06,15.27-51.7S1831.25,1085.46,1822.9,1081.24Z" transform="translate(0 0)"/><path class="cls-22" d="M1784.54,1170.74s1.29,8.34-.84,12.45,40,4.21,40,4.21,3.43-22.34,9.91-41.22S1784.54,1170.74,1784.54,1170.74Z" transform="translate(0 0)"/><path class="cls-45" d="M1833.62,1146.18s-2.91,4.8-14.78,2.94-26.35-17.66-31.31-19.39-5-4.65-5-4.65l-3.11,4.54-5.26.33s4.8-14.13-2.44-19.89,7.52-45.73,45.59-32.43c0,0,29.24,8.07,28.17,24.7S1840.16,1137.9,1833.62,1146.18Z" transform="translate(0 0)"/><path class="cls-30" d="M1781.2,1182.69s.13-7.85,3.69-8.6,39.27-4.18,43.64-2.47v9.14S1820.11,1185.94,1781.2,1182.69Z" transform="translate(0 0)"/><path class="cls-22" d="M1783.31,1119c.67-2.79,7.76-10.76,10.48-2.22s-4.1,20-7.91,19S1781.63,1126.11,1783.31,1119Z" transform="translate(0 0)"/><path class="cls-38" d="M1781.2,1182.69s-19.57,7-42.25,16.67c0,0-26.08,9.74-28.91,38.55-1.5,15.29-17.77,96.44-20.83,103.3s-39.15,117.17-40.42,119.46,29.46,15,31.5,14,35-100.6,38.26-108c0,0,19-59.71,19.45-68.61,0,0,.55,25.37,1.57,32.49s-16.86,145.39-16.35,149.2,81.21,8.66,113.51,5.1a395.46,395.46,0,0,0,58.36-11s-25.41-109.12-24.63-121.22c1.7-26.36,10.5-76,10.5-76l26.34,49.65-33.71,86.73,7.72,26.36s62.64-94.66,64.68-103.31-3.07-19.66-6.38-26.78-25-61.32-30.11-68.95-13.68-38.18-34.45-46.68c-17.38-7.11-46.52-12.94-46.52-12.94Z" transform="translate(0 0)"/><rect class="cls-46" x="1601.37" y="1387.13" width="152.34" height="106.28" transform="translate(410.32 -371.54) rotate(14.38)"/><path class="cls-47" d="M1635.94,1483.18s-4.22,6.82-5.76,8.76,3.79,3.17,6.07,1.2S1635.94,1483.18,1635.94,1483.18Z" transform="translate(0 0)"/><path class="cls-48" d="M1666.67,1506.46s2.49-2.6,3-4.27c0,0,.74-3.1,1.4-5.28a14.94,14.94,0,0,1,.58-1.66c.71-1.56,2.73-4.76,3.37-9s2.49-23.08,2.49-23.08l-11.43-2.88-9.18-1.94s-19.84,19.79-20.9,23.64a9.63,9.63,0,0,0-.24,1.11c-.58,3.35.39,6.08.29,7.87,0,.66.06,7.22,1.59,8.45a6.4,6.4,0,0,0,6.06,1.46s4.3,3.16,7.89,3c0,0,3.87,3,8.26,1.54C1659.88,1505.42,1664.16,1508.06,1666.67,1506.46Z" transform="translate(0 0)"/><path class="cls-38" d="M1711.29,1387.06s-26.19,79.32-31,87.64c0,0-19.21-4-31.5-14l28.75-85.6Z" transform="translate(0 0)"/><path class="cls-49" d="M2271,1481.75s-1.06-18.26-5.9-21.1-2,2.82-2,2.82,2.72,13.25,3.32,18.63C2266.45,1482.36,2271,1481.75,2271,1481.75Z" transform="translate(0 0)"/><path class="cls-50" d="M2142.32,1097.62s45.42-3.78,44.18,44-8.82,55,0,88.72-44.28-19.17-44.28-19.17Z" transform="translate(0 0)"/><path class="cls-37" d="M2104.12,1226.72s-64.34,40.14-69.78,35.87c-7.61-6-28.28-56.9-28.28-56.9l-16.2,7.71s19.32,88.06,45.33,81.58,85.75-43.43,85.75-43.43Z" transform="translate(0 0)"/><path class="cls-37" d="M2191.81,1392.86s16.73,21.32,22.63,35.42,15.74,45,14.43,69-9.18,68.87-6.89,79,4.59,31.15,7.05,38.36,12.3,28.21,13.28,49.85-13.77,116.75-13.11,125.61-16.73,3.6-16.73,3.6-5.9-85.92-9.18-100.68-7.22-64.93-10.17-68.54-11-41-9.77-46.89-32.2-94.45-34.17-112.16-51.29-72.56-51.29-72.56S2141,1376.38,2191.81,1392.86Z" transform="translate(0 0)"/><path class="cls-37" d="M2112,1392.86s-.85,8.94-1.84,12.22-23.61,86.9-25.91,119-8.19,59.4-9.18,66.27,1,29.82,3,35.72-9.84,145.28-10.82,148.56,7.87,4.27,14.1,3.28S2119,1675.63,2117,1658.58s-3.94-53.41,1.64-68.19,55.75-121.69,56.08-128.25S2196.47,1342.6,2112,1392.86Z" transform="translate(0 0)"/><path class="cls-37" d="M2212.78,1783.24s-1.61,11.32-3.38,14.41-6.62,18.82-8.82,21.76-7.06,25,0,27.64,23.67,7.06,29.26-1.76a36.29,36.29,0,0,0,5.44-24.41c-.88-6.76-7.59-37.81-7.5-40.88S2212.78,1783.24,2212.78,1783.24Z" transform="translate(0 0)"/><path class="cls-38" d="M2203.39,1813.3s-.75,17.14,12.19,17.14,18.67-15.6,18.67-15.6,4.41,7.66,0,24-22.79,12.94-26.91,12.35S2183.71,1845.42,2203.39,1813.3Z" transform="translate(0 0)"/><path class="cls-38" d="M2068.59,1767.85s-9.15,16.36-14.58,19.67c-6.77,4.13-19.9,17.38-24.49,18s-21.09,3.53-17.9,12.85c2.61,7.63,42,6.53,46.39,2.71s17.7-17.55,23.06-17.25,3.36,19.8,3.36,19.8h5.82s2-19,2.27-22.23c.73-9.65-6.15-16.75-6.46-22.25s-.62-9.62-.62-9.62Z" transform="translate(0 0)"/><path class="cls-37" d="M2030.83,1805.07s13,4.48,23-1.26,29.14-14.45,35.91-14.51c0,0-3.69-11.29-3.77-12.56s-.48-7.21-.48-7.21l-16.75-2.69s-10.86,16-15.65,19.71S2036,1799.67,2030.83,1805.07Z" transform="translate(0 0)"/><path class="cls-38" d="M2097.61,1391.38s-4.68,19.44-6.4,25.09-12.77,93.42-15.49,148.32c0,0,66.16,25.09,157.17,20.9,0,0,2.21-100.84-6.15-129.37s-23.5-55.23-34.93-63.46C2181.64,1385.54,2097.61,1391.38,2097.61,1391.38Z" transform="translate(0 0)"/><path class="cls-37" d="M2248.65,1440.63a134.16,134.16,0,0,1-3.83,16.08c-2.48,7.9-4.76,10.42-3.77,14.94.75,3.42,4.62,6,5.59,4.88s1.45-14.37,7-14.31-1.64,16.45,1.63,15.24,15.88-8.1,15.09-14.8-5.84-11.53-5.51-21.52c.29-9.07-2.54-12.86-2.54-12.86Z" transform="translate(0 0)"/><path class="cls-22" d="M1985.5,1209.48s7.67,10,12.41,11,9.88-10.22,9.88-10.22l-2.79-10.15Z" transform="translate(0 0)"/><path class="cls-22" d="M2004.46,1206.14s3.67-11.51,4.18-13.28-1.29-7-4.56-11.95a105.82,105.82,0,0,0-8.55-11.51c-.73-.72-1.13-1.54-3.53-.46a10,10,0,0,0-3.82,3.31s-3.58,0-5.14,2.83a5.28,5.28,0,0,0-4.6,3.67s-3.29.18-4,2.85a40.77,40.77,0,0,1,1.65,6.9c.06,2,4.06,12,9.37,21C1985.5,1209.48,1993.39,1216.28,2004.46,1206.14Z" transform="translate(0 0)"/><path class="cls-51" d="M1996,1191.2s-4,4.6-4.42,6.45-12-5-12-5S1990.3,1186.53,1996,1191.2Z" transform="translate(0 0)"/><path class="cls-23" d="M1996.13,1170.56s6.4,13.56,4.26,14.73a3.85,3.85,0,0,1-3.65.3l-.33,6.8s-2.77,4.37-6.72.08c0,0-2.16,4.36-5.49-.24,0,0-2.7,2.24-4.62.38s-5.1-11-5.1-11,.19-2.24,4-2.85a5.2,5.2,0,0,1,4.6-3.67s2-3.57,6-3.73a5.93,5.93,0,0,1,6.52-1.95A7.42,7.42,0,0,1,1996.13,1170.56Z" transform="translate(0 0)"/><path class="cls-22" d="M2008.51,1192.4s-7.76-6.82-13.63-8.68c-1.33-.42-2.69-.59-3.59.49s-.46,3.73,2.75,6.85,5.93,8.64,5.93,8.64S2004.21,1202,2008.51,1192.4Z" transform="translate(0 0)"/><path class="cls-22" d="M1989,1171.35s7.92,14.09,7.83,15.75,5.19-1.17,5.17-2.58-5.75-14-6.48-15.12S1990.43,1167.39,1989,1171.35Z" transform="translate(0 0)"/><path class="cls-22" d="M1997.15,1172.11s-12.62-23.55-14.48-22.69c-2.7,1.25-2,7.77,8.67,25.35C2001.69,1191.86,1997.15,1172.11,1997.15,1172.11Z" transform="translate(0 0)"/><path class="cls-24" d="M2100.67,1275.53l-26-34.47s46.44-36,60.77-13.1C2135.46,1228,2136.48,1265.65,2100.67,1275.53Z" transform="translate(0 0)"/><path class="cls-24" d="M2085.06,1274.31c.74,11.56,6.65,21.15,7.63,25.33s0,13.78,1.23,23.37,4.92,55.34,3.69,68.37,89.47,7.15,96.36,3.22c0,0-15.28-27.32-15.69-38.63-.14-3.89-2.46-16,3.94-24.84,3.37-4.68,9.63-19.55,15.89-30.43h0c2.42-4.22,5-8.43,6.73-11.56h0a43.91,43.91,0,0,0,3.6-8.93s4-50.18-7-55.83-17-6.64-27.79-7.14a78.78,78.78,0,0,1-18-2.7l-25.33,2.7s-16.23,5.66-22.63,6.15-14.51,14.27-13.77,23.12S2084.33,1262.75,2085.06,1274.31Z" transform="translate(0 0)"/><path class="cls-49" d="M2253.05,1461.67s-7.33,1.87-6.89,26.65l8.29-1.39s-.15-13.69,2.33-21.16C2256.78,1465.77,2256.35,1460.93,2253.05,1461.67Z" transform="translate(0 0)"/><polygon class="cls-49" points="2222.63 1493.91 2287.23 1475.58 2287.04 1555.15 2222.75 1593.68 2222.63 1493.91"/><polygon class="cls-49" points="2222.75 1593.68 2230.84 1595.17 2293.38 1556.28 2292.6 1475.95 2287.23 1475.58 2222.75 1593.68"/><path class="cls-22" d="M2190.63,1219.78s20.12-.08,29.22,17.63,10.09,36.41,12.3,43,8,45.71,10.21,51.37,15.37,44.06,18.57,65.7a435.07,435.07,0,0,1,3.87,43.61l-16.15-.51s-16-58.89-21.53-72.91c-4.72-12-6.53-32.91-9.24-40.28s-19.43-59.28-22.87-63S2173.47,1223,2190.63,1219.78Z" transform="translate(0 0)"/><path class="cls-24" d="M2197.22,1291.54l41-12.91s-12.57-60.47-47.59-58.85C2162.54,1221.07,2197.22,1291.54,2197.22,1291.54Z" transform="translate(0 0)"/><path class="cls-22" d="M2146.77,1102.46c-11.26-1.85-37,1-44.32,30.54a93.66,93.66,0,0,0,1.22,14.77c1.23,6.58-6.61,24.66-5.22,25.75s7.38,3,7.38,3,4.26,21.23,11.47,21.87,35-1.86,50.77-25.86S2192.22,1109.9,2146.77,1102.46Z" transform="translate(0 0)"/><path class="cls-22" d="M2128.07,1190.15s.56,3,1.08,7.34c.26,2.23.52,4.83.68,7.58.45,7.62.22,16.44-2.38,22,0,0,14.1,8.74,29.22-12.28,0,0-1.47-26.23,7.21-40.09S2128.07,1190.15,2128.07,1190.15Z" transform="translate(0 0)"/><path class="cls-50" d="M2102.45,1133s16.94,14.63,34.89,19.24,27.45,24.78,27.45,24.78,31.75-31.68,12.59-62.42S2102.48,1097.57,2102.45,1133Z" transform="translate(0 0)"/><path class="cls-40" d="M2129.15,1197.49c.26,2.23.52,4.83.68,7.58a79.23,79.23,0,0,0,24.55-18.2C2145.08,1193.53,2129.15,1197.49,2129.15,1197.49Z" transform="translate(0 0)"/><path class="cls-50" d="M2140.64,1153.29s18.36,49.37,16.16,61.25c0,0,9.72-1.67,27,3.62C2183.82,1218.16,2175.46,1130.09,2140.64,1153.29Z" transform="translate(0 0)"/><path class="cls-22" d="M2162.93,1216.13s-6,37-28.43,32.84-5.4-31.31-5.4-31.31S2137.84,1209.82,2162.93,1216.13Z" transform="translate(0 0)"/><path class="cls-52" d="M1726.17,755.87A118.08,118.08,0,1,1,1608.1,637.79,117.57,117.57,0,0,1,1726.17,755.87Z" transform="translate(0 0)"/><path class="cls-14" d="M1692.55,819.17a15.62,15.62,0,0,0-2-1.16l-.11-.08v0c-5.18-2.87-20.37-10.41-50.34-19h0c-5.43-1.66-9.54-2.74-11-3.1l-2.54-4a124.82,124.82,0,0,1-.2-14.21c4.22-4.9,8-12.55,10.17-24.48.68.51,1.21-.61,1.21-.61-.38-.68,5.7-15.51,4.6-18.86-.62-1.89-1.88-1.65-2.87-1.1.15-.87.3-1.77.46-2.72,0,0,2.4-22.75-9.11-35.42-1.19-1.14-5.43-1.43-5.43-1.43-18.49-5.66-29.58-3.13-36.52-.15-10.3,8.43-11.08,22.78-10.61,30.69.21,1.87.42,3.75.63,5.59a.12.12,0,0,0,0,0c.09.73.17,1.44.26,2.15-1-.59-2.22-.89-2.92,1-1.23,3.3,3.26,18.12,3.82,19,0,0,1,1.52,1.73.83,0,0,0,0,0,0,2.13,13,6,21,10,26-.29,5.28-1,11.49-1.59,15.46l-4.57,4.77h0l-.72.24v0c-51.69,13.79-66.29,23.39-66.29,23.39-1.3.8-2.63,2.94-4,6.13a118.08,118.08,0,0,0,183.84,3.76C1696.27,826.39,1694.67,821.29,1692.55,819.17Z" transform="translate(0 0)"/><rect class="cls-53" x="776.5" y="662.82" width="2.11" height="199.53"/><rect class="cls-53" x="926.84" y="662.82" width="2.11" height="199.53"/><rect class="cls-53" x="1077.18" y="662.82" width="2.11" height="199.53"/><rect class="cls-53" x="1227.53" y="662.82" width="2.11" height="199.53"/><rect class="cls-53" x="1377.87" y="662.82" width="2.11" height="199.53"/><rect class="cls-54" x="777.55" y="874.17" width="23.92" height="6.93"/><rect class="cls-55" x="777.55" y="638.23" width="36.01" height="5.2"/><rect class="cls-55" x="777.55" y="647.85" width="51.08" height="5.2"/><rect class="cls-55" x="926.28" y="638.23" width="42.28" height="5.2"/><rect class="cls-55" x="926.28" y="647.85" width="27.03" height="5.2"/><rect class="cls-55" x="1079.3" y="638.23" width="26.2" height="5.2"/><rect class="cls-55" x="1079.3" y="647.85" width="30.54" height="5.2"/><rect class="cls-55" x="1229.64" y="638.23" width="38.16" height="5.2"/><rect class="cls-55" x="1229.64" y="647.85" width="30.54" height="5.2"/><rect class="cls-55" x="1378.93" y="638.23" width="22.79" height="5.2"/><rect class="cls-55" x="1378.93" y="647.85" width="18.24" height="5.2"/><rect class="cls-54" x="927.9" y="874.17" width="23.92" height="6.93"/><rect class="cls-54" x="1079.3" y="874.17" width="23.92" height="6.93"/><rect class="cls-54" x="1229.64" y="874.17" width="23.92" height="6.93"/><rect class="cls-54" x="1379.99" y="874.17" width="23.92" height="6.93"/><path class="cls-56" d="M1326.83,803.06c-46.9,0-87.66-18.23-130.16-37.24-52.46-23.46-106.71-47.72-179-41.08C971.52,729,942.55,745.89,917,760.8c-23.14,13.51-45,25.38-74.65,26.4-47.9,1.64-64.51-16.73-64.79-17.85V757.56h0c.06.2,10.52,20.82,64.74,20.58,26.7-.13,46.4-11.63,69.22-24.94,26.52-15.47,56.57-33,105.15-37.48,75.17-6.91,130.75,17.95,184.5,42,56.24,25.15,109.91,48.74,177.77,28.27v9.7C1359.58,801.51,1344.11,803.06,1326.83,803.06Z" transform="translate(0 0)"/><path class="cls-57" d="M1045.35,800.8c-34.61,0-62.06-20.93-88.94-41.43-20.38-15.54-41.52-31.43-65.93-39.26C816,696.19,777.89,739.86,777.55,740.25V727c.4-.45,7.2-8.39,26.87-16,17.9-6.9,47.94-12.41,89.37.56,26.25,8.21,48.05,24.83,69.13,40.91,42.77,32.61,79.71,60.78,143.85,16.66,48.58-33.41,94.38-65.26,139.44-76.89,44.08-11.38,90-3.05,133,35.64l-.32,12.06c-91.36-82.53-169.16-30.24-266,36.39C1087.23,794,1065.12,800.8,1045.35,800.8Z" transform="translate(0 0)"/></svg>