<svg id="b52d7e2d-d80f-4111-b6ed-d15502ee1edd" xmlns="http://www.w3.org/2000/svg" viewBox="0 0 711.19 669.71"><defs><style>.cls-1{fill:#e6e6e6;}.cls-2{opacity:0.1;isolation:isolate;}.cls-3{fill:#3f3d56;}.cls-4{fill:#fff;}.cls-5{fill:#f2f2f2;}.cls-6{fill:#2f2e41;}.cls-7{fill:#ffb8b8;}.cls-8{fill:#ec4646;}.cls-9{font-size:42.79px;font-family:CenturySchoolbook, Century Schoolbook;}</style></defs><polygon class="cls-1" points="516.33 380.05 516.33 565.04 547.27 615.47 549.63 619.31 671.72 619.31 674.19 380.05 516.33 380.05"/><polygon class="cls-2" points="516.33 380.05 516.33 565.04 547.27 615.47 549.17 380.05 516.33 380.05"/><polygon class="cls-1" points="221.57 375.11 221.57 560.11 190.62 610.54 188.27 614.37 66.17 614.37 63.7 375.11 221.57 375.11"/><polygon class="cls-2" points="221.57 375.11 221.57 560.11 190.62 610.54 188.72 375.11 221.57 375.11"/><polygon class="cls-1" points="711.19 371.41 711.19 382.51 47.67 382.51 47.67 366.48 109.33 334.41 656.92 334.41 711.19 371.41"/><polygon class="cls-2" points="711.19 371.41 711.19 382.51 47.67 382.51 47.67 366.48 711.19 371.41"/><polygon class="cls-3" points="142.63 426.91 113.03 426.91 100.7 418.28 156.2 418.28 142.63 426.91"/><polygon class="cls-3" points="142.63 462.68 113.03 462.68 100.7 454.05 156.2 454.05 142.63 462.68"/><polygon class="cls-3" points="142.63 513.24 113.03 513.24 100.7 504.61 156.2 504.61 142.63 513.24"/><polygon class="cls-3" points="142.63 563.81 113.03 563.81 100.7 555.18 156.2 555.18 142.63 563.81"/><polygon class="cls-3" points="595.26 431.85 624.86 431.85 637.19 423.21 581.69 423.21 595.26 431.85"/><polygon class="cls-3" points="595.26 467.61 624.86 467.61 637.19 458.98 581.69 458.98 595.26 467.61"/><polygon class="cls-3" points="595.26 518.18 624.86 518.18 637.19 509.54 581.69 509.54 595.26 518.18"/><polygon class="cls-3" points="595.26 568.74 624.86 568.74 637.19 560.11 581.69 560.11 595.26 568.74"/><path class="cls-3" d="M615.41,120.46H366.23a9.43,9.43,0,0,0-9.43,9.42h0V297.74a9.43,9.43,0,0,0,9.43,9.42h94.59l-3.54,22.63s-20.26,10.76-6,11.07,81.33,0,81.33,0,13,0-7.59-11.39l-3.34-22.31h93.75a9.43,9.43,0,0,0,9.43-9.42h0V129.88a9.42,9.42,0,0,0-9.42-9.42Z" transform="translate(0 0.03)"/><rect class="cls-4" x="365.82" y="130.45" width="250" height="139.87"/><circle class="cls-5" cx="490.82" cy="126.02" r="1.58"/><circle class="cls-5" cx="490.82" cy="294.37" r="6.01"/><polygon class="cls-3" points="481.45 357.98 481.45 361.15 311.2 361.15 311.2 358.61 311.44 357.98 315.63 346.59 477.97 346.59 481.45 357.98"/><path class="cls-3" d="M547,354.85c-.31,1.33-1.48,2.73-4.13,4-9.49,4.75-28.79-1.26-28.79-1.26s-14.88-2.54-14.88-9.18a11.59,11.59,0,0,1,1.31-.78c4-2.11,17.22-7.32,40.69.22a9.85,9.85,0,0,1,4.46,2.93A4.69,4.69,0,0,1,547,354.85Z" transform="translate(0 0.03)"/><path class="cls-2" d="M547,354.85c-11.62,4.46-22,4.79-32.61-2.59a23.29,23.29,0,0,0-13.88-4.58c4-2.11,17.22-7.32,40.69.22a9.85,9.85,0,0,1,4.46,2.93A4.69,4.69,0,0,1,547,354.85Z" transform="translate(0 0.03)"/><ellipse class="cls-5" cx="532.4" cy="351.02" rx="4.11" ry="1.27"/><polygon class="cls-2" points="481.45 357.98 481.45 361.15 311.2 361.15 311.2 358.61 311.44 357.98 481.45 357.98"/><path class="cls-6" d="M94.66,0a8.51,8.51,0,0,0-5,1.11c-1.48,1-2.41,2.78-3.36,4.43a52.91,52.91,0,0,1-14.43,16.3c-4.29,3.14-9.74,7.06-9,12.86A17.63,17.63,0,0,0,65,40.12c4,8,14.76,14.16,13.69,23.27,3.94-6.58-1.32-9.83,2.61-16.41,1.87-3.14,5.12-6.67,7.95-4.71,1,.66,1.57,1.85,2.55,2.42,2.35,1.38,4.85-1.25,6.94-3.12,7.17-6.45,17.38-4.76,26.31-2.75,4.22,1,8.85,2.19,11.34,6.22,3.28,5.3-3.11,11-4.73,17A3.27,3.27,0,0,0,134,66a3.18,3.18,0,0,0,1.15.08c2.68-.26,5.86-.48,6-1.65,3.37.12,7.5-.27,8.94-3.78a14.54,14.54,0,0,0,.7-4.29c.53-5.9,3-11.28,4.69-16.89s2.38-12.19-.42-17.17a19.83,19.83,0,0,0-3.67-4.45C135.53,2.51,114.66,0,94.66,0Z" transform="translate(0 0.03)"/><path class="cls-7" d="M82.14,74.91s3.45,28.77-9.21,31.08,11.51,41.44,11.51,41.44l57.56,6.9-13.82-46s-9.21-3.46-3.45-26.48S82.14,74.91,82.14,74.91Z" transform="translate(0 0.03)"/><polygon class="cls-7" points="47.03 569.35 51.63 632.66 75.81 632.66 68.9 569.35 47.03 569.35"/><polygon class="cls-7" points="224.3 449.63 227.76 502.58 254.23 491.07 243.87 447.33 224.3 449.63"/><path class="cls-6" d="M29.76,327.58s1.15,66.77,8.06,88.64,5.75,23,4.6,26.47-2.3,1.15-2.3,6.91-2.3,96.7,0,104.75-6.91,21.88,0,23,39.14,0,40.29-6.91-9.21-9.21-4.6-13.81,11.51-99,11.51-99L103.43,392l29.93-34.53h63.32l19.57,76s-8.06,21.88-2.31,21.88,40.29,6.9,40.29-18.42-11.51-100.15-13.81-102.45,1.15-10.36-2.3-13.82-43.75-27.62-58.71-32.23-36-10.08-36-10.08Z" transform="translate(0 0.03)"/><path class="cls-6" d="M254.23,481.83s-17.26-5.75-25.32,11.51-4.61,21.87-4.61,21.87,26.48,9.21,31.08,4.61c2-2,8.37-2.7,14.92-2.85,10-.22,12.62-14.33,3.2-17.62-.28-.09-.56-.18-.85-.25C263.44,496.8,254.23,481.83,254.23,481.83Z" transform="translate(0 0.03)"/><circle class="cls-7" cx="108.04" cy="59.39" r="34.53"/><path class="cls-4" d="M63.14,120.38s56.41,11.51,70.22-6.91,19.57,51.8,19.57,51.8l6.91,73.67-10.36,40.29S95.38,323,78.11,326.43s-43.74,5.75-43.74,5.75,8.05-127.77,8.05-130.07S63.14,120.38,63.14,120.38Z" transform="translate(0 0.03)"/><path class="cls-8" d="M80.3,98.79s-12.55-7.19-16-.29-35.69,24.18-39.14,24.18,6.9,95.54,2.3,107S1,325.28,13.65,332.18s3.45-6.9,16.11,10.36S104.58,359.81,108,352.9s-27.63-58.7-21.87-107,15-115.11,6.9-124.32S80.3,98.79,80.3,98.79Z" transform="translate(0 0.03)"/><path class="cls-8" d="M121.85,104.5,123.46,99s47.89,15.87,50.19,26.23,1.15,82.89-6.9,88.64-19.57,15-11.52,28.78,17.27,28.78,24.18,29.93,19.57,9.21,16.11,17.27-44.89-6.91-44.89-6.91S123,262.21,124.15,230,121.85,104.5,121.85,104.5Z" transform="translate(0 0.03)"/><path class="cls-7" d="M162.14,242.4l-27.63,51.8s-40.29,41.44-17.26,46,35.68-38,35.68-38l29.93-42.59Z" transform="translate(0 0.03)"/><path class="cls-6" d="M96.34,9a7.7,7.7,0,0,0-4,.78A9.46,9.46,0,0,0,89.57,13,39.7,39.7,0,0,1,77.82,24.47c-3.49,2.22-7.93,5-7.33,9.09a11.27,11.27,0,0,0,1.7,3.83,30.21,30.21,0,0,1,3.67,18.8l9.6-13.95C87,40,89.63,37.52,91.93,38.92c.77.46,1.28,1.3,2.08,1.7,1.91,1,3.95-.88,5.64-2.2,5.84-4.56,14.15-3.37,21.42-2,3.44.67,7.21,1.55,9.23,4.4,3.38,4.73-.14,11.57,1.82,17a5,5,0,0,0,2.08-3.32c2.75.09,6.11-.18,7.28-2.66a9.3,9.3,0,0,0,.57-3c.43-4.17,2.47-8,3.82-11.94s1.93-8.61-.34-12.13a14.89,14.89,0,0,0-3-3.15C129.62,10.81,112.62,9,96.34,9Z" transform="translate(0 0.03)"/><path class="cls-8" d="M162.14,122.68l10.73,2.84s25,63.92,19.2,107.67-9.21,34.53-9.21,34.53S173.65,247,152.93,251.6Z" transform="translate(0 0.03)"/><path class="cls-6" d="M48.62,624.26c-2.77,3.78-2.22,9.17-4.68,13.15-2.13,3.46-6.14,5.27-8.81,8.33A22.89,22.89,0,0,0,32.86,649c-2.47,4.15-4.48,9.45-2,13.62,2,3.35,6.07,4.66,9.85,5.55,4.78,1.13,9.74,2,14.56,1.17s9.55-3.82,11.28-8.41a31.15,31.15,0,0,1,1.2-3.4c2.62-5.16,10.83-5.21,13.51-10.33,1.87-3.59.15-7.92-1.57-11.58l-5.27-11.18c-1.74-3.71-8.82-1.57-12.51-2.46C57.06,620.82,52.08,619.54,48.62,624.26Z" transform="translate(0 0.03)"/><path class="cls-7" d="M10.19,265.42l48.35,74.82s29.93,38,39.14,20.72-32.23-46-32.23-46L34.37,257.36Z" transform="translate(0 0.03)"/><path class="cls-8" d="M34.37,125l-9.21-2.3s-18.42,5.75-23,29.93S1,273.48,6.74,274.63s28.43-16.84,32.05-13-7.88-15.75-4.42-26.11S34.37,125,34.37,125Z" transform="translate(0 0.03)"/><text class="cls-9" transform="translate(456 212.32) scale(0.57 1)">Skills</text></svg>